{"glyphs":{"0":{"ha":770,"x_min":54,"x_max":715,"o":"m 99 220 q 86 254 99 220 q 64 357 74 288 q 54 503 54 426 q 64 651 54 580 q 98 794 73 723 q 159 916 122 865 q 256 1000 196 968 q 391 1032 316 1032 q 522 1000 465 1032 q 615 917 579 968 q 674 795 650 865 q 715 501 715 668 q 524 23 715 123 q 392 -7 466 -7 q 258 23 317 -7 q 161 103 199 54 q 99 220 123 152 m 155 501 q 227 160 155 263 q 393 77 283 77 q 563 169 513 77 q 603 293 595 227 q 615 477 615 391 q 612 613 615 562 q 600 717 608 664 q 575 810 591 770 q 534 882 558 850 q 393 948 486 948 q 155 501 155 948 z "},"1":{"ha":602,"x_min":72,"x_max":515,"o":"m 72 949 l 294 1027 l 366 1027 l 366 96 l 515 96 l 515 0 l 100 0 l 100 96 l 265 96 l 265 917 l 104 870 l 72 949 z "},"2":{"ha":800,"x_min":61,"x_max":712,"o":"m 61 0 q 70 117 61 92 q 90 170 79 143 q 116 219 100 197 q 156 272 132 241 q 212 331 180 302 q 345 444 290 404 l 469 534 q 537 589 518 569 q 570 627 555 608 q 593 665 585 646 q 612 757 612 709 q 562 898 612 844 q 411 951 513 951 q 222 849 284 951 q 191 738 191 795 l 90 738 q 137 892 90 823 q 260 998 184 961 q 418 1036 336 1036 q 567 999 500 1036 q 673 898 633 962 q 712 757 712 833 q 678 625 712 680 q 604 532 641 564 q 545 482 566 499 l 489 439 q 171 96 171 203 l 698 96 l 698 0 l 61 0 z "},"3":{"ha":794,"x_min":47,"x_max":706,"o":"m 47 161 l 116 220 q 227 121 150 169 q 384 77 298 77 q 538 131 470 77 q 606 280 606 184 q 547 435 606 375 q 393 494 489 494 l 248 494 l 248 579 l 393 579 q 527 634 481 579 q 572 772 572 690 q 516 903 572 855 q 374 951 460 951 q 171 867 265 951 q 140 836 152 850 l 75 899 q 203 996 125 956 q 370 1036 281 1036 q 526 1001 459 1036 q 632 907 592 966 q 673 779 673 848 q 606 592 673 671 q 545 537 576 557 q 667 425 629 487 q 706 283 706 363 q 615 67 706 142 q 374 -7 524 -7 q 47 161 180 -7 z "},"4":{"ha":863,"x_min":87,"x_max":809,"o":"m 87 264 l 87 346 l 532 1027 l 652 1027 l 652 349 l 809 349 l 809 264 l 652 264 l 652 0 l 552 0 l 552 264 l 87 264 m 189 349 l 552 349 l 552 909 l 189 349 z "},"5":{"ha":711,"x_min":59,"x_max":665,"o":"m 59 187 l 125 238 q 178 158 138 200 q 340 77 255 77 q 420 96 382 77 q 481 138 458 116 q 524 188 505 159 q 564 361 564 253 q 462 582 564 525 q 353 610 412 610 q 241 566 293 610 q 184 490 189 523 l 92 490 l 92 1027 l 608 1027 l 608 943 l 192 943 l 192 631 q 300 687 233 671 q 357 694 328 694 q 578 602 491 694 q 665 354 665 509 q 575 95 665 198 q 343 -7 486 -7 q 120 92 216 -7 q 59 187 71 142 z "},"6":{"ha":789,"x_min":71,"x_max":710,"o":"m 710 324 q 661 143 710 228 q 510 13 606 50 q 397 -7 458 -7 q 158 116 245 -7 q 71 460 71 239 q 178 878 71 730 q 474 1027 286 1027 q 577 1005 522 1027 q 653 958 633 983 l 614 886 q 461 943 534 943 q 254 828 337 943 q 163 505 172 713 q 171 517 163 505 q 185 536 179 528 q 203 557 191 543 q 228 580 216 570 q 259 602 240 590 q 297 621 277 613 q 398 637 345 637 q 623 552 536 637 q 710 324 710 466 m 610 325 q 610 378 610 325 q 552 492 610 431 q 398 553 494 553 q 230 475 293 553 q 174 349 193 429 q 323 90 189 142 q 393 77 359 77 q 455 85 427 77 q 512 112 484 93 q 562 158 540 131 q 610 325 610 219 z "},"7":{"ha":666,"x_min":57,"x_max":649,"o":"m 57 933 l 57 1027 l 649 1027 l 649 932 l 247 0 l 136 0 l 547 933 l 57 933 z "},"8":{"ha":817,"x_min":69,"x_max":747,"o":"m 69 271 q 180 479 69 392 q 297 546 235 522 q 163 634 215 574 q 111 773 111 694 q 153 911 111 852 q 264 1003 195 971 q 414 1034 333 1034 q 623 962 536 1034 q 710 783 710 889 q 581 581 710 666 q 507 541 546 558 l 553 519 q 718 387 676 463 q 747 272 747 334 q 720 157 747 210 q 647 69 692 104 q 422 -7 549 -7 q 251 25 331 -7 q 120 122 172 58 q 69 271 69 187 m 400 505 q 238 415 307 480 q 170 280 170 350 q 206 164 170 210 q 420 77 277 77 q 520 98 476 77 q 590 140 565 119 q 647 273 647 191 q 587 406 647 353 q 452 484 536 449 l 400 505 m 290 644 q 361 602 327 618 q 399 585 396 586 q 538 651 503 627 q 610 778 610 699 q 549 903 610 857 q 409 950 489 950 q 270 901 329 950 q 211 774 211 851 q 290 644 211 697 z "},"9":{"ha":789,"x_min":71,"x_max":710,"o":"m 71 695 q 121 876 71 791 q 271 1006 176 969 q 384 1027 323 1027 q 623 904 536 1027 q 710 559 710 781 q 603 141 710 290 q 307 -7 496 -7 q 204 14 260 -7 q 128 61 149 36 l 168 134 q 320 77 248 77 q 527 191 444 77 q 618 515 610 306 q 610 503 618 514 q 596 484 602 491 q 578 463 591 476 q 553 439 566 449 q 523 418 541 429 q 484 399 504 406 q 383 382 437 382 q 158 468 245 382 q 71 695 71 553 m 172 694 q 172 642 172 694 q 229 527 172 589 q 383 466 287 466 q 551 544 488 466 q 607 670 589 590 q 458 929 592 878 q 389 943 422 943 q 326 935 355 943 q 270 907 298 926 q 220 861 241 888 q 172 694 172 800 z "},"\r":{"ha":1389,"x_min":0,"x_max":0,"o":""}," ":{"ha":347,"x_min":0,"x_max":0,"o":""},"!":{"ha":227,"x_min":62,"x_max":164,"o":"m 62 0 l 62 102 l 164 102 l 164 0 l 62 0 m 62 981 l 164 981 l 149 203 l 78 203 l 62 981 z "},"\"":{"ha":391,"x_min":47,"x_max":344,"o":"m 227 709 l 286 879 l 242 879 l 242 981 l 344 981 l 344 879 q 292 776 326 840 q 257 709 259 711 l 227 709 m 47 709 l 106 879 l 62 879 l 62 981 l 164 981 l 164 879 q 113 776 146 840 q 77 709 79 711 l 47 709 z "},"#":{"ha":901,"x_min":100,"x_max":798,"o":"m 100 331 l 100 415 l 260 415 l 260 631 l 100 631 l 100 715 l 260 715 l 260 1029 l 350 1029 l 350 715 l 541 715 l 541 1029 l 631 1029 l 631 715 l 798 715 l 798 631 l 631 631 l 631 415 l 798 415 l 798 331 l 631 331 l 631 0 l 541 0 l 541 331 l 350 331 l 350 0 l 260 0 l 260 331 l 100 331 m 350 415 l 541 415 l 541 631 l 350 631 l 350 415 z "},"$":{"ha":814,"x_min":106,"x_max":726,"o":"m 106 780 q 134 885 106 831 q 217 978 162 938 q 343 1029 272 1018 l 343 1061 l 444 1061 l 444 1030 q 652 899 587 1015 q 664 879 658 890 q 671 865 670 867 l 590 821 q 555 883 579 856 q 444 945 509 932 l 444 568 l 498 551 q 654 458 593 517 q 726 261 726 387 q 699 147 726 198 q 641 65 671 96 q 559 14 611 35 q 444 -7 508 -7 l 444 -144 l 343 -144 l 343 2 q 148 109 227 26 q 121 140 130 128 l 112 153 l 192 205 q 197 196 193 205 q 212 173 201 187 q 237 143 222 159 q 343 88 275 106 l 343 502 q 155 623 208 555 q 106 780 106 684 m 343 943 q 243 886 280 930 q 207 787 207 842 q 217 702 207 732 q 250 652 228 672 q 343 602 282 625 l 343 943 m 444 77 q 580 130 534 79 q 626 255 626 180 q 596 374 626 330 q 493 448 567 418 l 444 467 l 444 77 z "},"%":{"ha":729,"x_min":45,"x_max":693,"o":"m 105 720 q 80 745 105 720 q 55 842 55 770 q 105 965 55 914 q 228 1015 156 1015 q 350 965 300 1015 q 401 842 401 914 q 350 720 401 770 q 228 669 300 669 q 105 720 156 669 m 152 918 q 136 902 152 918 q 120 842 120 886 q 152 767 120 798 q 227 735 183 735 q 303 767 271 735 q 334 842 334 798 q 303 918 334 886 q 227 949 271 949 q 152 918 183 949 m 398 59 q 372 84 398 59 q 347 181 347 109 q 398 303 347 253 q 520 354 448 354 q 643 303 592 354 q 693 181 693 253 q 643 59 693 109 q 520 8 592 8 q 398 59 448 8 m 444 257 q 428 241 444 257 q 412 181 412 225 q 444 105 412 137 q 519 74 475 74 q 595 105 564 74 q 627 181 627 137 q 595 257 627 225 q 519 288 564 288 q 444 257 475 288 m 45 45 l 613 1027 l 690 983 l 123 0 l 45 45 z "},"&":{"ha":954,"x_min":75,"x_max":880,"o":"m 159 485 q 286 590 203 530 q 217 820 217 727 q 276 978 217 913 q 424 1042 335 1042 q 568 980 513 1042 q 623 827 623 918 q 536 655 623 726 q 399 564 475 606 q 644 245 492 410 q 713 373 698 319 q 728 483 728 427 l 817 483 q 786 316 817 387 q 709 178 754 244 q 824 102 777 113 q 880 98 846 98 l 880 0 l 824 0 q 755 20 791 0 q 651 108 719 40 q 374 -7 538 -7 q 162 76 249 -7 q 75 279 75 159 q 159 485 75 399 m 164 282 q 227 136 164 196 q 376 77 290 77 q 586 176 488 77 q 326 516 423 355 l 274 476 q 200 401 217 431 q 164 282 164 341 m 426 964 q 400 964 426 964 q 340 921 374 964 q 307 812 307 878 q 358 639 307 745 q 480 713 454 693 q 515 747 505 732 q 543 836 543 786 q 510 925 543 885 q 426 964 477 964 z "},"'":{"ha":227,"x_min":47,"x_max":164,"o":"m 47 709 l 106 879 l 62 879 l 62 981 l 164 981 l 164 879 q 113 776 146 840 q 77 709 79 711 l 47 709 z "},"(":{"ha":370,"x_min":62,"x_max":363,"o":"m 62 473 q 75 621 62 545 q 106 759 87 696 q 150 879 126 821 q 197 979 174 937 q 272 1104 245 1067 l 284 1121 l 363 1068 q 295 952 333 1025 q 231 813 257 880 q 184 652 205 747 q 163 469 163 557 q 183 286 163 381 q 232 117 203 190 q 339 -110 292 -37 l 359 -142 l 281 -195 q 149 65 214 -100 q 62 473 62 281 z "},")":{"ha":370,"x_min":62,"x_max":363,"o":"m 62 1068 l 141 1121 q 275 879 211 1031 q 363 470 363 673 q 340 271 363 375 q 286 88 318 168 q 167 -160 220 -75 l 144 -195 l 66 -142 q 131 -26 93 -102 q 194 118 168 50 q 241 284 220 186 q 262 469 262 381 q 241 652 262 557 q 194 813 220 747 q 134 945 168 880 q 62 1068 92 1025 z "},"*":{"ha":467,"x_min":43,"x_max":423,"o":"m 43 489 l 62 549 l 202 503 l 202 650 l 264 650 l 264 503 l 404 549 l 423 489 l 284 444 l 370 325 l 319 288 l 233 406 l 147 288 l 96 325 l 182 444 l 43 489 z "},"+":{"ha":616,"x_min":51,"x_max":566,"o":"m 51 457 l 51 547 l 264 547 l 264 760 l 353 760 l 353 547 l 566 547 l 566 457 l 353 457 l 353 244 l 264 244 l 264 457 l 51 457 z "},",":{"ha":227,"x_min":47,"x_max":164,"o":"m 47 -170 l 106 0 l 62 0 l 62 102 l 164 102 l 164 0 q 113 -103 146 -39 q 77 -170 79 -168 l 47 -170 z "},"-":{"ha":347,"x_min":0,"x_max":347,"o":"m 0 355 l 0 431 l 347 431 l 347 355 l 0 355 z "},".":{"ha":227,"x_min":62,"x_max":164,"o":"m 62 0 l 62 102 l 164 102 l 164 0 l 62 0 z "},"/":{"ha":680,"x_min":47,"x_max":625,"o":"m 47 -8 l 552 1071 l 625 1036 l 121 -43 l 47 -8 z "},":":{"ha":227,"x_min":62,"x_max":164,"o":"m 62 0 l 62 102 l 164 102 l 164 0 l 62 0 m 62 614 l 62 715 l 164 715 l 164 614 l 62 614 z "},";":{"ha":227,"x_min":47,"x_max":164,"o":"m 47 -170 l 106 0 l 62 0 l 62 102 l 164 102 l 164 0 q 113 -103 146 -39 q 77 -170 79 -168 l 47 -170 m 62 614 l 62 715 l 164 715 l 164 614 l 62 614 z "},"<":{"ha":690,"x_min":43,"x_max":647,"o":"m 43 505 l 606 881 l 647 820 l 157 505 l 647 189 l 606 128 l 43 505 z "},"=":{"ha":633,"x_min":51,"x_max":582,"o":"m 51 338 l 51 427 l 582 427 l 582 338 l 51 338 m 51 551 l 51 640 l 582 640 l 582 551 l 51 551 z "},">":{"ha":690,"x_min":43,"x_max":647,"o":"m 647 505 l 84 128 l 43 189 l 533 505 l 43 820 l 84 881 l 647 505 z "},"?":{"ha":585,"x_min":63,"x_max":524,"o":"m 63 891 q 150 993 99 959 q 279 1027 201 1027 q 411 990 357 1027 q 495 893 466 953 q 524 772 524 833 q 499 656 524 710 q 439 560 474 602 l 369 477 q 285 318 285 382 l 285 217 l 195 217 l 195 318 q 279 500 195 402 l 348 583 q 431 760 431 681 q 385 889 431 838 q 290 940 338 940 q 214 929 242 940 q 170 901 186 919 q 131 845 154 884 l 63 891 m 185 0 l 185 102 l 287 102 l 287 0 l 185 0 z "},"@":{"ha":1091,"x_min":54,"x_max":1037,"o":"m 132 145 q 111 177 132 145 q 73 278 91 210 q 54 431 54 346 q 85 600 54 517 q 166 738 116 683 q 282 832 216 793 q 543 905 406 905 q 791 844 680 905 q 970 676 903 783 q 1037 445 1037 570 q 913 125 1037 191 q 823 104 874 104 q 712 154 749 104 q 674 276 674 204 q 667 263 673 276 q 647 236 660 250 q 616 205 635 221 q 513 169 572 169 q 418 184 454 169 q 361 222 382 199 q 328 275 341 245 q 306 391 306 326 q 342 522 306 455 q 438 628 379 588 q 560 668 498 668 q 674 625 623 668 l 688 677 l 763 677 l 763 254 q 788 200 763 220 q 842 180 814 180 q 894 205 871 180 q 930 269 917 229 q 958 451 958 349 q 904 642 958 552 q 759 784 850 732 q 557 836 667 836 q 332 778 441 836 q 151 543 195 705 q 135 406 135 481 q 165 259 135 332 q 248 129 195 186 q 382 37 301 72 q 559 2 464 2 q 650 13 609 2 q 707 35 691 24 l 724 47 l 764 -14 q 744 -31 764 -17 q 677 -60 724 -44 q 550 -75 631 -75 q 381 -46 470 -75 q 232 32 292 -17 q 132 145 173 81 m 560 587 q 529 587 560 587 q 446 528 497 587 q 395 399 395 469 q 428 288 395 330 q 513 245 461 245 q 674 342 591 245 l 674 549 q 560 587 623 587 z "},"A":{"ha":766,"x_min":17,"x_max":749,"o":"m 17 0 l 310 1027 l 456 1027 l 749 0 l 645 0 l 557 324 l 212 324 l 121 0 l 17 0 m 235 408 l 533 408 l 383 942 l 235 408 z "},"B":{"ha":768,"x_min":92,"x_max":722,"o":"m 92 0 l 92 1027 l 412 1027 q 617 957 536 1027 q 698 781 698 886 q 577 560 698 608 q 525 543 556 551 q 692 409 636 514 q 722 278 722 351 q 642 76 722 151 q 412 0 563 0 l 92 0 m 192 84 l 412 84 q 574 130 523 84 q 611 188 595 150 q 627 278 627 226 q 568 433 627 374 q 412 492 509 492 l 192 492 l 192 84 m 192 578 l 412 578 q 556 627 507 578 q 592 686 576 646 q 607 781 607 726 q 557 902 607 861 q 412 943 507 943 l 192 943 l 192 578 z "},"C":{"ha":796,"x_min":54,"x_max":750,"o":"m 79 301 q 72 328 79 301 q 60 407 66 354 q 54 526 54 460 q 66 665 54 592 q 106 807 78 738 q 175 926 134 876 q 279 1008 216 977 q 407 1039 342 1039 q 518 1022 472 1039 q 595 979 564 1006 q 652 921 626 953 q 692 856 677 888 q 731 754 724 789 l 735 738 l 735 737 l 632 709 q 605 822 621 787 q 571 881 588 858 q 534 919 555 903 q 419 955 486 955 q 155 515 155 955 q 210 207 155 326 q 419 73 273 73 q 605 167 538 73 q 651 314 651 233 l 750 298 q 738 262 747 291 q 721 214 728 233 q 699 164 714 196 q 668 112 684 133 q 628 65 653 91 q 574 25 602 40 q 433 -11 505 -11 q 312 5 361 -11 q 227 50 263 22 q 160 118 190 78 q 111 203 131 157 q 79 301 92 249 z "},"D":{"ha":823,"x_min":92,"x_max":777,"o":"m 92 0 l 92 1027 l 336 1027 q 753 725 677 1027 q 777 526 777 627 q 763 352 777 424 q 716 215 749 280 q 633 102 683 149 q 336 0 524 0 l 92 0 m 192 84 l 336 84 q 637 273 558 84 q 677 505 677 368 q 583 852 677 749 q 484 918 547 892 q 336 943 421 943 l 192 943 l 192 84 z "},"E":{"ha":720,"x_min":92,"x_max":674,"o":"m 92 0 l 92 1027 l 648 1027 l 648 943 l 192 943 l 192 582 l 519 582 l 519 498 l 192 498 l 192 90 l 674 90 l 674 0 l 92 0 z "},"F":{"ha":694,"x_min":92,"x_max":648,"o":"m 92 0 l 92 1027 l 648 1027 l 648 943 l 192 943 l 192 582 l 519 582 l 519 498 l 192 498 l 192 0 l 92 0 z "},"G":{"ha":845,"x_min":54,"x_max":758,"o":"m 108 224 q 94 259 108 224 q 67 368 79 294 q 54 513 54 441 q 64 646 54 585 q 92 766 73 708 q 143 874 111 825 q 214 960 174 923 q 431 1039 301 1039 q 611 981 527 1039 q 754 745 709 914 l 656 721 q 654 734 655 726 q 647 767 653 743 q 631 813 640 791 q 605 862 623 836 q 564 909 587 889 q 434 955 513 955 q 300 918 355 955 q 214 818 244 882 q 155 521 155 696 q 209 209 155 312 q 433 73 280 73 q 654 293 624 73 q 660 401 660 340 l 431 401 l 431 485 l 758 485 l 758 0 l 677 0 l 677 130 q 515 0 600 24 q 414 -11 477 -11 q 287 20 352 -11 q 180 103 222 52 q 108 224 137 155 z "},"H":{"ha":850,"x_min":92,"x_max":759,"o":"m 92 0 l 92 1027 l 192 1027 l 192 582 l 659 582 l 659 1027 l 759 1027 l 759 0 l 659 0 l 659 498 l 192 498 l 192 0 l 92 0 z "},"I":{"ha":283,"x_min":92,"x_max":192,"o":"m 92 0 l 92 1027 l 192 1027 l 192 0 l 92 0 z "},"J":{"ha":608,"x_min":17,"x_max":516,"o":"m 17 165 l 87 201 q 146 118 103 158 q 196 87 165 101 q 262 73 227 73 q 380 130 345 73 q 416 291 416 186 l 416 1027 l 516 1027 l 516 291 q 369 8 516 70 q 265 -11 322 -11 q 163 7 208 -11 q 94 48 119 25 q 50 100 68 71 q 17 165 22 141 z "},"K":{"ha":773,"x_min":92,"x_max":756,"o":"m 92 0 l 92 1027 l 193 1027 l 193 469 l 611 1027 l 719 1027 l 425 642 l 756 0 l 644 0 l 361 557 l 193 336 l 193 0 l 92 0 z "},"L":{"ha":665,"x_min":92,"x_max":648,"o":"m 92 0 l 92 1027 l 192 1027 l 192 96 l 648 96 l 648 0 l 92 0 z "},"M":{"ha":988,"x_min":87,"x_max":897,"o":"m 87 0 l 87 1027 l 269 1027 l 488 239 l 495 239 l 715 1027 l 897 1027 l 897 0 l 796 0 l 796 932 l 789 932 l 530 0 l 453 0 l 194 932 l 187 932 l 187 0 l 87 0 z "},"N":{"ha":848,"x_min":87,"x_max":762,"o":"m 87 0 l 87 1027 l 247 1027 l 661 245 l 661 1027 l 762 1027 l 762 0 l 675 0 l 187 928 l 187 0 l 87 0 z "},"O":{"ha":857,"x_min":54,"x_max":802,"o":"m 114 218 q 98 252 114 218 q 68 359 83 286 q 54 511 54 433 q 67 663 54 589 q 109 806 80 736 q 181 926 138 875 q 290 1008 224 977 q 433 1039 355 1039 q 574 1007 511 1039 q 679 924 637 976 q 749 803 720 872 q 802 510 802 673 q 648 68 802 212 q 435 -11 565 -11 q 296 19 359 -11 q 188 100 232 50 q 114 218 144 151 m 193 766 q 183 738 193 766 q 163 645 172 709 q 155 501 155 582 q 171 344 155 420 q 219 206 186 268 q 306 109 251 144 q 428 73 361 73 q 543 100 495 73 q 620 170 591 127 q 668 271 649 212 q 702 510 702 376 q 620 856 702 733 q 543 927 591 900 q 435 955 496 955 q 325 930 374 955 q 245 865 277 906 q 193 766 214 824 z "},"P":{"ha":770,"x_min":92,"x_max":724,"o":"m 92 0 l 92 1027 l 450 1027 q 685 901 610 1027 q 724 769 724 835 q 709 653 724 703 q 664 562 694 604 q 578 494 633 519 q 450 469 523 469 l 192 469 l 192 0 l 92 0 m 192 553 l 382 553 q 558 602 492 553 q 624 749 624 650 q 557 896 624 848 q 382 943 491 943 l 192 943 l 192 553 z "},"Q":{"ha":857,"x_min":54,"x_max":802,"o":"m 139 175 q 119 211 139 175 q 76 334 98 248 q 54 504 54 420 q 67 663 54 589 q 109 806 80 736 q 181 926 138 875 q 290 1008 224 977 q 433 1039 355 1039 q 574 1007 511 1039 q 679 924 637 976 q 749 803 720 872 q 802 510 802 673 q 730 183 802 329 q 633 60 694 111 q 495 -6 573 9 q 517 -85 495 -68 q 580 -100 535 -100 l 759 -100 l 759 -184 l 671 -184 q 493 -175 526 -184 q 444 -156 460 -165 q 419 -134 427 -146 q 404 -103 411 -122 q 395 -8 395 -74 q 247 53 313 3 q 139 175 180 102 m 193 766 q 183 738 193 766 q 163 645 172 709 q 155 501 155 582 q 171 344 155 420 q 219 206 186 268 q 306 109 251 144 q 428 73 361 73 q 543 100 495 73 q 620 170 591 127 q 668 271 649 212 q 702 510 702 376 q 620 856 702 733 q 543 927 591 900 q 435 955 496 955 q 325 930 374 955 q 245 865 277 906 q 193 766 214 824 z "},"R":{"ha":741,"x_min":92,"x_max":724,"o":"m 92 0 l 92 1027 l 437 1027 q 680 901 600 1027 q 724 758 724 833 q 681 591 724 667 q 526 486 633 509 l 720 0 l 610 0 l 423 469 l 192 469 l 192 0 l 92 0 m 192 553 l 447 553 q 568 598 518 553 q 624 753 624 648 q 473 932 624 892 q 376 943 429 943 l 192 943 l 192 553 z "},"S":{"ha":701,"x_min":27,"x_max":670,"o":"m 27 250 l 120 282 q 123 271 121 282 q 132 241 125 259 q 149 200 138 222 q 180 155 160 178 q 227 115 200 133 q 380 73 285 73 q 523 125 476 73 q 570 254 570 178 q 540 374 570 330 q 437 448 511 418 q 380 469 415 457 l 315 492 q 90 634 148 547 q 50 775 50 694 q 126 954 50 871 q 218 1015 162 991 q 335 1039 273 1039 q 443 1022 396 1039 q 519 981 490 1006 q 571 925 548 957 q 604 868 594 893 l 624 818 q 635 790 633 794 l 547 756 q 540 778 545 760 q 531 807 535 795 q 518 839 528 819 q 499 873 509 859 q 474 904 490 887 q 439 930 458 920 q 338 955 395 955 q 203 906 255 955 q 151 775 151 857 q 197 650 151 686 q 239 622 222 631 q 280 605 256 613 q 314 592 303 596 q 357 578 325 587 l 414 560 q 630 417 571 512 q 670 261 670 353 q 628 122 670 195 q 469 0 576 30 q 376 -11 429 -11 q 271 3 323 -11 q 185 41 220 18 q 122 92 150 64 q 77 147 94 119 q 33 235 45 198 l 27 250 z "},"T":{"ha":720,"x_min":17,"x_max":703,"o":"m 17 943 l 17 1027 l 703 1027 l 703 943 l 410 943 l 410 0 l 310 0 l 310 943 l 17 943 z "},"U":{"ha":823,"x_min":92,"x_max":736,"o":"m 92 309 l 92 1027 l 192 1027 l 192 309 q 237 153 192 216 q 413 73 293 73 q 625 235 592 73 q 633 309 633 272 l 633 1027 l 736 1027 l 736 309 q 675 110 736 197 q 413 -11 594 -11 q 122 161 197 -11 q 92 309 92 233 z "},"V":{"ha":749,"x_min":17,"x_max":732,"o":"m 17 1027 l 121 1027 l 374 176 l 627 1027 l 732 1027 l 427 0 l 322 0 l 17 1027 z "},"W":{"ha":1095,"x_min":17,"x_max":1078,"o":"m 17 1027 l 121 1027 l 297 215 l 304 215 l 490 1027 l 605 1027 l 791 215 l 798 215 l 973 1027 l 1078 1027 l 840 0 l 736 0 l 551 812 l 544 812 l 358 0 l 255 0 l 17 1027 z "},"X":{"ha":734,"x_min":17,"x_max":718,"o":"m 17 0 l 313 524 l 29 1027 l 134 1027 l 377 597 l 613 1027 l 718 1027 l 427 509 l 715 0 l 610 0 l 366 431 l 123 0 l 17 0 z "},"Y":{"ha":761,"x_min":17,"x_max":744,"o":"m 17 1027 l 121 1027 l 380 544 l 640 1027 l 744 1027 l 431 448 l 431 0 l 330 0 l 330 448 l 17 1027 z "},"Z":{"ha":774,"x_min":46,"x_max":728,"o":"m 46 0 l 46 73 l 606 941 l 83 941 l 83 1027 l 728 1027 l 728 944 l 190 96 l 724 96 l 724 0 l 46 0 z "},"[":{"ha":412,"x_min":68,"x_max":364,"o":"m 68 -193 l 68 1111 l 364 1111 l 364 1048 l 168 1048 l 168 -131 l 364 -131 l 364 -193 l 68 -193 z "},"\\":{"ha":680,"x_min":55,"x_max":633,"o":"m 55 1036 l 128 1071 l 633 -8 l 559 -43 l 55 1036 z "},"]":{"ha":412,"x_min":68,"x_max":364,"o":"m 68 -131 l 264 -131 l 264 1048 l 68 1048 l 68 1111 l 364 1111 l 364 -193 l 68 -193 l 68 -131 z "},"^":{"ha":423,"x_min":61,"x_max":362,"o":"m 61 812 l 212 962 l 362 812 l 317 768 l 212 874 l 105 768 l 61 812 z "},"_":{"ha":754,"x_min":62,"x_max":692,"o":"m 62 0 l 62 76 l 692 76 l 692 0 l 62 0 z "},"`":{"ha":463,"x_min":121,"x_max":380,"o":"m 121 928 l 180 987 l 380 787 l 336 743 l 121 928 z "},"a":{"ha":629,"x_min":49,"x_max":572,"o":"m 49 175 q 49 199 49 175 q 61 259 49 223 q 99 324 73 296 q 159 374 125 352 q 241 413 192 395 q 462 471 332 445 q 420 614 462 578 q 314 646 384 646 q 167 581 229 646 q 130 533 140 554 l 66 576 q 324 722 142 722 q 533 596 488 722 q 551 473 551 545 l 551 100 q 559 47 551 81 q 572 0 566 13 l 482 0 q 462 114 462 10 q 251 -9 366 -9 q 74 81 123 -9 q 49 175 49 126 m 155 252 q 138 171 138 221 q 174 94 138 121 q 252 67 209 67 q 328 80 295 67 q 388 113 361 93 q 462 180 437 151 l 462 395 q 309 354 333 361 q 155 252 190 315 z "},"b":{"ha":674,"x_min":64,"x_max":623,"o":"m 171 113 q 154 0 171 8 l 64 0 q 81 99 81 37 l 81 1027 l 171 1027 l 171 622 q 238 686 184 650 q 355 723 292 723 q 550 618 477 723 q 623 346 623 513 q 586 157 623 246 q 463 15 543 56 q 371 -7 418 -7 q 290 6 324 -7 q 231 41 255 20 q 171 113 191 78 m 171 189 q 292 77 239 94 q 357 68 317 68 q 434 90 397 68 q 491 149 470 111 q 534 346 534 226 q 332 647 534 647 q 171 545 243 647 l 171 189 z "},"c":{"ha":628,"x_min":51,"x_max":573,"o":"m 51 353 q 339 723 51 723 q 459 689 410 723 q 523 628 507 655 q 560 551 550 582 l 488 519 q 474 559 487 532 q 446 602 460 585 q 402 633 431 619 q 339 647 374 647 q 140 359 140 647 q 193 144 140 219 q 339 68 245 68 q 446 118 404 68 q 496 194 484 161 l 503 209 l 573 175 q 495 56 549 109 q 429 12 471 32 q 339 -7 387 -7 q 121 87 191 -7 q 51 353 51 182 z "},"d":{"ha":667,"x_min":51,"x_max":610,"o":"m 503 113 q 311 -7 434 -7 q 198 23 249 -7 q 116 105 147 54 q 51 346 51 212 q 83 531 51 446 q 178 670 115 616 q 311 723 240 723 q 436 686 382 723 q 503 622 490 650 l 503 1027 l 593 1027 l 593 99 q 598 46 593 79 q 610 0 604 13 l 520 0 q 503 113 503 8 m 140 346 q 183 149 140 226 q 325 68 228 68 q 431 105 389 68 q 503 189 464 134 l 503 545 q 342 647 431 647 q 140 346 140 647 z "},"e":{"ha":627,"x_min":51,"x_max":572,"o":"m 119 100 q 102 125 119 100 q 68 211 85 150 q 51 339 51 272 q 60 461 51 406 q 85 555 70 517 q 123 624 101 594 q 170 673 146 654 q 221 703 193 691 q 313 723 269 723 q 387 715 356 723 q 452 683 417 707 q 512 620 487 659 q 570 348 570 528 l 140 348 q 232 101 140 167 q 333 68 277 68 q 511 198 437 68 l 572 155 q 503 67 546 106 q 342 -7 422 -7 q 208 22 263 -7 q 119 100 152 51 m 144 424 l 481 424 q 434 591 481 525 q 322 647 395 647 q 163 537 203 647 q 144 424 144 486 z "},"f":{"ha":387,"x_min":9,"x_max":378,"o":"m 378 1027 l 378 952 l 317 952 q 216 867 216 952 l 216 715 l 378 715 l 378 640 l 216 640 l 216 0 l 126 0 l 126 640 l 9 640 l 9 715 l 126 715 l 126 867 q 222 1016 126 977 q 319 1034 267 1034 q 378 1027 372 1034 z "},"g":{"ha":682,"x_min":28,"x_max":660,"o":"m 129 -260 q 56 -202 83 -239 q 28 -127 28 -164 q 39 -71 28 -91 q 70 -34 49 -50 q 105 -8 90 -18 q 147 15 121 2 q 179 32 174 28 q 95 73 123 43 q 66 126 66 102 q 76 170 66 150 q 103 206 85 189 q 153 245 133 233 q 174 258 172 257 q 103 349 134 293 q 72 472 72 405 q 109 597 72 538 q 208 690 146 656 q 328 723 270 723 q 422 709 387 723 q 498 667 458 694 q 583 715 550 709 q 660 724 625 724 l 660 643 l 659 643 q 543 622 543 643 q 586 528 577 558 q 594 467 594 498 q 524 282 594 358 q 342 207 454 207 q 221 233 283 207 q 197 214 216 228 q 156 157 156 186 q 184 115 156 126 q 238 101 206 106 q 284 95 271 96 q 328 92 297 93 q 509 66 404 92 q 616 4 574 51 q 658 -108 658 -43 q 333 -302 658 -302 q 129 -260 218 -302 m 118 -115 q 190 -205 118 -181 q 306 -226 252 -226 q 377 -225 359 -226 q 422 -223 395 -225 q 468 -216 450 -220 q 507 -203 486 -212 q 540 -182 528 -194 q 568 -113 568 -153 q 541 -48 568 -72 q 472 -14 514 -24 q 390 1 431 -3 q 312 7 349 5 q 268 11 275 9 q 174 -29 195 -16 q 118 -115 118 -62 m 212 597 q 187 572 212 597 q 161 467 161 547 q 209 335 161 388 q 338 283 256 283 q 462 336 420 283 q 505 467 505 390 q 463 595 505 543 q 342 647 421 647 q 212 597 262 647 z "},"h":{"ha":664,"x_min":87,"x_max":589,"o":"m 87 0 l 87 1027 l 177 1027 l 177 598 q 342 713 277 694 q 411 723 375 723 q 539 675 489 723 q 589 533 589 628 l 589 0 l 500 0 l 500 533 q 464 615 500 584 q 385 647 427 647 q 177 530 285 647 l 177 0 l 87 0 z "},"i":{"ha":283,"x_min":81,"x_max":183,"o":"m 81 806 l 81 907 l 183 907 l 183 806 l 81 806 m 87 0 l 87 715 l 177 715 l 177 0 l 87 0 z "},"j":{"ha":245,"x_min":-43,"x_max":177,"o":"m 75 806 l 75 907 l 177 907 l 177 806 l 75 806 m -43 -153 q 52 -130 23 -153 q 81 -20 81 -106 l 81 715 l 171 715 l 171 0 q 142 -161 171 -116 q 123 -190 132 -178 q 97 -209 114 -201 q 70 -220 81 -216 q 38 -226 59 -224 q -13 -229 9 -229 l -37 -229 l -43 -153 z "},"k":{"ha":618,"x_min":88,"x_max":601,"o":"m 88 0 l 88 1027 l 178 1027 l 178 361 l 452 715 l 559 715 l 372 472 l 601 0 l 502 0 l 311 395 l 178 230 l 178 0 l 88 0 z "},"l":{"ha":283,"x_min":87,"x_max":177,"o":"m 87 -1 l 87 1027 l 177 1027 l 177 -1 l 87 -1 z "},"m":{"ha":1069,"x_min":81,"x_max":995,"o":"m 81 0 l 81 715 l 171 715 l 171 597 q 336 713 264 691 q 419 723 369 723 q 516 690 469 723 q 577 592 562 658 q 746 712 675 690 q 817 723 779 723 q 945 675 895 723 q 995 533 995 628 l 995 0 l 905 0 l 905 533 q 869 615 905 584 q 791 647 833 647 q 583 530 691 647 l 583 0 l 494 0 l 494 533 q 457 615 494 584 q 379 647 421 647 q 171 530 279 647 l 171 0 l 81 0 z "},"n":{"ha":658,"x_min":81,"x_max":583,"o":"m 81 0 l 81 715 l 171 715 l 171 598 q 284 690 231 657 q 410 723 338 723 q 533 675 483 723 q 583 533 583 628 l 583 0 l 494 0 l 494 533 q 457 615 494 584 q 379 647 421 647 q 171 530 279 647 l 171 0 l 81 0 z "},"o":{"ha":659,"x_min":51,"x_max":608,"o":"m 51 362 q 51 444 51 362 q 124 625 51 526 q 330 723 198 723 q 535 624 463 723 q 608 359 608 525 q 535 93 608 194 q 330 -8 461 -8 q 123 96 197 -8 q 51 362 51 199 m 140 358 q 252 85 140 143 q 330 68 286 68 q 409 85 374 68 q 463 131 443 103 q 496 198 484 159 q 519 357 519 267 q 330 647 519 647 q 140 358 140 647 z "},"p":{"ha":688,"x_min":87,"x_max":637,"o":"m 87 -278 l 87 715 l 177 715 l 177 604 q 231 665 193 635 q 378 723 301 723 q 595 567 520 723 q 637 371 637 477 q 546 73 637 184 q 369 -7 479 -7 q 248 30 307 -7 q 177 95 190 68 l 177 -278 l 87 -278 m 177 172 q 253 98 208 127 q 338 68 298 68 q 406 76 378 68 q 460 105 433 84 q 506 159 487 125 q 548 371 548 232 q 469 610 548 541 q 363 647 427 647 q 214 575 278 647 q 177 528 198 557 l 177 172 z "},"q":{"ha":675,"x_min":51,"x_max":601,"o":"m 91 159 q 80 184 91 159 q 60 261 70 208 q 51 368 51 315 q 61 472 51 422 q 94 567 72 522 q 145 647 115 612 q 311 723 212 723 q 487 637 408 723 q 511 604 503 619 l 523 715 l 601 715 l 601 -278 l 511 -278 l 511 95 q 440 30 498 68 q 323 -7 382 -7 q 219 14 264 -7 q 142 73 173 36 q 91 159 112 110 m 219 610 q 198 591 219 610 q 158 512 176 572 q 140 376 140 452 q 152 246 140 300 q 182 159 163 192 q 228 104 201 125 q 333 68 275 68 q 511 172 439 68 l 511 528 q 441 606 471 584 q 325 647 389 647 q 219 610 261 647 z "},"r":{"ha":433,"x_min":81,"x_max":416,"o":"m 81 0 q 81 715 81 0 l 171 715 l 171 523 q 220 620 203 593 q 392 723 286 723 q 416 722 400 723 l 416 646 q 340 628 370 640 q 280 593 309 617 q 171 425 229 551 l 171 0 l 81 0 z "},"s":{"ha":595,"x_min":54,"x_max":541,"o":"m 54 136 l 121 179 q 201 96 157 123 q 309 68 245 68 q 417 104 376 68 q 452 178 452 134 q 437 247 452 221 q 395 289 422 273 q 300 327 349 315 q 223 348 251 338 q 165 375 195 358 q 113 413 135 392 q 64 540 64 461 q 127 671 64 619 q 289 723 191 723 q 485 640 405 723 q 510 609 500 624 l 448 563 q 429 583 444 568 q 411 602 415 598 l 393 616 q 373 631 381 627 l 350 639 q 277 647 328 647 q 188 617 225 647 q 151 553 151 588 q 163 496 151 517 q 199 459 175 475 q 290 419 239 435 q 358 398 342 404 q 403 381 375 393 q 447 360 431 370 q 484 333 463 350 q 515 298 504 317 q 541 198 541 252 q 473 50 541 108 q 314 -7 404 -7 q 162 27 224 -7 q 54 136 101 61 z "},"t":{"ha":411,"x_min":24,"x_max":399,"o":"m 24 640 l 24 715 l 145 715 l 145 977 l 235 977 l 235 715 l 399 715 l 399 640 l 235 640 l 235 186 q 256 92 235 117 q 325 67 277 67 q 372 71 345 67 q 399 75 399 74 l 399 7 q 312 -9 354 -9 q 254 -7 269 -9 q 216 6 238 -5 q 179 37 193 17 q 145 186 145 84 l 145 640 l 24 640 z "},"u":{"ha":664,"x_min":87,"x_max":589,"o":"m 87 182 l 87 715 l 177 715 l 177 182 q 213 100 177 132 q 292 68 250 68 q 500 186 392 68 l 500 715 l 589 715 l 589 0 l 500 0 l 500 118 q 335 3 404 24 q 266 -7 302 -7 q 138 40 188 -7 q 87 182 87 87 z "},"v":{"ha":611,"x_min":17,"x_max":594,"o":"m 17 715 l 111 715 l 299 99 l 312 99 l 500 715 l 594 715 l 374 0 l 237 0 l 17 715 z "},"w":{"ha":892,"x_min":17,"x_max":876,"o":"m 17 715 l 100 715 l 258 176 l 399 715 l 480 715 l 633 173 l 784 715 l 876 715 l 671 0 l 591 0 l 439 549 l 303 0 l 212 0 l 17 715 z "},"x":{"ha":590,"x_min":17,"x_max":573,"o":"m 17 0 l 241 369 l 24 715 l 124 715 l 290 451 l 464 715 l 564 715 l 339 373 l 573 0 l 473 0 l 292 288 l 117 0 l 17 0 z "},"y":{"ha":614,"x_min":17,"x_max":597,"o":"m 186 -256 q 165 -261 186 -256 q 102 -267 144 -267 q 18 -261 59 -267 l 25 -179 q 90 -191 50 -191 q 157 -180 131 -191 q 201 -153 184 -170 q 232 -116 218 -136 q 254 -76 245 -96 q 274 -2 268 -38 l 17 715 l 113 715 l 316 133 l 506 715 l 597 715 l 347 -43 q 270 -201 309 -159 q 186 -256 227 -245 z "},"z":{"ha":528,"x_min":17,"x_max":511,"o":"m 17 0 l 17 58 l 397 640 l 53 640 l 53 715 l 511 715 l 511 665 l 126 81 l 511 81 l 511 0 l 17 0 z "},"{":{"ha":524,"x_min":54,"x_max":403,"o":"m 54 416 l 54 499 q 185 665 185 499 q 175 715 185 690 q 144 859 144 790 q 206 1044 144 977 q 403 1111 268 1111 l 403 1040 q 322 1023 358 1040 q 264 979 286 1006 q 222 870 222 925 q 242 786 222 856 q 262 645 262 717 q 234 527 262 574 q 140 458 205 481 q 234 388 205 435 q 262 270 262 342 q 242 129 262 199 q 222 39 222 60 q 233 -9 222 19 q 265 -64 244 -38 q 322 -107 286 -90 q 403 -124 358 -124 l 403 -195 q 206 -129 268 -195 q 144 57 144 -62 q 175 201 144 125 q 185 250 185 226 q 54 416 185 416 z "},"|":{"ha":236,"x_min":68,"x_max":168,"o":"m 68 -90 l 68 1060 l 168 1060 l 168 -90 l 68 -90 z "},"}":{"ha":524,"x_min":54,"x_max":403,"o":"m 54 -124 q 135 -107 99 -124 q 193 -64 172 -90 q 235 45 235 -9 q 215 129 235 60 q 195 270 195 199 q 223 388 195 342 q 317 458 252 435 q 223 527 252 481 q 195 645 195 574 q 215 786 195 717 q 235 876 235 856 q 224 925 235 897 q 192 980 213 954 q 135 1023 172 1006 q 54 1040 99 1040 l 54 1111 q 251 1044 189 1111 q 313 859 313 977 q 282 715 313 790 q 272 665 272 690 q 403 499 272 499 l 403 416 q 272 250 272 416 q 282 201 272 226 q 313 57 313 125 q 251 -129 313 -62 q 54 -195 189 -195 l 54 -124 z "},"~":{"ha":535,"x_min":61,"x_max":474,"o":"m 474 860 q 424 783 457 811 q 354 754 391 754 q 289 770 317 754 q 236 801 260 785 q 188 816 211 816 l 181 816 q 142 798 159 814 q 117 759 125 783 l 61 786 q 109 861 78 835 q 178 892 144 892 q 236 882 212 892 q 274 861 259 873 q 347 830 313 830 l 354 830 q 393 848 376 832 q 418 887 410 863 l 474 860 z "}," ":{"ha":347,"x_min":0,"x_max":0,"o":""},"¡":{"ha":227,"x_min":62,"x_max":164,"o":"m 62 -114 l 78 663 l 149 663 l 164 -114 l 62 -114 m 62 765 l 62 867 l 164 867 l 164 765 l 62 765 z "},"¢":{"ha":658,"x_min":75,"x_max":597,"o":"m 305 -3 q 75 359 75 34 q 305 719 75 684 l 305 869 l 395 869 l 395 721 q 472 696 437 715 q 526 653 507 677 q 579 567 567 604 l 584 551 l 512 519 q 445 623 501 584 q 395 644 422 638 l 395 73 q 526 209 481 95 l 597 175 q 571 123 591 157 q 529 67 550 90 q 471 22 507 44 q 395 -5 435 1 l 395 -160 l 305 -160 l 305 -3 m 164 359 q 201 171 164 243 q 305 77 238 98 l 305 640 q 164 359 164 604 z "},"£":{"ha":695,"x_min":28,"x_max":678,"o":"m 678 90 q 415 0 637 0 l 98 0 l 98 94 q 114 198 107 117 q 120 344 120 280 l 120 429 l 28 429 l 28 521 l 120 521 l 120 596 q 174 907 120 816 q 311 1019 224 993 q 403 1034 361 1034 q 509 1027 507 1034 l 509 951 l 439 953 q 327 933 370 953 q 259 869 283 914 q 224 760 234 824 q 215 596 215 696 l 215 521 l 435 521 l 435 429 l 215 429 l 215 344 q 209 195 215 278 q 193 94 203 113 l 415 94 q 618 138 573 94 q 625 150 623 144 l 678 90 z "},"¤":{"ha":524,"x_min":51,"x_max":473,"o":"m 51 338 l 119 406 q 88 505 88 449 q 118 605 88 560 l 51 672 l 95 716 l 161 650 q 262 682 205 682 q 361 649 319 682 l 429 716 l 473 672 l 405 604 q 435 505 435 559 q 405 406 435 451 l 473 338 l 429 294 l 362 360 q 262 328 317 328 q 161 360 207 328 l 95 294 l 51 338 m 186 582 q 171 565 186 582 q 156 505 156 549 q 186 429 156 461 q 261 396 216 396 q 336 429 306 396 q 366 505 366 462 q 336 581 366 549 q 261 614 306 614 q 186 582 217 614 z "},"¥":{"ha":761,"x_min":17,"x_max":744,"o":"m 17 1027 l 121 1027 l 380 544 l 640 1027 l 744 1027 l 431 448 l 593 448 l 593 385 l 431 385 l 431 267 l 593 267 l 593 205 l 431 205 l 431 0 l 330 0 l 330 205 l 175 205 l 175 267 l 330 267 l 330 385 l 175 385 l 175 448 l 330 448 l 17 1027 z "},"¦":{"ha":236,"x_min":68,"x_max":168,"o":"m 68 -90 l 68 438 l 168 438 l 168 -90 l 68 -90 m 68 528 l 68 1060 l 168 1060 l 168 528 l 68 528 z "},"§":{"ha":595,"x_min":54,"x_max":541,"o":"m 54 136 l 121 179 q 201 96 157 123 q 309 68 245 68 q 417 104 376 68 q 452 178 452 134 q 437 247 452 221 q 395 289 422 273 q 300 327 349 315 q 223 348 251 338 q 165 375 195 358 q 113 413 135 392 q 64 526 64 461 q 94 635 64 590 q 64 731 64 678 q 127 870 64 819 q 289 922 191 922 q 485 839 405 922 q 510 808 500 823 l 448 762 q 429 782 444 767 q 411 802 415 798 l 393 816 q 373 830 381 827 l 350 838 q 277 846 328 846 q 188 817 225 846 q 151 752 151 787 q 163 695 151 717 q 199 659 175 674 q 290 618 239 634 q 358 597 342 603 q 403 581 375 592 q 447 559 431 570 q 484 533 463 549 q 515 498 504 516 q 541 398 541 452 q 514 298 541 344 q 541 198 541 256 q 473 50 541 108 q 314 -7 404 -7 q 162 27 224 -7 q 54 136 101 61 m 157 579 q 151 540 151 562 q 163 496 151 517 q 199 459 175 475 q 323 409 239 435 q 449 359 407 384 q 452 398 452 375 q 437 446 452 420 q 395 488 422 472 q 279 531 349 514 q 157 579 208 548 z "},"¨":{"ha":443,"x_min":62,"x_max":380,"o":"m 62 816 l 62 918 l 164 918 l 164 816 l 62 816 m 279 816 l 279 918 l 380 918 l 380 816 l 279 816 z "},"©":{"ha":739,"x_min":51,"x_max":688,"o":"m 144 279 q 98 326 144 279 q 51 505 51 373 q 144 730 51 636 q 370 823 238 823 q 595 730 501 823 q 688 505 688 636 q 595 279 688 373 q 370 186 501 186 q 144 279 238 186 m 176 698 q 135 658 176 698 q 95 505 95 618 q 176 311 95 391 q 370 231 256 231 q 563 311 483 231 q 644 505 644 391 q 563 698 644 618 q 370 779 483 779 q 176 698 256 779 m 292 337 q 276 352 292 337 q 247 410 260 368 q 233 496 233 453 q 241 572 233 538 q 266 635 250 606 q 371 697 302 697 q 475 623 436 697 q 490 583 484 606 l 446 574 q 422 629 434 618 q 373 649 399 649 q 331 641 348 649 q 304 619 314 632 q 290 585 295 606 q 281 511 281 554 q 286 444 281 469 q 299 397 290 418 q 371 355 318 355 q 451 430 438 355 l 496 425 q 474 372 494 406 q 371 307 435 307 q 292 337 324 307 z "},"ª":{"ha":358,"x_min":68,"x_max":297,"o":"m 243 764 q 156 711 203 711 q 88 739 109 711 q 68 798 68 766 q 110 878 68 852 q 243 922 152 903 q 231 974 243 958 q 189 989 218 989 q 141 979 159 989 q 105 946 115 966 l 75 966 q 185 1028 108 1028 q 288 922 288 1028 l 288 764 q 297 715 288 733 l 252 715 q 243 764 243 720 m 159 750 q 207 766 184 750 q 243 798 231 782 l 243 883 l 216 876 q 189 869 197 872 l 165 862 q 113 798 113 845 q 159 750 113 750 z "},"«":{"ha":512,"x_min":68,"x_max":444,"o":"m 68 865 l 218 1016 l 262 971 l 156 865 l 262 759 l 218 715 l 68 865 m 250 865 l 400 1016 l 444 971 l 338 865 l 444 759 l 400 715 l 250 865 z "},"¬":{"ha":754,"x_min":62,"x_max":692,"o":"m 62 471 l 62 547 l 692 547 l 692 248 l 616 248 l 616 471 l 62 471 z "},"­":{"ha":754,"x_min":62,"x_max":692,"o":"m 62 471 l 62 533 l 692 533 l 692 471 l 62 471 z "},"®":{"ha":741,"x_min":51,"x_max":690,"o":"m 51 505 q 144 726 51 634 q 370 818 238 818 q 596 727 504 818 q 664 627 639 685 q 690 494 690 569 q 647 346 690 418 q 530 233 604 274 q 370 191 456 191 q 211 233 284 191 q 94 348 137 275 q 51 505 51 420 m 177 694 q 137 654 177 694 q 97 505 97 615 q 178 315 97 394 q 371 237 258 237 q 563 315 483 237 q 644 505 644 393 q 564 694 644 616 q 370 772 484 772 q 177 694 257 772 m 261 339 l 261 673 l 405 673 q 473 643 449 673 q 498 579 498 612 q 483 518 498 547 q 434 484 467 490 l 497 339 l 446 339 l 385 476 l 309 476 l 309 339 l 261 339 m 309 519 l 392 519 q 450 579 450 519 q 429 620 450 609 q 370 630 408 630 l 309 630 l 309 519 z "},"¯":{"ha":479,"x_min":61,"x_max":418,"o":"m 61 835 l 61 897 l 418 897 l 418 835 l 61 835 z "},"°":{"ha":448,"x_min":51,"x_max":397,"o":"m 101 720 q 76 745 101 720 q 51 842 51 770 q 101 965 51 914 q 224 1015 152 1015 q 346 965 296 1015 q 397 842 397 914 q 346 720 397 770 q 224 669 296 669 q 101 720 152 669 m 148 918 q 132 902 148 918 q 116 842 116 886 q 148 767 116 798 q 223 735 179 735 q 299 767 267 735 q 330 842 330 798 q 299 918 330 886 q 223 949 267 949 q 148 918 179 949 z "},"±":{"ha":616,"x_min":51,"x_max":566,"o":"m 51 170 l 51 260 l 566 260 l 566 170 l 51 170 m 51 555 l 51 645 l 264 645 l 264 858 l 353 858 l 353 645 l 566 645 l 566 555 l 353 555 l 353 342 l 264 342 l 264 555 l 51 555 z "},"²":{"ha":346,"x_min":68,"x_max":278,"o":"m 68 715 q 109 812 68 771 q 149 846 130 832 l 182 870 q 222 905 216 895 q 233 943 233 925 q 180 990 233 990 q 138 974 154 990 q 121 937 121 957 l 77 937 q 107 1002 77 977 q 180 1027 137 1027 q 251 1003 224 1027 q 278 943 278 979 q 251 879 278 907 q 216 849 234 863 q 169 814 197 834 q 116 755 116 777 l 274 755 l 274 715 l 68 715 z "},"³":{"ha":348,"x_min":68,"x_max":280,"o":"m 181 1031 q 198 1031 181 1031 q 242 1006 214 1031 q 271 939 271 981 q 232 873 271 898 q 280 799 280 845 q 250 729 280 752 q 165 705 220 705 q 68 760 111 705 l 95 785 q 124 759 102 774 q 174 743 146 743 q 218 756 201 743 q 235 796 235 770 q 221 838 235 822 q 179 854 207 854 l 128 854 l 128 892 l 179 892 q 225 946 225 892 q 211 979 225 964 q 174 993 197 993 q 131 980 151 993 q 102 955 111 966 l 76 982 q 97 1004 88 996 q 127 1021 105 1012 q 181 1031 149 1031 z "},"´":{"ha":463,"x_min":83,"x_max":342,"o":"m 83 787 l 283 987 l 342 928 l 127 743 l 83 787 z "},"µ":{"ha":664,"x_min":87,"x_max":589,"o":"m 87 -279 l 87 715 l 177 715 l 177 182 q 213 100 177 132 q 292 68 250 68 q 500 186 392 68 l 500 715 l 589 715 l 589 0 l 500 0 l 500 118 q 335 3 404 24 q 260 -7 302 -7 q 180 10 218 -7 l 180 -279 l 87 -279 z "},"¶":{"ha":756,"x_min":46,"x_max":665,"o":"m 105 562 q 90 583 105 562 q 60 653 75 604 q 46 748 46 703 q 55 829 46 793 q 86 901 64 865 q 138 965 107 937 q 320 1027 206 1027 l 665 1027 l 665 0 l 564 0 l 564 469 l 416 469 l 416 0 l 316 0 l 316 469 q 189 494 243 469 q 105 562 135 519 m 316 937 q 192 877 237 924 q 146 749 146 831 q 192 621 146 668 q 316 559 237 573 l 316 937 m 416 553 l 564 553 l 564 943 l 416 943 l 416 553 z "},"·":{"ha":227,"x_min":62,"x_max":164,"o":"m 62 533 l 62 635 l 164 635 l 164 533 l 62 533 z "},"¸":{"ha":237,"x_min":15,"x_max":178,"o":"m 39 -212 l 15 -212 l 15 -148 q 95 -137 75 -148 q 115 -116 115 -126 q 62 0 115 -65 l 129 0 q 178 -134 178 -69 q 39 -212 178 -212 z "},"¹":{"ha":283,"x_min":68,"x_max":216,"o":"m 68 1004 l 134 1028 l 171 1028 l 171 755 l 216 755 l 216 715 l 76 715 l 76 755 l 125 755 l 125 985 l 77 970 l 68 1004 z "},"º":{"ha":372,"x_min":68,"x_max":304,"o":"m 186 717 q 159 717 186 717 q 99 760 131 717 q 68 874 68 804 q 99 986 68 944 q 186 1027 130 1027 q 274 985 243 1027 q 304 873 304 943 q 273 760 304 803 q 186 717 242 717 m 115 872 q 186 760 115 760 q 257 872 257 760 q 241 957 257 928 q 186 985 225 985 q 132 957 148 985 q 115 872 115 929 z "},"»":{"ha":512,"x_min":68,"x_max":444,"o":"m 68 759 l 174 865 l 68 971 l 112 1016 l 262 865 l 112 715 l 68 759 m 250 759 l 356 865 l 250 971 l 294 1016 l 444 865 l 294 715 l 250 759 z "},"¼":{"ha":772,"x_min":39,"x_max":738,"o":"m 363 125 l 363 178 l 585 515 l 660 515 l 660 179 l 738 179 l 738 125 l 660 125 l 660 -5 l 595 -5 l 595 125 l 363 125 m 429 179 l 595 179 l 595 436 l 429 179 m 39 990 l 149 1029 l 199 1029 l 199 566 l 274 566 l 274 512 l 53 512 l 53 566 l 136 566 l 136 970 l 55 947 l 39 990 m 100 -28 l 605 1052 l 678 1052 l 174 -28 l 100 -28 z "},"½":{"ha":802,"x_min":39,"x_max":751,"o":"m 39 990 l 149 1029 l 199 1029 l 199 566 l 274 566 l 274 512 l 53 512 l 53 566 l 136 566 l 136 970 l 55 947 l 39 990 m 412 -9 q 448 117 412 68 q 575 235 490 172 l 631 275 q 669 313 662 299 q 687 373 687 344 q 593 466 687 466 q 515 434 540 466 q 490 363 490 401 l 426 363 q 479 473 426 428 q 596 517 532 517 q 706 475 660 517 q 751 373 751 433 q 675 240 751 299 l 610 191 q 590 174 608 189 l 541 134 q 517 110 525 119 l 500 88 q 481 45 481 65 l 744 45 l 744 -9 l 412 -9 m 82 -26 l 587 1054 l 660 1054 l 156 -26 l 82 -26 z "},"¾":{"ha":823,"x_min":37,"x_max":789,"o":"m 414 125 l 414 178 l 636 515 l 711 515 l 711 179 l 789 179 l 789 125 l 711 125 l 711 -5 l 646 -5 l 646 125 l 414 125 m 479 179 l 646 179 l 646 436 l 479 179 m 37 598 l 75 631 q 125 589 85 614 q 210 564 165 564 q 287 590 256 564 q 317 659 317 616 q 291 731 317 701 q 225 760 265 760 l 139 760 l 139 815 l 225 815 q 282 842 263 815 q 301 905 301 869 q 276 966 301 942 q 210 989 250 989 q 135 969 169 989 q 85 931 100 949 l 50 970 q 119 1021 75 998 q 218 1044 163 1044 q 319 1004 273 1044 q 366 909 366 965 q 353 849 366 877 q 302 788 334 810 l 322 774 q 382 660 382 734 q 334 547 382 585 q 222 509 286 509 q 37 598 104 509 m 163 -26 l 667 1054 l 741 1054 l 237 -26 l 163 -26 z "},"¿":{"ha":585,"x_min":63,"x_max":524,"o":"m 148 456 l 217 537 q 302 697 302 633 l 302 798 l 391 798 l 391 697 q 308 518 391 618 l 239 435 q 155 255 155 334 q 197 127 155 176 q 288 78 239 78 q 397 100 358 78 q 463 175 436 122 l 524 136 q 428 37 490 73 q 288 0 366 0 q 125 74 186 0 q 63 250 63 148 q 148 456 63 353 m 300 913 l 300 1015 l 401 1015 l 401 913 l 300 913 z "},"À":{"ha":766,"x_min":17,"x_max":749,"o":"m 134 1275 l 193 1334 l 393 1134 l 348 1090 l 134 1275 m 17 0 l 310 1027 l 456 1027 l 749 0 l 645 0 l 557 324 l 212 324 l 121 0 l 17 0 m 235 408 l 533 408 l 383 942 l 235 408 z "},"Á":{"ha":766,"x_min":17,"x_max":749,"o":"m 374 1134 l 574 1334 l 633 1275 l 418 1090 l 374 1134 m 17 0 l 310 1027 l 456 1027 l 749 0 l 645 0 l 557 324 l 212 324 l 121 0 l 17 0 m 235 408 l 533 408 l 383 942 l 235 408 z "},"Â":{"ha":766,"x_min":17,"x_max":749,"o":"m 233 1166 l 383 1316 l 534 1166 l 489 1122 l 383 1228 l 277 1122 l 233 1166 m 17 0 l 310 1027 l 456 1027 l 749 0 l 645 0 l 557 324 l 212 324 l 121 0 l 17 0 m 235 408 l 533 408 l 383 942 l 235 408 z "},"Ã":{"ha":766,"x_min":17,"x_max":749,"o":"m 589 1225 q 539 1148 572 1177 q 469 1120 507 1120 q 404 1135 432 1120 q 351 1166 376 1151 q 303 1181 326 1181 l 296 1181 q 258 1164 275 1179 q 233 1124 241 1148 l 176 1152 q 224 1227 193 1200 q 293 1257 259 1257 q 351 1248 328 1257 q 389 1227 374 1238 q 463 1196 428 1196 l 469 1196 q 508 1213 491 1198 q 533 1253 525 1229 l 589 1225 m 17 0 l 310 1027 l 456 1027 l 749 0 l 645 0 l 557 324 l 212 324 l 121 0 l 17 0 m 235 408 l 533 408 l 383 942 l 235 408 z "},"Ä":{"ha":766,"x_min":17,"x_max":749,"o":"m 224 1122 l 224 1223 l 326 1223 l 326 1122 l 224 1122 m 440 1122 l 440 1223 l 542 1223 l 542 1122 l 440 1122 m 17 0 l 310 1027 l 456 1027 l 749 0 l 645 0 l 557 324 l 212 324 l 121 0 l 17 0 m 235 408 l 533 408 l 383 942 l 235 408 z "},"Å":{"ha":766,"x_min":17,"x_max":749,"o":"m 307 1260 q 291 1245 307 1260 q 275 1185 275 1229 q 307 1109 275 1141 q 382 1078 338 1078 q 458 1109 427 1078 q 490 1185 490 1141 q 458 1260 490 1229 q 382 1292 427 1292 q 307 1260 338 1292 m 260 1062 q 210 1185 210 1113 q 261 1307 210 1257 q 383 1358 311 1358 q 505 1307 454 1358 q 556 1185 556 1257 q 505 1062 556 1113 q 456 1027 483 1040 l 456 1027 l 749 0 l 645 0 l 557 324 l 212 324 l 121 0 l 17 0 l 310 1027 q 260 1062 283 1040 m 235 408 l 533 408 l 383 942 l 235 408 z "},"Æ":{"ha":1085,"x_min":17,"x_max":1039,"o":"m 17 0 l 310 1027 l 1013 1027 l 1013 943 l 557 943 l 557 582 l 884 582 l 884 498 l 557 498 l 557 90 l 1039 90 l 1039 0 l 456 0 l 456 324 l 212 324 l 121 0 l 17 0 m 235 408 l 456 408 l 456 942 l 383 942 l 235 408 z "},"Ç":{"ha":796,"x_min":54,"x_max":750,"o":"m 363 -216 l 338 -216 l 338 -152 q 419 -141 399 -152 q 439 -120 439 -130 q 390 -9 439 -71 q 312 5 346 -5 q 227 50 263 22 q 160 118 190 78 q 111 203 131 157 q 79 301 92 249 q 60 407 66 354 q 54 526 54 460 q 66 665 54 592 q 106 807 78 738 q 175 926 134 876 q 279 1008 216 977 q 407 1039 342 1039 q 518 1022 472 1039 q 595 979 564 1006 q 652 921 626 953 q 692 856 677 888 q 731 754 724 789 l 735 738 l 735 737 l 632 709 q 605 822 621 787 q 571 881 588 858 q 534 919 555 903 q 419 955 486 955 q 155 515 155 955 q 210 207 155 326 q 419 73 273 73 q 605 167 538 73 q 651 314 651 233 l 750 298 q 738 262 747 291 q 721 214 728 233 q 699 164 714 196 q 668 112 684 133 q 628 65 653 91 q 574 25 602 40 q 456 -10 516 -5 q 502 -138 502 -76 q 363 -216 502 -216 z "},"È":{"ha":720,"x_min":92,"x_max":674,"o":"m 120 1275 l 179 1334 l 379 1134 l 334 1090 l 120 1275 m 92 0 l 92 1027 l 648 1027 l 648 943 l 192 943 l 192 582 l 519 582 l 519 498 l 192 498 l 192 90 l 674 90 l 674 0 l 92 0 z "},"É":{"ha":720,"x_min":92,"x_max":674,"o":"m 361 1134 l 561 1334 l 620 1275 l 406 1090 l 361 1134 m 92 0 l 92 1027 l 648 1027 l 648 943 l 192 943 l 192 582 l 519 582 l 519 498 l 192 498 l 192 90 l 674 90 l 674 0 l 92 0 z "},"Ê":{"ha":720,"x_min":92,"x_max":674,"o":"m 220 1166 l 370 1316 l 521 1166 l 476 1122 l 370 1228 l 264 1122 l 220 1166 m 92 0 l 92 1027 l 648 1027 l 648 943 l 192 943 l 192 582 l 519 582 l 519 498 l 192 498 l 192 90 l 674 90 l 674 0 l 92 0 z "},"Ë":{"ha":720,"x_min":92,"x_max":674,"o":"m 211 1122 l 211 1223 l 313 1223 l 313 1122 l 211 1122 m 427 1122 l 427 1223 l 529 1223 l 529 1122 l 427 1122 m 92 0 l 92 1027 l 648 1027 l 648 943 l 192 943 l 192 582 l 519 582 l 519 498 l 192 498 l 192 90 l 674 90 l 674 0 l 92 0 z "},"Ì":{"ha":283,"x_min":-108,"x_max":192,"o":"m -108 1275 l -49 1334 l 151 1134 l 106 1090 l -108 1275 m 92 0 l 92 1027 l 192 1027 l 192 0 l 92 0 z "},"Í":{"ha":283,"x_min":92,"x_max":391,"o":"m 132 1134 l 332 1334 l 391 1275 l 177 1090 l 132 1134 m 92 0 l 92 1027 l 192 1027 l 192 0 l 92 0 z "},"Î":{"ha":283,"x_min":-9,"x_max":292,"o":"m -9 1166 l 142 1316 l 292 1166 l 248 1122 l 142 1228 l 35 1122 l -9 1166 m 92 0 l 92 1027 l 192 1027 l 192 0 l 92 0 z "},"Ï":{"ha":283,"x_min":-18,"x_max":300,"o":"m -18 1122 l -18 1223 l 84 1223 l 84 1122 l -18 1122 m 199 1122 l 199 1223 l 300 1223 l 300 1122 l 199 1122 m 92 0 l 92 1027 l 192 1027 l 192 0 l 92 0 z "},"Ð":{"ha":830,"x_min":6,"x_max":784,"o":"m 6 458 l 6 551 l 93 551 l 93 1027 l 338 1027 q 523 998 443 1027 q 652 921 603 969 q 731 804 701 873 q 784 505 784 684 q 636 102 784 238 q 338 0 527 0 l 93 0 l 93 458 l 6 458 m 193 84 l 338 84 q 600 201 511 84 q 684 505 684 313 q 534 895 684 800 q 338 943 458 943 l 193 943 l 193 551 l 413 551 l 413 458 l 193 458 l 193 84 z "},"Ñ":{"ha":848,"x_min":87,"x_max":762,"o":"m 631 1225 q 581 1148 614 1177 q 511 1120 548 1120 q 445 1135 473 1120 q 392 1166 417 1151 q 345 1181 368 1181 l 338 1181 q 299 1164 316 1179 q 274 1124 282 1148 l 218 1152 q 265 1227 235 1200 q 335 1257 300 1257 q 392 1248 369 1257 q 431 1227 416 1238 q 504 1196 469 1196 l 511 1196 q 549 1213 532 1198 q 574 1253 566 1229 l 631 1225 m 87 0 l 87 1027 l 247 1027 l 661 245 l 661 1027 l 762 1027 l 762 0 l 675 0 l 187 928 l 187 0 l 87 0 z "},"Ò":{"ha":857,"x_min":54,"x_max":802,"o":"m 185 1275 l 244 1334 l 444 1134 l 399 1090 l 185 1275 m 114 218 q 98 252 114 218 q 68 359 83 286 q 54 511 54 433 q 67 663 54 589 q 109 806 80 736 q 181 926 138 875 q 290 1008 224 977 q 433 1039 355 1039 q 574 1007 511 1039 q 679 924 637 976 q 749 803 720 872 q 802 510 802 673 q 648 68 802 212 q 435 -11 565 -11 q 296 19 359 -11 q 188 100 232 50 q 114 218 144 151 m 193 766 q 183 738 193 766 q 163 645 172 709 q 155 501 155 582 q 171 344 155 420 q 219 206 186 268 q 306 109 251 144 q 428 73 361 73 q 543 100 495 73 q 620 170 591 127 q 668 271 649 212 q 702 510 702 376 q 620 856 702 733 q 543 927 591 900 q 435 955 496 955 q 325 930 374 955 q 245 865 277 906 q 193 766 214 824 z "},"Ó":{"ha":857,"x_min":54,"x_max":802,"o":"m 425 1134 l 625 1334 l 684 1275 l 470 1090 l 425 1134 m 114 218 q 98 252 114 218 q 68 359 83 286 q 54 511 54 433 q 67 663 54 589 q 109 806 80 736 q 181 926 138 875 q 290 1008 224 977 q 433 1039 355 1039 q 574 1007 511 1039 q 679 924 637 976 q 749 803 720 872 q 802 510 802 673 q 648 68 802 212 q 435 -11 565 -11 q 296 19 359 -11 q 188 100 232 50 q 114 218 144 151 m 193 766 q 183 738 193 766 q 163 645 172 709 q 155 501 155 582 q 171 344 155 420 q 219 206 186 268 q 306 109 251 144 q 428 73 361 73 q 543 100 495 73 q 620 170 591 127 q 668 271 649 212 q 702 510 702 376 q 620 856 702 733 q 543 927 591 900 q 435 955 496 955 q 325 930 374 955 q 245 865 277 906 q 193 766 214 824 z "},"Ô":{"ha":857,"x_min":54,"x_max":802,"o":"m 284 1166 l 435 1316 l 585 1166 l 541 1122 l 435 1228 l 328 1122 l 284 1166 m 114 218 q 98 252 114 218 q 68 359 83 286 q 54 511 54 433 q 67 663 54 589 q 109 806 80 736 q 181 926 138 875 q 290 1008 224 977 q 433 1039 355 1039 q 574 1007 511 1039 q 679 924 637 976 q 749 803 720 872 q 802 510 802 673 q 648 68 802 212 q 435 -11 565 -11 q 296 19 359 -11 q 188 100 232 50 q 114 218 144 151 m 193 766 q 183 738 193 766 q 163 645 172 709 q 155 501 155 582 q 171 344 155 420 q 219 206 186 268 q 306 109 251 144 q 428 73 361 73 q 543 100 495 73 q 620 170 591 127 q 668 271 649 212 q 702 510 702 376 q 620 856 702 733 q 543 927 591 900 q 435 955 496 955 q 325 930 374 955 q 245 865 277 906 q 193 766 214 824 z "},"Õ":{"ha":857,"x_min":54,"x_max":802,"o":"m 641 1225 q 591 1148 624 1177 q 521 1120 558 1120 q 455 1135 484 1120 q 402 1166 427 1151 q 355 1181 378 1181 l 348 1181 q 309 1164 326 1179 q 284 1124 292 1148 l 228 1152 q 275 1227 245 1200 q 345 1257 311 1257 q 402 1248 379 1257 q 441 1227 426 1238 q 514 1196 479 1196 l 521 1196 q 559 1213 543 1198 q 585 1253 576 1229 l 641 1225 m 114 218 q 98 252 114 218 q 68 359 83 286 q 54 511 54 433 q 67 663 54 589 q 109 806 80 736 q 181 926 138 875 q 290 1008 224 977 q 433 1039 355 1039 q 574 1007 511 1039 q 679 924 637 976 q 749 803 720 872 q 802 510 802 673 q 648 68 802 212 q 435 -11 565 -11 q 296 19 359 -11 q 188 100 232 50 q 114 218 144 151 m 193 766 q 183 738 193 766 q 163 645 172 709 q 155 501 155 582 q 171 344 155 420 q 219 206 186 268 q 306 109 251 144 q 428 73 361 73 q 543 100 495 73 q 620 170 591 127 q 668 271 649 212 q 702 510 702 376 q 620 856 702 733 q 543 927 591 900 q 435 955 496 955 q 325 930 374 955 q 245 865 277 906 q 193 766 214 824 z "},"Ö":{"ha":857,"x_min":54,"x_max":802,"o":"m 275 1122 l 275 1223 l 377 1223 l 377 1122 l 275 1122 m 492 1122 l 492 1223 l 593 1223 l 593 1122 l 492 1122 m 114 218 q 98 252 114 218 q 68 359 83 286 q 54 511 54 433 q 67 663 54 589 q 109 806 80 736 q 181 926 138 875 q 290 1008 224 977 q 433 1039 355 1039 q 574 1007 511 1039 q 679 924 637 976 q 749 803 720 872 q 802 510 802 673 q 648 68 802 212 q 435 -11 565 -11 q 296 19 359 -11 q 188 100 232 50 q 114 218 144 151 m 193 766 q 183 738 193 766 q 163 645 172 709 q 155 501 155 582 q 171 344 155 420 q 219 206 186 268 q 306 109 251 144 q 428 73 361 73 q 543 100 495 73 q 620 170 591 127 q 668 271 649 212 q 702 510 702 376 q 620 856 702 733 q 543 927 591 900 q 435 955 496 955 q 325 930 374 955 q 245 865 277 906 q 193 766 214 824 z "},"×":{"ha":608,"x_min":51,"x_max":557,"o":"m 51 312 l 241 502 l 51 692 l 114 755 l 304 565 l 493 755 l 556 692 l 367 502 l 557 312 l 494 249 l 304 439 l 114 249 l 51 312 z "},"Ø":{"ha":862,"x_min":54,"x_max":808,"o":"m 162 133 q 82 306 109 207 q 54 497 54 406 q 67 663 54 589 q 109 806 80 736 q 181 926 138 875 q 290 1008 224 977 q 435 1039 355 1039 q 642 963 553 1039 l 692 1050 l 770 1006 l 704 892 q 781 716 755 817 q 808 523 808 614 q 795 358 808 431 q 753 217 782 285 q 681 99 724 149 q 575 19 639 49 q 435 -11 512 -11 q 226 64 316 -11 l 174 -26 l 96 19 l 162 133 m 212 218 l 597 886 q 435 955 532 955 q 193 766 260 955 q 155 497 155 660 q 212 218 155 334 m 269 138 q 435 73 338 73 q 543 100 495 73 q 622 170 591 127 q 671 271 652 212 q 707 529 707 374 q 652 802 707 683 l 269 138 z "},"Ù":{"ha":823,"x_min":92,"x_max":736,"o":"m 163 1275 l 222 1334 l 422 1134 l 378 1090 l 163 1275 m 92 309 l 92 1027 l 192 1027 l 192 309 q 237 153 192 216 q 413 73 293 73 q 625 235 592 73 q 633 309 633 272 l 633 1027 l 736 1027 l 736 309 q 675 110 736 197 q 413 -11 594 -11 q 122 161 197 -11 q 92 309 92 233 z "},"Ú":{"ha":823,"x_min":92,"x_max":736,"o":"m 403 1134 l 603 1334 l 662 1275 l 448 1090 l 403 1134 m 92 309 l 92 1027 l 192 1027 l 192 309 q 237 153 192 216 q 413 73 293 73 q 625 235 592 73 q 633 309 633 272 l 633 1027 l 736 1027 l 736 309 q 675 110 736 197 q 413 -11 594 -11 q 122 161 197 -11 q 92 309 92 233 z "},"Û":{"ha":823,"x_min":92,"x_max":736,"o":"m 262 1166 l 412 1316 l 563 1166 l 518 1122 l 412 1228 l 306 1122 l 262 1166 m 92 309 l 92 1027 l 192 1027 l 192 309 q 237 153 192 216 q 413 73 293 73 q 625 235 592 73 q 633 309 633 272 l 633 1027 l 736 1027 l 736 309 q 675 110 736 197 q 413 -11 594 -11 q 122 161 197 -11 q 92 309 92 233 z "},"Ü":{"ha":823,"x_min":92,"x_max":736,"o":"m 254 1122 l 254 1223 l 355 1223 l 355 1122 l 254 1122 m 470 1122 l 470 1223 l 572 1223 l 572 1122 l 470 1122 m 92 309 l 92 1027 l 192 1027 l 192 309 q 237 153 192 216 q 413 73 293 73 q 625 235 592 73 q 633 309 633 272 l 633 1027 l 736 1027 l 736 309 q 675 110 736 197 q 413 -11 594 -11 q 122 161 197 -11 q 92 309 92 233 z "},"Ý":{"ha":761,"x_min":17,"x_max":744,"o":"m 371 1134 l 571 1334 l 630 1275 l 416 1090 l 371 1134 m 17 1027 l 121 1027 l 380 544 l 640 1027 l 744 1027 l 431 448 l 431 0 l 330 0 l 330 448 l 17 1027 z "},"Þ":{"ha":838,"x_min":92,"x_max":724,"o":"m 92 0 l 92 1027 l 192 1027 l 192 800 l 450 800 q 685 674 610 800 q 724 542 724 608 q 709 426 724 475 q 664 335 694 377 q 578 267 633 292 q 450 242 523 242 l 192 242 l 192 0 l 92 0 m 192 326 l 382 326 q 558 374 492 326 q 624 522 624 422 q 557 668 624 621 q 382 716 491 716 l 192 716 l 192 326 z "},"ß":{"ha":777,"x_min":92,"x_max":747,"o":"m 92 0 l 92 596 q 117 872 92 804 q 199 991 149 960 q 375 1034 269 1034 q 544 977 480 1034 q 607 843 607 919 q 570 718 607 768 q 479 646 534 667 q 447 634 468 642 q 418 623 427 627 q 397 613 410 620 q 378 602 383 607 q 366 589 373 597 q 356 546 356 574 q 368 496 356 517 q 406 459 380 475 q 496 419 444 435 q 564 398 547 404 q 609 381 581 393 q 653 360 637 370 q 689 333 669 350 q 720 298 709 317 q 747 198 747 252 q 678 50 747 108 q 522 -7 610 -7 q 382 19 435 -7 q 284 117 329 45 l 351 161 q 418 87 387 106 q 515 68 450 68 q 623 104 581 68 q 657 178 657 134 q 642 247 657 221 q 600 289 627 273 q 506 327 555 315 q 428 348 456 338 q 370 375 400 358 q 319 413 340 392 q 269 532 269 461 q 315 659 269 618 q 439 720 358 698 q 515 782 502 737 q 522 833 522 803 q 479 921 522 890 q 382 953 436 953 q 296 940 329 953 q 241 901 263 926 q 208 831 220 876 q 186 596 186 750 l 186 0 l 92 0 z "},"à":{"ha":629,"x_min":49,"x_max":572,"o":"m 75 959 l 134 1018 l 334 818 l 289 774 l 75 959 m 49 175 q 49 199 49 175 q 61 259 49 223 q 99 324 73 296 q 159 374 125 352 q 241 413 192 395 q 462 471 332 445 q 420 614 462 578 q 314 646 384 646 q 167 581 229 646 q 130 533 140 554 l 66 576 q 324 722 142 722 q 533 596 488 722 q 551 473 551 545 l 551 100 q 559 47 551 81 q 572 0 566 13 l 482 0 q 462 114 462 10 q 251 -9 366 -9 q 74 81 123 -9 q 49 175 49 126 m 155 252 q 138 171 138 221 q 174 94 138 121 q 252 67 209 67 q 328 80 295 67 q 388 113 361 93 q 462 180 437 151 l 462 395 q 309 354 333 361 q 155 252 190 315 z "},"á":{"ha":629,"x_min":49,"x_max":574,"o":"m 315 818 l 515 1018 l 574 959 l 359 774 l 315 818 m 49 175 q 49 199 49 175 q 61 259 49 223 q 99 324 73 296 q 159 374 125 352 q 241 413 192 395 q 462 471 332 445 q 420 614 462 578 q 314 646 384 646 q 167 581 229 646 q 130 533 140 554 l 66 576 q 324 722 142 722 q 533 596 488 722 q 551 473 551 545 l 551 100 q 559 47 551 81 q 572 0 566 13 l 482 0 q 462 114 462 10 q 251 -9 366 -9 q 74 81 123 -9 q 49 175 49 126 m 155 252 q 138 171 138 221 q 174 94 138 121 q 252 67 209 67 q 328 80 295 67 q 388 113 361 93 q 462 180 437 151 l 462 395 q 309 354 333 361 q 155 252 190 315 z "},"â":{"ha":629,"x_min":49,"x_max":572,"o":"m 174 850 l 324 1000 l 475 850 l 430 806 l 324 912 l 218 806 l 174 850 m 49 175 q 49 199 49 175 q 61 259 49 223 q 99 324 73 296 q 159 374 125 352 q 241 413 192 395 q 462 471 332 445 q 420 614 462 578 q 314 646 384 646 q 167 581 229 646 q 130 533 140 554 l 66 576 q 324 722 142 722 q 533 596 488 722 q 551 473 551 545 l 551 100 q 559 47 551 81 q 572 0 566 13 l 482 0 q 462 114 462 10 q 251 -9 366 -9 q 74 81 123 -9 q 49 175 49 126 m 155 252 q 138 171 138 221 q 174 94 138 121 q 252 67 209 67 q 328 80 295 67 q 388 113 361 93 q 462 180 437 151 l 462 395 q 309 354 333 361 q 155 252 190 315 z "},"ã":{"ha":629,"x_min":49,"x_max":572,"o":"m 531 909 q 481 832 514 861 q 411 804 448 804 q 346 819 374 804 q 293 850 317 835 q 245 865 268 865 l 238 865 q 199 848 216 863 q 174 808 182 832 l 118 836 q 165 911 135 884 q 235 941 201 941 q 293 932 269 941 q 331 911 316 922 q 404 880 370 880 l 411 880 q 450 897 433 882 q 475 937 467 913 l 531 909 m 49 175 q 49 199 49 175 q 61 259 49 223 q 99 324 73 296 q 159 374 125 352 q 241 413 192 395 q 462 471 332 445 q 420 614 462 578 q 314 646 384 646 q 167 581 229 646 q 130 533 140 554 l 66 576 q 324 722 142 722 q 533 596 488 722 q 551 473 551 545 l 551 100 q 559 47 551 81 q 572 0 566 13 l 482 0 q 462 114 462 10 q 251 -9 366 -9 q 74 81 123 -9 q 49 175 49 126 m 155 252 q 138 171 138 221 q 174 94 138 121 q 252 67 209 67 q 328 80 295 67 q 388 113 361 93 q 462 180 437 151 l 462 395 q 309 354 333 361 q 155 252 190 315 z "},"ä":{"ha":629,"x_min":49,"x_max":572,"o":"m 165 806 l 165 907 l 267 907 l 267 806 l 165 806 m 382 806 l 382 907 l 484 907 l 484 806 l 382 806 m 49 175 q 49 199 49 175 q 61 259 49 223 q 99 324 73 296 q 159 374 125 352 q 241 413 192 395 q 462 471 332 445 q 420 614 462 578 q 314 646 384 646 q 167 581 229 646 q 130 533 140 554 l 66 576 q 324 722 142 722 q 533 596 488 722 q 551 473 551 545 l 551 100 q 559 47 551 81 q 572 0 566 13 l 482 0 q 462 114 462 10 q 251 -9 366 -9 q 74 81 123 -9 q 49 175 49 126 m 155 252 q 138 171 138 221 q 174 94 138 121 q 252 67 209 67 q 328 80 295 67 q 388 113 361 93 q 462 180 437 151 l 462 395 q 309 354 333 361 q 155 252 190 315 z "},"å":{"ha":629,"x_min":49,"x_max":572,"o":"m 190 836 q 164 861 190 836 q 139 958 139 886 q 190 1081 139 1030 q 312 1131 240 1131 q 434 1081 384 1131 q 485 958 485 1030 q 434 836 485 886 q 312 785 384 785 q 190 836 240 785 m 236 1034 q 220 1018 236 1034 q 204 958 204 1002 q 236 883 204 914 q 311 851 267 851 q 387 883 355 851 q 418 958 418 914 q 387 1034 418 1002 q 311 1065 355 1065 q 236 1034 267 1065 m 49 175 q 49 199 49 175 q 61 259 49 223 q 99 324 73 296 q 159 374 125 352 q 241 413 192 395 q 462 471 332 445 q 420 614 462 578 q 314 646 384 646 q 167 581 229 646 q 130 533 140 554 l 66 576 q 324 722 142 722 q 533 596 488 722 q 551 473 551 545 l 551 100 q 559 47 551 81 q 572 0 566 13 l 482 0 q 462 114 462 10 q 251 -9 366 -9 q 74 81 123 -9 q 49 175 49 126 m 155 252 q 138 171 138 221 q 174 94 138 121 q 252 67 209 67 q 328 80 295 67 q 388 113 361 93 q 462 180 437 151 l 462 395 q 309 354 333 361 q 155 252 190 315 z "},"æ":{"ha":1036,"x_min":49,"x_max":981,"o":"m 49 176 q 49 200 49 176 q 61 261 49 224 q 99 325 73 297 q 159 375 125 353 q 241 414 192 397 q 462 472 332 446 q 420 615 462 579 q 314 647 384 647 q 167 582 229 647 q 130 534 140 555 l 66 577 q 324 723 142 723 q 525 616 474 723 q 730 723 595 723 q 920 620 855 723 q 979 348 979 528 l 549 348 q 640 101 549 167 q 732 68 686 68 q 811 84 778 68 q 865 122 844 99 q 920 198 907 168 l 981 155 q 912 66 956 105 q 744 -7 831 -7 q 593 36 656 -7 q 495 157 530 80 q 251 -7 385 -7 q 74 82 123 -7 q 49 176 49 127 m 155 254 q 138 172 138 222 q 174 95 138 122 q 250 68 209 68 q 321 80 292 68 q 374 106 351 91 q 420 141 397 121 q 477 199 453 171 q 460 321 460 246 q 461 358 460 334 q 462 396 462 383 q 309 355 333 363 q 155 254 190 317 m 553 424 l 889 424 q 842 591 889 525 q 730 647 803 647 q 572 537 612 647 q 553 424 553 486 z "},"ç":{"ha":628,"x_min":51,"x_max":573,"o":"m 283 -213 l 258 -212 l 258 -149 q 339 -138 319 -149 q 359 -117 359 -127 q 311 -7 359 -68 q 121 87 184 2 q 51 353 51 182 q 339 723 51 723 q 459 689 410 723 q 523 628 507 655 q 560 551 550 582 l 488 519 q 474 559 487 532 q 446 602 460 585 q 402 633 431 619 q 339 647 374 647 q 140 359 140 647 q 193 144 140 219 q 339 68 245 68 q 446 118 404 68 q 496 194 484 161 l 503 209 l 573 175 q 495 56 549 109 q 429 12 471 32 q 375 -5 403 0 q 422 -135 422 -71 q 283 -213 422 -213 z "},"è":{"ha":627,"x_min":51,"x_max":572,"o":"m 73 959 l 132 1018 l 332 818 l 287 774 l 73 959 m 119 100 q 102 125 119 100 q 68 211 85 150 q 51 339 51 272 q 60 461 51 406 q 85 555 70 517 q 123 624 101 594 q 170 673 146 654 q 221 703 193 691 q 313 723 269 723 q 387 715 356 723 q 452 683 417 707 q 512 620 487 659 q 570 348 570 528 l 140 348 q 232 101 140 167 q 333 68 277 68 q 511 198 437 68 l 572 155 q 503 67 546 106 q 342 -7 422 -7 q 208 22 263 -7 q 119 100 152 51 m 144 424 l 481 424 q 434 591 481 525 q 322 647 395 647 q 163 537 203 647 q 144 424 144 486 z "},"é":{"ha":627,"x_min":51,"x_max":572,"o":"m 313 818 l 513 1018 l 572 959 l 357 774 l 313 818 m 119 100 q 102 125 119 100 q 68 211 85 150 q 51 339 51 272 q 60 461 51 406 q 85 555 70 517 q 123 624 101 594 q 170 673 146 654 q 221 703 193 691 q 313 723 269 723 q 387 715 356 723 q 452 683 417 707 q 512 620 487 659 q 570 348 570 528 l 140 348 q 232 101 140 167 q 333 68 277 68 q 511 198 437 68 l 572 155 q 503 67 546 106 q 342 -7 422 -7 q 208 22 263 -7 q 119 100 152 51 m 144 424 l 481 424 q 434 591 481 525 q 322 647 395 647 q 163 537 203 647 q 144 424 144 486 z "},"ê":{"ha":627,"x_min":51,"x_max":572,"o":"m 172 850 l 322 1000 l 473 850 l 428 806 l 322 912 l 216 806 l 172 850 m 119 100 q 102 125 119 100 q 68 211 85 150 q 51 339 51 272 q 60 461 51 406 q 85 555 70 517 q 123 624 101 594 q 170 673 146 654 q 221 703 193 691 q 313 723 269 723 q 387 715 356 723 q 452 683 417 707 q 512 620 487 659 q 570 348 570 528 l 140 348 q 232 101 140 167 q 333 68 277 68 q 511 198 437 68 l 572 155 q 503 67 546 106 q 342 -7 422 -7 q 208 22 263 -7 q 119 100 152 51 m 144 424 l 481 424 q 434 591 481 525 q 322 647 395 647 q 163 537 203 647 q 144 424 144 486 z "},"ë":{"ha":627,"x_min":51,"x_max":572,"o":"m 163 806 l 163 907 l 264 907 l 264 806 l 163 806 m 379 806 l 379 907 l 481 907 l 481 806 l 379 806 m 119 100 q 102 125 119 100 q 68 211 85 150 q 51 339 51 272 q 60 461 51 406 q 85 555 70 517 q 123 624 101 594 q 170 673 146 654 q 221 703 193 691 q 313 723 269 723 q 387 715 356 723 q 452 683 417 707 q 512 620 487 659 q 570 348 570 528 l 140 348 q 232 101 140 167 q 333 68 277 68 q 511 198 437 68 l 572 155 q 503 67 546 106 q 342 -7 422 -7 q 208 22 263 -7 q 119 100 152 51 m 144 424 l 481 424 q 434 591 481 525 q 322 647 395 647 q 163 537 203 647 q 144 424 144 486 z "},"ì":{"ha":283,"x_min":-117,"x_max":177,"o":"m -117 959 l -58 1018 l 142 818 l 97 774 l -117 959 m 87 0 l 87 715 l 177 715 l 177 0 l 87 0 z "},"í":{"ha":283,"x_min":87,"x_max":382,"o":"m 123 818 l 323 1018 l 382 959 l 168 774 l 123 818 m 87 0 l 87 715 l 177 715 l 177 0 l 87 0 z "},"î":{"ha":283,"x_min":-18,"x_max":283,"o":"m -18 850 l 132 1000 l 283 850 l 238 806 l 132 912 l 26 806 l -18 850 m 87 0 l 87 715 l 177 715 l 177 0 l 87 0 z "},"ï":{"ha":283,"x_min":-27,"x_max":291,"o":"m -27 806 l -27 907 l 75 907 l 75 806 l -27 806 m 189 806 l 189 907 l 291 907 l 291 806 l 189 806 m 87 0 l 87 715 l 177 715 l 177 0 l 87 0 z "},"ð":{"ha":665,"x_min":51,"x_max":608,"o":"m 361 1027 q 446 944 395 1006 l 555 1008 l 587 954 l 481 892 q 608 357 608 688 q 481 39 608 134 q 330 -7 418 -7 q 125 95 199 -7 q 51 361 51 197 q 124 625 51 526 q 330 723 198 723 q 488 675 430 723 q 426 830 434 815 l 414 853 l 277 774 l 245 829 l 380 906 q 305 992 342 958 q 267 1027 268 1026 l 361 1027 m 140 358 q 252 86 140 144 q 330 68 286 68 q 409 86 374 68 q 463 132 443 104 q 496 198 484 159 q 519 357 519 266 q 330 647 519 647 q 140 358 140 647 z "},"ñ":{"ha":658,"x_min":81,"x_max":583,"o":"m 539 909 q 489 832 522 861 q 419 804 456 804 q 354 819 382 804 q 301 850 326 835 q 253 865 276 865 l 246 865 q 208 848 224 863 q 182 808 191 832 l 126 836 q 174 911 143 884 q 243 941 209 941 q 301 932 277 941 q 339 911 324 922 q 412 880 378 880 l 419 880 q 458 897 441 882 q 483 937 475 913 l 539 909 m 81 0 l 81 715 l 171 715 l 171 598 q 284 690 231 657 q 410 723 338 723 q 533 675 483 723 q 583 533 583 628 l 583 0 l 494 0 l 494 533 q 457 615 494 584 q 379 647 421 647 q 171 530 279 647 l 171 0 l 81 0 z "},"ò":{"ha":659,"x_min":51,"x_max":608,"o":"m 81 959 l 140 1018 l 340 818 l 295 774 l 81 959 m 51 362 q 51 444 51 362 q 124 625 51 526 q 330 723 198 723 q 535 624 463 723 q 608 359 608 525 q 535 93 608 194 q 330 -8 461 -8 q 123 96 197 -8 q 51 362 51 199 m 140 358 q 252 85 140 143 q 330 68 286 68 q 409 85 374 68 q 463 131 443 103 q 496 198 484 159 q 519 357 519 267 q 330 647 519 647 q 140 358 140 647 z "},"ó":{"ha":659,"x_min":51,"x_max":608,"o":"m 321 818 l 521 1018 l 580 959 l 366 774 l 321 818 m 51 362 q 51 444 51 362 q 124 625 51 526 q 330 723 198 723 q 535 624 463 723 q 608 359 608 525 q 535 93 608 194 q 330 -8 461 -8 q 123 96 197 -8 q 51 362 51 199 m 140 358 q 252 85 140 143 q 330 68 286 68 q 409 85 374 68 q 463 131 443 103 q 496 198 484 159 q 519 357 519 267 q 330 647 519 647 q 140 358 140 647 z "},"ô":{"ha":659,"x_min":51,"x_max":608,"o":"m 180 850 l 330 1000 l 481 850 l 436 806 l 330 912 l 224 806 l 180 850 m 51 362 q 51 444 51 362 q 124 625 51 526 q 330 723 198 723 q 535 624 463 723 q 608 359 608 525 q 535 93 608 194 q 330 -8 461 -8 q 123 96 197 -8 q 51 362 51 199 m 140 358 q 252 85 140 143 q 330 68 286 68 q 409 85 374 68 q 463 131 443 103 q 496 198 484 159 q 519 357 519 267 q 330 647 519 647 q 140 358 140 647 z "},"õ":{"ha":659,"x_min":51,"x_max":608,"o":"m 536 909 q 487 832 519 861 q 416 804 454 804 q 351 819 379 804 q 298 850 323 835 q 250 865 273 865 l 243 865 q 205 848 222 863 q 180 808 188 832 l 123 836 q 171 911 140 884 q 240 941 206 941 q 298 932 275 941 q 336 911 321 922 q 410 880 375 880 l 416 880 q 455 897 438 882 q 480 937 472 913 l 536 909 m 51 362 q 51 444 51 362 q 124 625 51 526 q 330 723 198 723 q 535 624 463 723 q 608 359 608 525 q 535 93 608 194 q 330 -8 461 -8 q 123 96 197 -8 q 51 362 51 199 m 140 358 q 252 85 140 143 q 330 68 286 68 q 409 85 374 68 q 463 131 443 103 q 496 198 484 159 q 519 357 519 267 q 330 647 519 647 q 140 358 140 647 z "},"ö":{"ha":659,"x_min":51,"x_max":608,"o":"m 171 806 l 171 907 l 273 907 l 273 806 l 171 806 m 387 806 l 387 907 l 489 907 l 489 806 l 387 806 m 51 362 q 51 444 51 362 q 124 625 51 526 q 330 723 198 723 q 535 624 463 723 q 608 359 608 525 q 535 93 608 194 q 330 -8 461 -8 q 123 96 197 -8 q 51 362 51 199 m 140 358 q 252 85 140 143 q 330 68 286 68 q 409 85 374 68 q 463 131 443 103 q 496 198 484 159 q 519 357 519 267 q 330 647 519 647 q 140 358 140 647 z "},"÷":{"ha":612,"x_min":51,"x_max":562,"o":"m 51 457 l 51 547 l 562 547 l 562 457 l 51 457 m 256 216 l 256 318 l 357 318 l 357 216 l 256 216 m 256 686 l 256 787 l 357 787 l 357 686 l 256 686 z "},"ø":{"ha":659,"x_min":51,"x_max":608,"o":"m 120 100 q 51 363 51 201 q 124 625 51 526 q 330 723 198 723 q 461 690 403 723 l 494 747 l 571 703 l 530 631 q 608 362 608 530 q 535 93 608 194 q 330 -8 461 -8 q 186 35 250 -8 l 152 -24 l 74 20 l 120 100 m 140 358 q 168 184 140 255 l 422 624 q 330 647 383 647 q 140 358 140 647 m 225 103 q 322 68 269 68 q 409 85 374 68 q 463 131 443 103 q 496 198 484 159 q 519 374 519 267 q 485 553 519 481 l 225 103 z "},"ù":{"ha":664,"x_min":87,"x_max":589,"o":"m 89 959 l 148 1018 l 348 818 l 303 774 l 89 959 m 87 182 l 87 715 l 177 715 l 177 182 q 213 100 177 132 q 292 68 250 68 q 500 186 392 68 l 500 715 l 589 715 l 589 0 l 500 0 l 500 118 q 335 3 404 24 q 266 -7 302 -7 q 138 40 188 -7 q 87 182 87 87 z "},"ú":{"ha":664,"x_min":87,"x_max":589,"o":"m 329 818 l 529 1018 l 588 959 l 374 774 l 329 818 m 87 182 l 87 715 l 177 715 l 177 182 q 213 100 177 132 q 292 68 250 68 q 500 186 392 68 l 500 715 l 589 715 l 589 0 l 500 0 l 500 118 q 335 3 404 24 q 266 -7 302 -7 q 138 40 188 -7 q 87 182 87 87 z "},"û":{"ha":664,"x_min":87,"x_max":589,"o":"m 188 850 l 338 1000 l 489 850 l 444 806 l 338 912 l 232 806 l 188 850 m 87 182 l 87 715 l 177 715 l 177 182 q 213 100 177 132 q 292 68 250 68 q 500 186 392 68 l 500 715 l 589 715 l 589 0 l 500 0 l 500 118 q 335 3 404 24 q 266 -7 302 -7 q 138 40 188 -7 q 87 182 87 87 z "},"ü":{"ha":664,"x_min":87,"x_max":589,"o":"m 179 806 l 179 907 l 281 907 l 281 806 l 179 806 m 395 806 l 395 907 l 497 907 l 497 806 l 395 806 m 87 182 l 87 715 l 177 715 l 177 182 q 213 100 177 132 q 292 68 250 68 q 500 186 392 68 l 500 715 l 589 715 l 589 0 l 500 0 l 500 118 q 335 3 404 24 q 266 -7 302 -7 q 138 40 188 -7 q 87 182 87 87 z "},"ý":{"ha":614,"x_min":17,"x_max":597,"o":"m 297 818 l 497 1018 l 556 959 l 342 774 l 297 818 m 186 -256 q 165 -261 186 -256 q 102 -267 144 -267 q 18 -261 59 -267 l 25 -179 q 90 -191 50 -191 q 157 -180 131 -191 q 201 -153 184 -170 q 232 -116 218 -136 q 254 -76 245 -96 q 274 -2 268 -38 l 17 715 l 113 715 l 316 133 l 506 715 l 597 715 l 347 -43 q 270 -201 309 -159 q 186 -256 227 -245 z "},"þ":{"ha":688,"x_min":87,"x_max":637,"o":"m 87 -278 l 87 1027 l 177 1027 l 177 604 q 231 665 193 635 q 378 723 301 723 q 595 567 520 723 q 637 371 637 477 q 546 73 637 184 q 369 -7 479 -7 q 248 30 307 -7 q 177 95 190 68 l 177 -278 l 87 -278 m 177 172 q 253 98 208 127 q 338 68 298 68 q 406 76 378 68 q 460 105 433 84 q 506 159 487 125 q 548 371 548 232 q 469 610 548 541 q 363 647 427 647 q 214 575 278 647 q 177 528 198 557 l 177 172 z "},"ÿ":{"ha":614,"x_min":17,"x_max":597,"o":"m 148 809 l 148 911 l 250 911 l 250 809 l 148 809 m 364 809 l 364 911 l 466 911 l 466 809 l 364 809 m 186 -256 q 165 -261 186 -256 q 102 -267 144 -267 q 18 -261 59 -267 l 25 -179 q 90 -191 50 -191 q 157 -180 131 -191 q 201 -153 184 -170 q 232 -116 218 -136 q 254 -76 245 -96 q 274 -2 268 -38 l 17 715 l 113 715 l 316 133 l 506 715 l 597 715 l 347 -43 q 270 -201 309 -159 q 186 -256 227 -245 z "},"Ā":{"ha":766,"x_min":17,"x_max":749,"o":"m 205 1122 l 205 1184 l 562 1184 l 562 1122 l 205 1122 m 17 0 l 310 1027 l 456 1027 l 749 0 l 645 0 l 557 324 l 212 324 l 121 0 l 17 0 m 235 408 l 533 408 l 383 942 l 235 408 z "},"ā":{"ha":629,"x_min":49,"x_max":572,"o":"m 145 806 l 145 868 l 503 868 l 503 806 l 145 806 m 49 175 q 49 199 49 175 q 61 259 49 223 q 99 324 73 296 q 159 374 125 352 q 241 413 192 395 q 462 471 332 445 q 420 614 462 578 q 314 646 384 646 q 167 581 229 646 q 130 533 140 554 l 66 576 q 324 722 142 722 q 533 596 488 722 q 551 473 551 545 l 551 100 q 559 47 551 81 q 572 0 566 13 l 482 0 q 462 114 462 10 q 251 -9 366 -9 q 74 81 123 -9 q 49 175 49 126 m 155 252 q 138 171 138 221 q 174 94 138 121 q 252 67 209 67 q 328 80 295 67 q 388 113 361 93 q 462 180 437 151 l 462 395 q 309 354 333 361 q 155 252 190 315 z "},"Ă":{"ha":766,"x_min":17,"x_max":749,"o":"m 523 1213 q 383 1122 479 1122 q 243 1213 288 1122 l 290 1240 q 329 1194 302 1212 q 383 1175 355 1175 q 437 1194 411 1175 q 476 1240 464 1212 l 523 1213 m 17 0 l 310 1027 l 456 1027 l 749 0 l 645 0 l 557 324 l 212 324 l 121 0 l 17 0 m 235 408 l 533 408 l 383 942 l 235 408 z "},"ă":{"ha":629,"x_min":49,"x_max":572,"o":"m 464 897 q 324 806 420 806 q 184 897 229 806 l 231 924 q 270 878 243 896 q 324 859 296 859 q 378 878 352 859 q 417 924 405 896 l 464 897 m 49 175 q 49 199 49 175 q 61 259 49 223 q 99 324 73 296 q 159 374 125 352 q 241 413 192 395 q 462 471 332 445 q 420 614 462 578 q 314 646 384 646 q 167 581 229 646 q 130 533 140 554 l 66 576 q 324 722 142 722 q 533 596 488 722 q 551 473 551 545 l 551 100 q 559 47 551 81 q 572 0 566 13 l 482 0 q 462 114 462 10 q 251 -9 366 -9 q 74 81 123 -9 q 49 175 49 126 m 155 252 q 138 171 138 221 q 174 94 138 121 q 252 67 209 67 q 328 80 295 67 q 388 113 361 93 q 462 180 437 151 l 462 395 q 309 354 333 361 q 155 252 190 315 z "},"Ą":{"ha":766,"x_min":17,"x_max":760,"o":"m 736 -213 q 597 -135 597 -213 q 646 -1 597 -70 l 713 -1 q 660 -117 660 -66 q 739 -147 660 -141 q 760 -149 751 -149 l 760 -212 l 736 -213 m 235 408 l 533 408 l 383 942 l 235 408 m 17 0 l 310 1027 l 456 1027 l 749 0 l 645 0 l 557 324 l 212 324 l 121 0 l 17 0 z "},"ą":{"ha":629,"x_min":49,"x_max":596,"o":"m 572 -212 q 433 -134 433 -212 q 482 0 433 -69 q 462 114 462 10 q 251 -9 366 -9 q 74 81 123 -9 q 49 175 49 126 q 61 259 49 223 q 99 324 73 296 q 159 374 125 352 q 241 413 192 395 q 462 471 332 445 q 420 614 462 578 q 314 646 384 646 q 167 581 229 646 q 130 533 140 554 l 66 576 q 324 722 142 722 q 533 596 488 722 q 551 473 551 545 l 551 100 q 559 47 551 81 q 572 0 566 13 l 549 0 q 496 -116 496 -65 q 575 -146 496 -140 q 596 -148 587 -148 l 596 -212 l 572 -212 m 155 252 q 138 171 138 221 q 174 94 138 121 q 252 67 209 67 q 328 80 295 67 q 388 113 361 93 q 462 180 437 151 l 462 395 q 309 354 333 361 q 155 252 190 315 z "},"Ć":{"ha":796,"x_min":54,"x_max":750,"o":"m 410 1134 l 610 1334 l 669 1275 l 454 1090 l 410 1134 m 79 301 q 72 328 79 301 q 60 407 66 354 q 54 526 54 460 q 66 665 54 592 q 106 807 78 738 q 175 926 134 876 q 279 1008 216 977 q 407 1039 342 1039 q 518 1022 472 1039 q 595 979 564 1006 q 652 921 626 953 q 692 856 677 888 q 731 754 724 789 l 735 738 l 735 737 l 632 709 q 605 822 621 787 q 571 881 588 858 q 534 919 555 903 q 419 955 486 955 q 155 515 155 955 q 210 207 155 326 q 419 73 273 73 q 605 167 538 73 q 651 314 651 233 l 750 298 q 738 262 747 291 q 721 214 728 233 q 699 164 714 196 q 668 112 684 133 q 628 65 653 91 q 574 25 602 40 q 433 -11 505 -11 q 312 5 361 -11 q 227 50 263 22 q 160 118 190 78 q 111 203 131 157 q 79 301 92 249 z "},"ć":{"ha":628,"x_min":51,"x_max":589,"o":"m 330 818 l 530 1018 l 589 959 l 374 774 l 330 818 m 51 353 q 339 723 51 723 q 459 689 410 723 q 523 628 507 655 q 560 551 550 582 l 488 519 q 474 559 487 532 q 446 602 460 585 q 402 633 431 619 q 339 647 374 647 q 140 359 140 647 q 193 144 140 219 q 339 68 245 68 q 446 118 404 68 q 496 194 484 161 l 503 209 l 573 175 q 495 56 549 109 q 429 12 471 32 q 339 -7 387 -7 q 121 87 191 -7 q 51 353 51 182 z "},"Ĉ":{"ha":796,"x_min":54,"x_max":750,"o":"m 269 1166 l 419 1316 l 570 1166 l 525 1122 l 419 1228 l 313 1122 l 269 1166 m 79 301 q 72 328 79 301 q 60 407 66 354 q 54 526 54 460 q 66 665 54 592 q 106 807 78 738 q 175 926 134 876 q 279 1008 216 977 q 407 1039 342 1039 q 518 1022 472 1039 q 595 979 564 1006 q 652 921 626 953 q 692 856 677 888 q 731 754 724 789 l 735 738 l 735 737 l 632 709 q 605 822 621 787 q 571 881 588 858 q 534 919 555 903 q 419 955 486 955 q 155 515 155 955 q 210 207 155 326 q 419 73 273 73 q 605 167 538 73 q 651 314 651 233 l 750 298 q 738 262 747 291 q 721 214 728 233 q 699 164 714 196 q 668 112 684 133 q 628 65 653 91 q 574 25 602 40 q 433 -11 505 -11 q 312 5 361 -11 q 227 50 263 22 q 160 118 190 78 q 111 203 131 157 q 79 301 92 249 z "},"ĉ":{"ha":628,"x_min":51,"x_max":573,"o":"m 189 850 l 339 1000 l 490 850 l 445 806 l 339 912 l 233 806 l 189 850 m 51 353 q 339 723 51 723 q 459 689 410 723 q 523 628 507 655 q 560 551 550 582 l 488 519 q 474 559 487 532 q 446 602 460 585 q 402 633 431 619 q 339 647 374 647 q 140 359 140 647 q 193 144 140 219 q 339 68 245 68 q 446 118 404 68 q 496 194 484 161 l 503 209 l 573 175 q 495 56 549 109 q 429 12 471 32 q 339 -7 387 -7 q 121 87 191 -7 q 51 353 51 182 z "},"Ċ":{"ha":796,"x_min":54,"x_max":750,"o":"m 368 1122 l 368 1223 l 470 1223 l 470 1122 l 368 1122 m 79 301 q 72 328 79 301 q 60 407 66 354 q 54 526 54 460 q 66 665 54 592 q 106 807 78 738 q 175 926 134 876 q 279 1008 216 977 q 407 1039 342 1039 q 518 1022 472 1039 q 595 979 564 1006 q 652 921 626 953 q 692 856 677 888 q 731 754 724 789 l 735 738 l 735 737 l 632 709 q 605 822 621 787 q 571 881 588 858 q 534 919 555 903 q 419 955 486 955 q 155 515 155 955 q 210 207 155 326 q 419 73 273 73 q 605 167 538 73 q 651 314 651 233 l 750 298 q 738 262 747 291 q 721 214 728 233 q 699 164 714 196 q 668 112 684 133 q 628 65 653 91 q 574 25 602 40 q 433 -11 505 -11 q 312 5 361 -11 q 227 50 263 22 q 160 118 190 78 q 111 203 131 157 q 79 301 92 249 z "},"ċ":{"ha":628,"x_min":51,"x_max":573,"o":"m 288 806 l 288 907 l 390 907 l 390 806 l 288 806 m 51 353 q 339 723 51 723 q 459 689 410 723 q 523 628 507 655 q 560 551 550 582 l 488 519 q 474 559 487 532 q 446 602 460 585 q 402 633 431 619 q 339 647 374 647 q 140 359 140 647 q 193 144 140 219 q 339 68 245 68 q 446 118 404 68 q 496 194 484 161 l 503 209 l 573 175 q 495 56 549 109 q 429 12 471 32 q 339 -7 387 -7 q 121 87 191 -7 q 51 353 51 182 z "},"Č":{"ha":796,"x_min":54,"x_max":750,"o":"m 269 1272 l 313 1316 l 419 1210 l 525 1316 l 570 1272 l 419 1122 l 269 1272 m 79 301 q 72 328 79 301 q 60 407 66 354 q 54 526 54 460 q 66 665 54 592 q 106 807 78 738 q 175 926 134 876 q 279 1008 216 977 q 407 1039 342 1039 q 518 1022 472 1039 q 595 979 564 1006 q 652 921 626 953 q 692 856 677 888 q 731 754 724 789 l 735 738 l 735 737 l 632 709 q 605 822 621 787 q 571 881 588 858 q 534 919 555 903 q 419 955 486 955 q 155 515 155 955 q 210 207 155 326 q 419 73 273 73 q 605 167 538 73 q 651 314 651 233 l 750 298 q 738 262 747 291 q 721 214 728 233 q 699 164 714 196 q 668 112 684 133 q 628 65 653 91 q 574 25 602 40 q 433 -11 505 -11 q 312 5 361 -11 q 227 50 263 22 q 160 118 190 78 q 111 203 131 157 q 79 301 92 249 z "},"č":{"ha":628,"x_min":51,"x_max":573,"o":"m 189 956 l 233 1000 l 339 894 l 445 1000 l 490 956 l 339 806 l 189 956 m 51 353 q 339 723 51 723 q 459 689 410 723 q 523 628 507 655 q 560 551 550 582 l 488 519 q 474 559 487 532 q 446 602 460 585 q 402 633 431 619 q 339 647 374 647 q 140 359 140 647 q 193 144 140 219 q 339 68 245 68 q 446 118 404 68 q 496 194 484 161 l 503 209 l 573 175 q 495 56 549 109 q 429 12 471 32 q 339 -7 387 -7 q 121 87 191 -7 q 51 353 51 182 z "},"Ď":{"ha":823,"x_min":92,"x_max":777,"o":"m 210 1272 l 254 1316 l 361 1210 l 467 1316 l 511 1272 l 361 1122 l 210 1272 m 92 0 l 92 1027 l 336 1027 q 753 725 677 1027 q 777 526 777 627 q 763 352 777 424 q 716 215 749 280 q 633 102 683 149 q 336 0 524 0 l 92 0 m 192 84 l 336 84 q 637 273 558 84 q 677 505 677 368 q 583 852 677 749 q 484 918 547 892 q 336 943 421 943 l 192 943 l 192 84 z "},"ď":{"ha":912,"x_min":51,"x_max":779,"o":"m 663 755 l 722 925 l 677 925 l 677 1027 l 779 1027 l 779 925 q 728 822 761 886 q 692 755 694 758 l 663 755 m 503 113 q 311 -7 434 -7 q 198 23 249 -7 q 116 105 147 54 q 51 346 51 212 q 83 531 51 446 q 178 670 115 616 q 311 723 240 723 q 436 686 382 723 q 503 622 490 650 l 503 1027 l 593 1027 l 593 99 q 598 46 593 79 q 610 0 604 13 l 520 0 q 503 113 503 8 m 140 346 q 183 149 140 226 q 325 68 228 68 q 431 105 389 68 q 503 189 464 134 l 503 545 q 342 647 431 647 q 140 346 140 647 z "},"Đ":{"ha":830,"x_min":6,"x_max":784,"o":"m 6 458 l 6 551 l 93 551 l 93 1027 l 338 1027 q 523 998 443 1027 q 652 921 603 969 q 731 804 701 873 q 784 505 784 684 q 636 102 784 238 q 338 0 527 0 l 93 0 l 93 458 l 6 458 m 193 84 l 338 84 q 600 201 511 84 q 684 505 684 313 q 534 895 684 800 q 338 943 458 943 l 193 943 l 193 551 l 413 551 l 413 458 l 193 458 l 193 84 z "},"đ":{"ha":667,"x_min":51,"x_max":652,"o":"m 140 346 q 183 149 140 226 q 325 68 228 68 q 431 105 389 68 q 503 189 464 134 l 503 545 q 342 647 431 647 q 140 346 140 647 m 503 113 q 311 -7 434 -7 q 198 23 249 -7 q 116 105 147 54 q 51 346 51 212 q 83 531 51 446 q 178 670 115 616 q 311 723 240 723 q 436 686 382 723 q 503 622 490 650 l 503 791 l 300 791 l 300 867 l 503 867 l 503 1027 l 593 1027 l 593 867 l 652 867 l 652 791 l 593 791 l 593 99 q 598 46 593 79 q 610 0 604 13 l 520 0 q 503 113 503 8 z "},"Ē":{"ha":720,"x_min":92,"x_max":674,"o":"m 191 1122 l 191 1184 l 549 1184 l 549 1122 l 191 1122 m 92 0 l 92 1027 l 648 1027 l 648 943 l 192 943 l 192 582 l 519 582 l 519 498 l 192 498 l 192 90 l 674 90 l 674 0 l 92 0 z "},"ē":{"ha":627,"x_min":51,"x_max":572,"o":"m 144 806 l 144 868 l 501 868 l 501 806 l 144 806 m 119 100 q 102 125 119 100 q 68 211 85 150 q 51 339 51 272 q 60 461 51 406 q 85 555 70 517 q 123 624 101 594 q 170 673 146 654 q 221 703 193 691 q 313 723 269 723 q 387 715 356 723 q 452 683 417 707 q 512 620 487 659 q 570 348 570 528 l 140 348 q 232 101 140 167 q 333 68 277 68 q 511 198 437 68 l 572 155 q 503 67 546 106 q 342 -7 422 -7 q 208 22 263 -7 q 119 100 152 51 m 144 424 l 481 424 q 434 591 481 525 q 322 647 395 647 q 163 537 203 647 q 144 424 144 486 z "},"Ĕ":{"ha":720,"x_min":92,"x_max":674,"o":"m 509 1213 q 370 1122 465 1122 q 230 1213 274 1122 l 277 1240 q 315 1194 289 1212 q 370 1175 342 1175 q 424 1194 397 1175 q 463 1240 450 1212 l 509 1213 m 92 0 l 92 1027 l 648 1027 l 648 943 l 192 943 l 192 582 l 519 582 l 519 498 l 192 498 l 192 90 l 674 90 l 674 0 l 92 0 z "},"ĕ":{"ha":627,"x_min":51,"x_max":572,"o":"m 462 897 q 322 806 418 806 q 182 897 227 806 l 229 924 q 268 878 241 896 q 322 859 294 859 q 376 878 350 859 q 415 924 403 896 l 462 897 m 119 100 q 102 125 119 100 q 68 211 85 150 q 51 339 51 272 q 60 461 51 406 q 85 555 70 517 q 123 624 101 594 q 170 673 146 654 q 221 703 193 691 q 313 723 269 723 q 387 715 356 723 q 452 683 417 707 q 512 620 487 659 q 570 348 570 528 l 140 348 q 232 101 140 167 q 333 68 277 68 q 511 198 437 68 l 572 155 q 503 67 546 106 q 342 -7 422 -7 q 208 22 263 -7 q 119 100 152 51 m 144 424 l 481 424 q 434 591 481 525 q 322 647 395 647 q 163 537 203 647 q 144 424 144 486 z "},"Ė":{"ha":720,"x_min":92,"x_max":674,"o":"m 319 1122 l 319 1223 l 421 1223 l 421 1122 l 319 1122 m 92 0 l 92 1027 l 648 1027 l 648 943 l 192 943 l 192 582 l 519 582 l 519 498 l 192 498 l 192 90 l 674 90 l 674 0 l 92 0 z "},"ė":{"ha":627,"x_min":51,"x_max":572,"o":"m 271 806 l 271 907 l 373 907 l 373 806 l 271 806 m 119 100 q 102 125 119 100 q 68 211 85 150 q 51 339 51 272 q 60 461 51 406 q 85 555 70 517 q 123 624 101 594 q 170 673 146 654 q 221 703 193 691 q 313 723 269 723 q 387 715 356 723 q 452 683 417 707 q 512 620 487 659 q 570 348 570 528 l 140 348 q 232 101 140 167 q 333 68 277 68 q 511 198 437 68 l 572 155 q 503 67 546 106 q 342 -7 422 -7 q 208 22 263 -7 q 119 100 152 51 m 144 424 l 481 424 q 434 591 481 525 q 322 647 395 647 q 163 537 203 647 q 144 424 144 486 z "},"Ę":{"ha":720,"x_min":92,"x_max":674,"o":"m 650 -205 q 511 -127 511 -205 q 555 0 511 -66 l 92 0 l 92 1027 l 648 1027 l 648 943 l 192 943 l 192 582 l 519 582 l 519 498 l 192 498 l 192 90 l 674 90 l 674 0 l 621 0 q 574 -109 574 -61 q 652 -140 574 -134 q 674 -141 665 -141 l 674 -205 l 650 -205 z "},"ę":{"ha":627,"x_min":51,"x_max":572,"o":"m 389 -213 q 250 -135 250 -213 q 297 -5 250 -72 q 208 22 246 1 q 119 100 152 51 q 68 211 85 150 q 51 339 51 272 q 60 461 51 406 q 85 555 70 517 q 123 624 101 594 q 170 673 146 654 q 221 703 193 691 q 313 723 269 723 q 387 715 356 723 q 452 683 417 707 q 512 620 487 659 q 570 348 570 528 l 140 348 q 232 101 140 167 q 333 68 277 68 q 511 198 437 68 l 572 155 q 503 67 546 106 q 361 -6 432 1 q 313 -117 313 -68 q 392 -148 313 -141 q 414 -149 405 -149 l 414 -212 l 389 -213 m 144 424 l 481 424 q 434 591 481 525 q 322 647 395 647 q 163 537 203 647 q 144 424 144 486 z "},"Ě":{"ha":720,"x_min":92,"x_max":674,"o":"m 220 1272 l 264 1316 l 370 1210 l 476 1316 l 521 1272 l 370 1122 l 220 1272 m 92 0 l 92 1027 l 648 1027 l 648 943 l 192 943 l 192 582 l 519 582 l 519 498 l 192 498 l 192 90 l 674 90 l 674 0 l 92 0 z "},"ě":{"ha":627,"x_min":51,"x_max":572,"o":"m 172 956 l 216 1000 l 322 894 l 428 1000 l 473 956 l 322 806 l 172 956 m 119 100 q 102 125 119 100 q 68 211 85 150 q 51 339 51 272 q 60 461 51 406 q 85 555 70 517 q 123 624 101 594 q 170 673 146 654 q 221 703 193 691 q 313 723 269 723 q 387 715 356 723 q 452 683 417 707 q 512 620 487 659 q 570 348 570 528 l 140 348 q 232 101 140 167 q 333 68 277 68 q 511 198 437 68 l 572 155 q 503 67 546 106 q 342 -7 422 -7 q 208 22 263 -7 q 119 100 152 51 m 144 424 l 481 424 q 434 591 481 525 q 322 647 395 647 q 163 537 203 647 q 144 424 144 486 z "},"Ĝ":{"ha":845,"x_min":54,"x_max":758,"o":"m 281 1166 l 431 1316 l 582 1166 l 537 1122 l 431 1228 l 325 1122 l 281 1166 m 108 224 q 94 259 108 224 q 67 368 79 294 q 54 513 54 441 q 64 646 54 585 q 92 766 73 708 q 143 874 111 825 q 214 960 174 923 q 431 1039 301 1039 q 611 981 527 1039 q 754 745 709 914 l 656 721 q 654 734 655 726 q 647 767 653 743 q 631 813 640 791 q 605 862 623 836 q 564 909 587 889 q 434 955 513 955 q 300 918 355 955 q 214 818 244 882 q 155 521 155 696 q 209 209 155 312 q 433 73 280 73 q 654 293 624 73 q 660 401 660 340 l 431 401 l 431 485 l 758 485 l 758 0 l 677 0 l 677 130 q 515 0 600 24 q 414 -11 477 -11 q 287 20 352 -11 q 180 103 222 52 q 108 224 137 155 z "},"ĝ":{"ha":682,"x_min":28,"x_max":660,"o":"m 200 845 l 351 996 l 501 845 l 456 802 l 351 907 l 244 801 l 200 845 m 129 -260 q 56 -202 83 -239 q 28 -127 28 -164 q 39 -71 28 -91 q 70 -34 49 -50 q 105 -8 90 -18 q 147 15 121 2 q 179 32 174 28 q 95 73 123 43 q 66 126 66 102 q 76 170 66 150 q 103 206 85 189 q 153 245 133 233 q 174 258 172 257 q 103 349 134 293 q 72 472 72 405 q 109 597 72 538 q 208 690 146 656 q 328 723 270 723 q 422 709 387 723 q 498 667 458 694 q 583 715 550 709 q 660 724 625 724 l 660 643 l 659 643 q 543 622 543 643 q 586 528 577 558 q 594 467 594 498 q 524 282 594 358 q 342 207 454 207 q 221 233 283 207 q 197 214 216 228 q 156 157 156 186 q 184 115 156 126 q 238 101 206 106 q 284 95 271 96 q 328 92 297 93 q 509 66 404 92 q 616 4 574 51 q 658 -108 658 -43 q 333 -302 658 -302 q 129 -260 218 -302 m 118 -115 q 190 -205 118 -181 q 306 -226 252 -226 q 377 -225 359 -226 q 422 -223 395 -225 q 468 -216 450 -220 q 507 -203 486 -212 q 540 -182 528 -194 q 568 -113 568 -153 q 541 -48 568 -72 q 472 -14 514 -24 q 390 1 431 -3 q 312 7 349 5 q 268 11 275 9 q 174 -29 195 -16 q 118 -115 118 -62 m 212 597 q 187 572 212 597 q 161 467 161 547 q 209 335 161 388 q 338 283 256 283 q 462 336 420 283 q 505 467 505 390 q 463 595 505 543 q 342 647 421 647 q 212 597 262 647 z "},"Ğ":{"ha":845,"x_min":54,"x_max":758,"o":"m 571 1213 q 431 1122 527 1122 q 292 1213 336 1122 l 338 1240 q 377 1194 351 1212 q 431 1175 404 1175 q 486 1194 459 1175 q 524 1240 512 1212 l 571 1213 m 108 224 q 94 259 108 224 q 67 368 79 294 q 54 513 54 441 q 64 646 54 585 q 92 766 73 708 q 143 874 111 825 q 214 960 174 923 q 431 1039 301 1039 q 611 981 527 1039 q 754 745 709 914 l 656 721 q 654 734 655 726 q 647 767 653 743 q 631 813 640 791 q 605 862 623 836 q 564 909 587 889 q 434 955 513 955 q 300 918 355 955 q 214 818 244 882 q 155 521 155 696 q 209 209 155 312 q 433 73 280 73 q 654 293 624 73 q 660 401 660 340 l 431 401 l 431 485 l 758 485 l 758 0 l 677 0 l 677 130 q 515 0 600 24 q 414 -11 477 -11 q 287 20 352 -11 q 180 103 222 52 q 108 224 137 155 z "},"ğ":{"ha":682,"x_min":28,"x_max":660,"o":"m 486 899 q 347 807 442 807 q 207 899 251 807 l 254 926 q 292 879 266 897 q 347 861 319 861 q 401 879 374 861 q 439 926 427 897 l 486 899 m 129 -260 q 56 -202 83 -239 q 28 -127 28 -164 q 39 -71 28 -91 q 70 -34 49 -50 q 105 -8 90 -18 q 147 15 121 2 q 179 32 174 28 q 95 73 123 43 q 66 126 66 102 q 76 170 66 150 q 103 206 85 189 q 153 245 133 233 q 174 258 172 257 q 103 349 134 293 q 72 472 72 405 q 109 597 72 538 q 208 690 146 656 q 328 723 270 723 q 422 709 387 723 q 498 667 458 694 q 583 715 550 709 q 660 724 625 724 l 660 643 l 659 643 q 543 622 543 643 q 586 528 577 558 q 594 467 594 498 q 524 282 594 358 q 342 207 454 207 q 221 233 283 207 q 197 214 216 228 q 156 157 156 186 q 184 115 156 126 q 238 101 206 106 q 284 95 271 96 q 328 92 297 93 q 509 66 404 92 q 616 4 574 51 q 658 -108 658 -43 q 333 -302 658 -302 q 129 -260 218 -302 m 118 -115 q 190 -205 118 -181 q 306 -226 252 -226 q 377 -225 359 -226 q 422 -223 395 -225 q 468 -216 450 -220 q 507 -203 486 -212 q 540 -182 528 -194 q 568 -113 568 -153 q 541 -48 568 -72 q 472 -14 514 -24 q 390 1 431 -3 q 312 7 349 5 q 268 11 275 9 q 174 -29 195 -16 q 118 -115 118 -62 m 212 597 q 187 572 212 597 q 161 467 161 547 q 209 335 161 388 q 338 283 256 283 q 462 336 420 283 q 505 467 505 390 q 463 595 505 543 q 342 647 421 647 q 212 597 262 647 z "},"Ġ":{"ha":845,"x_min":54,"x_max":758,"o":"m 380 1122 l 380 1223 l 482 1223 l 482 1122 l 380 1122 m 108 224 q 94 259 108 224 q 67 368 79 294 q 54 513 54 441 q 64 646 54 585 q 92 766 73 708 q 143 874 111 825 q 214 960 174 923 q 431 1039 301 1039 q 611 981 527 1039 q 754 745 709 914 l 656 721 q 654 734 655 726 q 647 767 653 743 q 631 813 640 791 q 605 862 623 836 q 564 909 587 889 q 434 955 513 955 q 300 918 355 955 q 214 818 244 882 q 155 521 155 696 q 209 209 155 312 q 433 73 280 73 q 654 293 624 73 q 660 401 660 340 l 431 401 l 431 485 l 758 485 l 758 0 l 677 0 l 677 130 q 515 0 600 24 q 414 -11 477 -11 q 287 20 352 -11 q 180 103 222 52 q 108 224 137 155 z "},"ġ":{"ha":682,"x_min":28,"x_max":660,"o":"m 294 807 l 294 909 l 395 909 l 395 807 l 294 807 m 129 -260 q 56 -202 83 -239 q 28 -127 28 -164 q 39 -71 28 -91 q 70 -34 49 -50 q 105 -8 90 -18 q 147 15 121 2 q 179 32 174 28 q 95 73 123 43 q 66 126 66 102 q 76 170 66 150 q 103 206 85 189 q 153 245 133 233 q 174 258 172 257 q 103 349 134 293 q 72 472 72 405 q 109 597 72 538 q 208 690 146 656 q 328 723 270 723 q 422 709 387 723 q 498 667 458 694 q 583 715 550 709 q 660 724 625 724 l 660 643 l 659 643 q 543 622 543 643 q 586 528 577 558 q 594 467 594 498 q 524 282 594 358 q 342 207 454 207 q 221 233 283 207 q 197 214 216 228 q 156 157 156 186 q 184 115 156 126 q 238 101 206 106 q 284 95 271 96 q 328 92 297 93 q 509 66 404 92 q 616 4 574 51 q 658 -108 658 -43 q 333 -302 658 -302 q 129 -260 218 -302 m 118 -115 q 190 -205 118 -181 q 306 -226 252 -226 q 377 -225 359 -226 q 422 -223 395 -225 q 468 -216 450 -220 q 507 -203 486 -212 q 540 -182 528 -194 q 568 -113 568 -153 q 541 -48 568 -72 q 472 -14 514 -24 q 390 1 431 -3 q 312 7 349 5 q 268 11 275 9 q 174 -29 195 -16 q 118 -115 118 -62 m 212 597 q 187 572 212 597 q 161 467 161 547 q 209 335 161 388 q 338 283 256 283 q 462 336 420 283 q 505 467 505 390 q 463 595 505 543 q 342 647 421 647 q 212 597 262 647 z "},"Ģ":{"ha":845,"x_min":54,"x_max":758,"o":"m 373 -365 l 432 -195 l 388 -195 l 388 -94 l 490 -94 l 490 -195 q 438 -298 471 -234 q 403 -365 405 -363 l 373 -365 m 108 224 q 94 259 108 224 q 67 368 79 294 q 54 513 54 441 q 64 646 54 585 q 92 766 73 708 q 143 874 111 825 q 214 960 174 923 q 431 1039 301 1039 q 611 981 527 1039 q 754 745 709 914 l 656 721 q 654 734 655 726 q 647 767 653 743 q 631 813 640 791 q 605 862 623 836 q 564 909 587 889 q 434 955 513 955 q 300 918 355 955 q 214 818 244 882 q 155 521 155 696 q 209 209 155 312 q 433 73 280 73 q 654 293 624 73 q 660 401 660 340 l 431 401 l 431 485 l 758 485 l 758 0 l 677 0 l 677 130 q 515 0 600 24 q 414 -11 477 -11 q 287 20 352 -11 q 180 103 222 52 q 108 224 137 155 z "},"ģ":{"ha":682,"x_min":28,"x_max":660,"o":"m 322 756 l 381 926 l 337 926 l 337 1027 l 439 1027 l 439 926 q 387 823 420 887 q 352 756 354 758 l 322 756 m 129 -260 q 56 -202 83 -239 q 28 -127 28 -164 q 39 -71 28 -91 q 70 -34 49 -50 q 105 -8 90 -18 q 147 15 121 2 q 179 32 174 28 q 95 73 123 43 q 66 126 66 102 q 76 170 66 150 q 103 206 85 189 q 153 245 133 233 q 174 258 172 257 q 103 349 134 293 q 72 472 72 405 q 109 597 72 538 q 208 690 146 656 q 328 723 270 723 q 422 709 387 723 q 498 667 458 694 q 583 715 550 709 q 660 724 625 724 l 660 643 l 659 643 q 543 622 543 643 q 586 528 577 558 q 594 467 594 498 q 524 282 594 358 q 342 207 454 207 q 221 233 283 207 q 197 214 216 228 q 156 157 156 186 q 184 115 156 126 q 238 101 206 106 q 284 95 271 96 q 328 92 297 93 q 509 66 404 92 q 616 4 574 51 q 658 -108 658 -43 q 333 -302 658 -302 q 129 -260 218 -302 m 118 -115 q 190 -205 118 -181 q 306 -226 252 -226 q 377 -225 359 -226 q 422 -223 395 -225 q 468 -216 450 -220 q 507 -203 486 -212 q 540 -182 528 -194 q 568 -113 568 -153 q 541 -48 568 -72 q 472 -14 514 -24 q 390 1 431 -3 q 312 7 349 5 q 268 11 275 9 q 174 -29 195 -16 q 118 -115 118 -62 m 212 597 q 187 572 212 597 q 161 467 161 547 q 209 335 161 388 q 338 283 256 283 q 462 336 420 283 q 505 467 505 390 q 463 595 505 543 q 342 647 421 647 q 212 597 262 647 z "},"Ĥ":{"ha":850,"x_min":92,"x_max":759,"o":"m 275 1166 l 425 1316 l 576 1166 l 531 1122 l 425 1228 l 319 1122 l 275 1166 m 92 0 l 92 1027 l 192 1027 l 192 582 l 659 582 l 659 1027 l 759 1027 l 759 0 l 659 0 l 659 498 l 192 498 l 192 0 l 92 0 z "},"ĥ":{"ha":664,"x_min":87,"x_max":589,"o":"m 188 1154 l 338 1305 l 489 1154 l 444 1111 l 338 1217 l 232 1110 l 188 1154 m 87 0 l 87 1027 l 177 1027 l 177 598 q 342 713 277 694 q 411 723 375 723 q 539 675 489 723 q 589 533 589 628 l 589 0 l 500 0 l 500 533 q 464 615 500 584 q 385 647 427 647 q 177 530 285 647 l 177 0 l 87 0 z "},"Ħ":{"ha":850,"x_min":58,"x_max":793,"o":"m 58 712 l 58 796 l 92 796 l 92 1027 l 192 1027 l 192 796 l 659 796 l 659 1027 l 759 1027 l 759 796 l 793 796 l 793 712 l 759 712 l 759 0 l 659 0 l 659 498 l 192 498 l 192 0 l 92 0 l 92 712 l 58 712 m 659 712 l 192 712 l 192 582 l 659 582 l 659 712 z "},"ħ":{"ha":664,"x_min":15,"x_max":589,"o":"m 15 786 l 15 862 l 87 862 l 87 1027 l 177 1027 l 177 862 l 370 862 l 370 786 l 177 786 l 177 598 q 342 713 277 694 q 411 723 375 723 q 539 675 489 723 q 589 533 589 628 l 589 0 l 500 0 l 500 533 q 464 615 500 584 q 385 647 427 647 q 177 530 285 647 l 177 0 l 87 0 l 87 786 l 15 786 z "},"Ĩ":{"ha":283,"x_min":-65,"x_max":348,"o":"m 348 1225 q 298 1148 331 1177 q 228 1120 265 1120 q 162 1135 191 1120 q 110 1166 134 1151 q 62 1181 85 1181 l 55 1181 q 16 1164 33 1179 q -9 1124 -1 1148 l -65 1152 q -18 1227 -48 1200 q 52 1257 18 1257 q 110 1248 86 1257 q 148 1227 133 1238 q 221 1196 186 1196 l 228 1196 q 267 1213 250 1198 q 292 1253 283 1229 l 348 1225 m 92 0 l 92 1027 l 192 1027 l 192 0 l 92 0 z "},"ĩ":{"ha":283,"x_min":-75,"x_max":338,"o":"m 338 909 q 289 832 321 861 q 218 804 256 804 q 153 819 181 804 q 100 850 125 835 q 52 865 75 865 l 45 865 q 7 848 24 863 q -18 808 -10 832 l -75 836 q -27 911 -58 884 q 42 941 8 941 q 100 932 77 941 q 138 911 123 922 q 212 880 177 880 l 218 880 q 257 897 240 882 q 282 937 274 913 l 338 909 m 87 0 l 87 715 l 177 715 l 177 0 l 87 0 z "},"Ī":{"ha":283,"x_min":-37,"x_max":321,"o":"m -37 1122 l -37 1184 l 321 1184 l 321 1122 l -37 1122 m 92 0 l 92 1027 l 192 1027 l 192 0 l 92 0 z "},"ī":{"ha":283,"x_min":-46,"x_max":311,"o":"m -46 806 l -46 868 l 311 868 l 311 806 l -46 806 m 87 0 l 87 715 l 177 715 l 177 0 l 87 0 z "},"Ĭ":{"ha":283,"x_min":2,"x_max":281,"o":"m 281 1213 q 142 1122 237 1122 q 2 1213 46 1122 l 49 1240 q 87 1194 61 1212 q 142 1175 114 1175 q 196 1194 170 1175 q 235 1240 222 1212 l 281 1213 m 92 0 l 92 1027 l 192 1027 l 192 0 l 92 0 z "},"ĭ":{"ha":283,"x_min":-7,"x_max":272,"o":"m 272 897 q 132 806 228 806 q -7 897 37 806 l 39 924 q 78 878 52 896 q 132 859 104 859 q 186 878 160 859 q 225 924 213 896 l 272 897 m 87 0 l 87 715 l 177 715 l 177 0 l 87 0 z "},"Į":{"ha":283,"x_min":59,"x_max":222,"o":"m 198 -205 q 59 -127 59 -205 q 109 7 59 -62 l 175 7 q 122 -109 122 -58 q 201 -140 122 -134 q 222 -141 214 -141 l 222 -205 l 198 -205 m 92 0 l 92 1027 l 192 1027 l 192 0 l 92 0 z "},"į":{"ha":283,"x_min":50,"x_max":213,"o":"m 189 -205 q 50 -127 50 -205 q 99 7 50 -62 l 165 7 q 113 -109 113 -58 q 191 -140 113 -134 q 213 -141 204 -141 l 213 -205 l 189 -205 m 81 806 l 81 907 l 183 907 l 183 806 l 81 806 m 87 0 l 87 715 l 177 715 l 177 0 l 87 0 z "},"İ":{"ha":283,"x_min":91,"x_max":193,"o":"m 91 1122 l 91 1223 l 193 1223 l 193 1122 l 91 1122 m 92 0 l 92 1027 l 192 1027 l 192 0 l 92 0 z "},"ı":{"ha":283,"x_min":87,"x_max":177,"o":"m 87 0 l 87 715 l 177 715 l 177 0 l 87 0 z "},"Ĳ":{"ha":891,"x_min":92,"x_max":800,"o":"m 300 165 l 370 201 q 430 118 387 158 q 479 87 448 101 q 545 73 511 73 q 664 130 628 73 q 699 291 699 186 l 699 1027 l 800 1027 l 800 291 q 652 8 800 70 q 549 -11 606 -11 q 447 7 492 -11 q 377 48 402 25 q 333 100 352 71 q 300 165 306 141 m 92 0 l 92 1027 l 192 1027 l 192 0 l 92 0 z "},"ĳ":{"ha":497,"x_min":81,"x_max":429,"o":"m 327 806 l 327 907 l 429 907 l 429 806 l 327 806 m 209 -153 q 304 -130 275 -153 q 333 -20 333 -106 l 333 715 l 422 715 l 422 0 q 394 -161 422 -116 q 374 -190 383 -178 q 349 -209 366 -201 q 321 -220 332 -216 q 290 -226 311 -224 q 239 -229 261 -229 l 214 -229 l 209 -153 m 81 806 l 81 907 l 183 907 l 183 806 l 81 806 m 87 0 l 87 715 l 177 715 l 177 0 l 87 0 z "},"Ĵ":{"ha":608,"x_min":17,"x_max":616,"o":"m 315 1166 l 466 1316 l 616 1166 l 572 1122 l 466 1228 l 359 1122 l 315 1166 m 17 165 l 87 201 q 146 118 103 158 q 196 87 165 101 q 262 73 227 73 q 380 130 345 73 q 416 291 416 186 l 416 1027 l 516 1027 l 516 291 q 369 8 516 70 q 265 -11 322 -11 q 163 7 208 -11 q 94 48 119 25 q 50 100 68 71 q 17 165 22 141 z "},"ĵ":{"ha":245,"x_min":-43,"x_max":274,"o":"m -27 850 l 123 1000 l 274 850 l 229 806 l 123 912 l 17 806 l -27 850 m -43 -153 q 52 -130 23 -153 q 81 -20 81 -106 l 81 715 l 171 715 l 171 0 q 142 -161 171 -116 q 123 -190 132 -178 q 97 -209 114 -201 q 70 -220 81 -216 q 38 -226 59 -224 q -13 -229 9 -229 l -37 -229 l -43 -153 z "},"Ķ":{"ha":773,"x_min":92,"x_max":756,"o":"m 366 -354 l 425 -184 l 380 -184 l 380 -83 l 482 -83 l 482 -184 q 431 -288 464 -223 q 395 -354 397 -352 l 366 -354 m 92 0 l 92 1027 l 193 1027 l 193 469 l 611 1027 l 719 1027 l 425 642 l 756 0 l 644 0 l 361 557 l 193 336 l 193 0 l 92 0 z "},"ķ":{"ha":618,"x_min":88,"x_max":601,"o":"m 286 -354 l 345 -184 l 301 -184 l 301 -83 l 403 -83 l 403 -184 q 351 -288 385 -223 q 316 -354 318 -352 l 286 -354 m 88 0 l 88 1027 l 178 1027 l 178 361 l 452 715 l 559 715 l 372 472 l 601 0 l 502 0 l 311 395 l 178 230 l 178 0 l 88 0 z "},"ĸ":{"ha":564,"x_min":81,"x_max":547,"o":"m 81 1 l 81 715 l 171 715 l 171 372 l 430 715 l 521 715 l 315 446 l 547 0 l 450 0 l 260 375 l 171 256 l 171 1 l 81 1 z "},"Ĺ":{"ha":665,"x_min":92,"x_max":648,"o":"m 132 1134 l 332 1334 l 391 1275 l 177 1090 l 132 1134 m 92 0 l 92 1027 l 192 1027 l 192 96 l 648 96 l 648 0 l 92 0 z "},"ĺ":{"ha":283,"x_min":87,"x_max":382,"o":"m 123 1122 l 323 1322 l 382 1263 l 168 1078 l 123 1122 m 87 -1 l 87 1027 l 177 1027 l 177 -1 l 87 -1 z "},"Ļ":{"ha":665,"x_min":92,"x_max":648,"o":"m 311 -354 l 370 -184 l 326 -184 l 326 -83 l 428 -83 l 428 -184 q 376 -288 410 -223 q 341 -354 343 -352 l 311 -354 m 92 0 l 92 1027 l 192 1027 l 192 96 l 648 96 l 648 0 l 92 0 z "},"ļ":{"ha":283,"x_min":74,"x_max":191,"o":"m 74 -355 l 133 -186 l 89 -186 l 89 -84 l 191 -84 l 191 -186 q 139 -289 172 -224 q 104 -355 106 -353 l 74 -355 m 87 -1 l 87 1027 l 177 1027 l 177 -1 l 87 -1 z "},"Ľ":{"ha":665,"x_min":92,"x_max":648,"o":"m 281 741 l 340 911 l 296 911 l 296 1013 l 398 1013 l 398 911 q 347 808 380 872 q 311 741 313 743 l 281 741 m 92 0 l 92 1027 l 192 1027 l 192 96 l 648 96 l 648 0 l 92 0 z "},"ľ":{"ha":420,"x_min":87,"x_max":373,"o":"m 256 756 l 315 926 l 271 926 l 271 1027 l 373 1027 l 373 926 q 321 823 355 887 q 286 756 288 758 l 256 756 m 87 -1 l 87 1027 l 177 1027 l 177 -1 l 87 -1 z "},"Ŀ":{"ha":665,"x_min":92,"x_max":648,"o":"m 319 469 l 319 570 l 420 570 l 420 469 l 319 469 m 92 0 l 92 1027 l 192 1027 l 192 96 l 648 96 l 648 0 l 92 0 z "},"ŀ":{"ha":477,"x_min":87,"x_max":430,"o":"m 328 533 l 328 635 l 430 635 l 430 533 l 328 533 m 87 -1 l 87 1027 l 177 1027 l 177 -1 l 87 -1 z "},"Ł":{"ha":665,"x_min":-106,"x_max":648,"o":"m -106 220 l -106 325 l 92 522 l 92 1027 l 192 1027 l 192 623 l 399 829 l 399 724 l 192 517 l 192 96 l 648 96 l 648 0 l 92 0 l 92 417 l -106 220 z "},"ł":{"ha":445,"x_min":12,"x_max":433,"o":"m 12 255 l 12 359 l 188 535 l 188 1027 l 277 1027 l 277 625 l 433 780 l 433 675 l 277 519 l 277 -1 l 188 -1 l 188 431 l 12 255 z "},"Ń":{"ha":848,"x_min":87,"x_max":762,"o":"m 415 1134 l 615 1334 l 674 1275 l 460 1090 l 415 1134 m 87 0 l 87 1027 l 247 1027 l 661 245 l 661 1027 l 762 1027 l 762 0 l 675 0 l 187 928 l 187 0 l 87 0 z "},"ń":{"ha":658,"x_min":81,"x_max":583,"o":"m 323 818 l 523 1018 l 582 959 l 368 774 l 323 818 m 81 0 l 81 715 l 171 715 l 171 598 q 284 690 231 657 q 410 723 338 723 q 533 675 483 723 q 583 533 583 628 l 583 0 l 494 0 l 494 533 q 457 615 494 584 q 379 647 421 647 q 171 530 279 647 l 171 0 l 81 0 z "},"Ņ":{"ha":848,"x_min":87,"x_max":762,"o":"m 366 -354 l 425 -184 l 381 -184 l 381 -83 l 483 -83 l 483 -184 q 431 -288 465 -223 q 396 -354 398 -352 l 366 -354 m 87 0 l 87 1027 l 247 1027 l 661 245 l 661 1027 l 762 1027 l 762 0 l 675 0 l 187 928 l 187 0 l 87 0 z "},"ņ":{"ha":658,"x_min":81,"x_max":583,"o":"m 274 -354 l 333 -184 l 289 -184 l 289 -83 l 391 -83 l 391 -184 q 339 -288 372 -223 q 304 -354 306 -352 l 274 -354 m 81 0 l 81 715 l 171 715 l 171 598 q 284 690 231 657 q 410 723 338 723 q 533 675 483 723 q 583 533 583 628 l 583 0 l 494 0 l 494 533 q 457 615 494 584 q 379 647 421 647 q 171 530 279 647 l 171 0 l 81 0 z "},"Ň":{"ha":848,"x_min":87,"x_max":762,"o":"m 274 1272 l 318 1316 l 425 1210 l 530 1316 l 575 1272 l 425 1122 l 274 1272 m 87 0 l 87 1027 l 247 1027 l 661 245 l 661 1027 l 762 1027 l 762 0 l 675 0 l 187 928 l 187 0 l 87 0 z "},"ň":{"ha":658,"x_min":81,"x_max":583,"o":"m 182 956 l 226 1000 l 332 894 l 438 1000 l 483 956 l 332 806 l 182 956 m 81 0 l 81 715 l 171 715 l 171 598 q 284 690 231 657 q 410 723 338 723 q 533 675 483 723 q 583 533 583 628 l 583 0 l 494 0 l 494 533 q 457 615 494 584 q 379 647 421 647 q 171 530 279 647 l 171 0 l 81 0 z "},"ŉ":{"ha":764,"x_min":47,"x_max":690,"o":"m 188 0 l 188 715 l 277 715 l 277 598 q 391 690 337 657 q 517 723 444 723 q 640 675 589 723 q 690 533 690 628 l 690 0 l 600 0 l 600 533 q 564 615 600 584 q 486 647 528 647 q 277 530 385 647 l 277 0 l 188 0 m 47 709 l 106 879 l 62 879 l 62 981 l 164 981 l 164 879 q 113 776 146 840 q 77 709 79 711 l 47 709 z "},"Ŋ":{"ha":848,"x_min":87,"x_max":762,"o":"m 87 0 l 87 1027 l 247 1027 l 661 245 l 661 1027 l 762 1027 l 762 0 q 715 -186 762 -144 q 685 -211 698 -203 q 646 -224 672 -220 q 583 -229 611 -229 l 553 -229 l 548 -153 q 643 -130 614 -153 q 672 -7 672 -106 l 672 6 l 187 928 l 187 0 l 87 0 z "},"ŋ":{"ha":658,"x_min":81,"x_max":583,"o":"m 81 0 l 81 715 l 171 715 l 171 598 q 284 690 231 657 q 410 723 338 723 q 533 675 483 723 q 583 533 583 628 l 583 0 q 555 -161 583 -116 q 535 -190 544 -178 q 510 -209 526 -201 q 482 -220 493 -216 q 450 -226 471 -224 q 399 -229 422 -229 l 375 -229 l 370 -153 q 465 -130 435 -153 q 494 0 494 -107 l 494 533 q 457 615 494 584 q 379 647 421 647 q 171 530 279 647 l 171 0 l 81 0 z "},"Ō":{"ha":857,"x_min":54,"x_max":802,"o":"m 256 1122 l 256 1184 l 614 1184 l 614 1122 l 256 1122 m 114 218 q 98 252 114 218 q 68 359 83 286 q 54 511 54 433 q 67 663 54 589 q 109 806 80 736 q 181 926 138 875 q 290 1008 224 977 q 433 1039 355 1039 q 574 1007 511 1039 q 679 924 637 976 q 749 803 720 872 q 802 510 802 673 q 648 68 802 212 q 435 -11 565 -11 q 296 19 359 -11 q 188 100 232 50 q 114 218 144 151 m 193 766 q 183 738 193 766 q 163 645 172 709 q 155 501 155 582 q 171 344 155 420 q 219 206 186 268 q 306 109 251 144 q 428 73 361 73 q 543 100 495 73 q 620 170 591 127 q 668 271 649 212 q 702 510 702 376 q 620 856 702 733 q 543 927 591 900 q 435 955 496 955 q 325 930 374 955 q 245 865 277 906 q 193 766 214 824 z "},"ō":{"ha":659,"x_min":51,"x_max":608,"o":"m 152 806 l 152 868 l 509 868 l 509 806 l 152 806 m 51 362 q 51 444 51 362 q 124 625 51 526 q 330 723 198 723 q 535 624 463 723 q 608 359 608 525 q 535 93 608 194 q 330 -8 461 -8 q 123 96 197 -8 q 51 362 51 199 m 140 358 q 252 85 140 143 q 330 68 286 68 q 409 85 374 68 q 463 131 443 103 q 496 198 484 159 q 519 357 519 267 q 330 647 519 647 q 140 358 140 647 z "},"Ŏ":{"ha":857,"x_min":54,"x_max":802,"o":"m 574 1213 q 435 1122 530 1122 q 295 1213 339 1122 l 342 1240 q 380 1194 354 1212 q 435 1175 407 1175 q 489 1194 463 1175 q 528 1240 515 1212 l 574 1213 m 114 218 q 98 252 114 218 q 68 359 83 286 q 54 511 54 433 q 67 663 54 589 q 109 806 80 736 q 181 926 138 875 q 290 1008 224 977 q 433 1039 355 1039 q 574 1007 511 1039 q 679 924 637 976 q 749 803 720 872 q 802 510 802 673 q 648 68 802 212 q 435 -11 565 -11 q 296 19 359 -11 q 188 100 232 50 q 114 218 144 151 m 193 766 q 183 738 193 766 q 163 645 172 709 q 155 501 155 582 q 171 344 155 420 q 219 206 186 268 q 306 109 251 144 q 428 73 361 73 q 543 100 495 73 q 620 170 591 127 q 668 271 649 212 q 702 510 702 376 q 620 856 702 733 q 543 927 591 900 q 435 955 496 955 q 325 930 374 955 q 245 865 277 906 q 193 766 214 824 z "},"ŏ":{"ha":659,"x_min":51,"x_max":608,"o":"m 470 897 q 330 806 426 806 q 191 897 235 806 l 237 924 q 276 878 250 896 q 330 859 302 859 q 385 878 358 859 q 423 924 411 896 l 470 897 m 51 362 q 51 444 51 362 q 124 625 51 526 q 330 723 198 723 q 535 624 463 723 q 608 359 608 525 q 535 93 608 194 q 330 -8 461 -8 q 123 96 197 -8 q 51 362 51 199 m 140 358 q 252 85 140 143 q 330 68 286 68 q 409 85 374 68 q 463 131 443 103 q 496 198 484 159 q 519 357 519 267 q 330 647 519 647 q 140 358 140 647 z "},"Ő":{"ha":857,"x_min":54,"x_max":802,"o":"m 114 218 q 98 252 114 218 q 68 359 83 286 q 54 511 54 433 q 67 663 54 589 q 109 806 80 736 q 181 926 138 875 q 290 1008 224 977 q 433 1039 355 1039 q 574 1007 511 1039 q 679 924 637 976 q 749 803 720 872 q 802 510 802 673 q 648 68 802 212 q 435 -11 565 -11 q 296 19 359 -11 q 188 100 232 50 q 114 218 144 151 m 193 766 q 183 738 193 766 q 163 645 172 709 q 155 501 155 582 q 171 344 155 420 q 219 206 186 268 q 306 109 251 144 q 428 73 361 73 q 543 100 495 73 q 620 170 591 127 q 668 271 649 212 q 702 510 702 376 q 620 856 702 733 q 543 927 591 900 q 435 955 496 955 q 325 930 374 955 q 245 865 277 906 q 193 766 214 824 z "},"ő":{"ha":659,"x_min":51,"x_max":608,"o":"m 51 362 q 51 444 51 362 q 124 625 51 526 q 330 723 198 723 q 535 624 463 723 q 608 359 608 525 q 535 93 608 194 q 330 -8 461 -8 q 123 96 197 -8 q 51 362 51 199 m 140 358 q 252 85 140 143 q 330 68 286 68 q 409 85 374 68 q 463 131 443 103 q 496 198 484 159 q 519 357 519 267 q 330 647 519 647 q 140 358 140 647 z "},"Œ":{"ha":1165,"x_min":54,"x_max":1119,"o":"m 114 223 q 98 256 114 223 q 68 361 83 289 q 54 511 54 434 q 67 660 54 588 q 109 800 80 732 q 181 918 138 867 q 290 998 224 968 q 435 1027 355 1027 l 1093 1027 l 1093 943 l 637 943 l 637 582 l 964 582 l 964 498 l 637 498 l 637 90 l 1119 90 l 1119 0 l 435 0 q 296 29 359 0 q 188 108 232 58 q 114 223 144 157 m 216 212 q 304 125 245 161 q 386 98 335 106 q 463 90 437 89 q 509 91 488 92 q 536 90 529 90 l 536 943 q 390 937 431 943 q 212 815 269 916 q 155 516 155 713 q 216 212 155 318 z "},"œ":{"ha":1095,"x_min":51,"x_max":1040,"o":"m 51 362 q 51 444 51 362 q 124 625 51 526 q 330 723 198 723 q 470 685 410 723 q 564 578 530 647 q 731 716 616 690 q 792 723 760 723 q 854 715 824 723 q 920 683 885 707 q 980 620 955 659 q 1038 348 1038 528 l 608 348 q 700 101 608 167 q 801 68 745 68 q 979 198 905 68 l 1040 155 q 971 67 1014 106 q 801 -7 890 -7 q 564 139 641 -7 q 469 31 528 69 q 337 -8 410 -8 q 211 20 264 -8 q 123 96 157 47 q 51 362 51 199 m 140 358 q 252 85 140 143 q 330 68 286 68 q 409 85 374 68 q 463 131 443 103 q 496 198 484 159 q 519 357 519 267 q 330 647 519 647 q 140 358 140 647 m 612 424 l 949 424 q 902 591 949 525 q 790 647 863 647 q 631 537 671 647 q 612 424 612 486 z "},"Ŕ":{"ha":741,"x_min":92,"x_max":724,"o":"m 255 1134 l 455 1334 l 514 1275 l 300 1090 l 255 1134 m 92 0 l 92 1027 l 437 1027 q 680 901 600 1027 q 724 758 724 833 q 681 591 724 667 q 526 486 633 509 l 720 0 l 610 0 l 423 469 l 192 469 l 192 0 l 92 0 m 192 553 l 447 553 q 568 598 518 553 q 624 753 624 648 q 473 932 624 892 q 376 943 429 943 l 192 943 l 192 553 z "},"ŕ":{"ha":433,"x_min":81,"x_max":498,"o":"m 239 818 l 439 1018 l 498 959 l 284 774 l 239 818 m 81 0 q 81 715 81 0 l 171 715 l 171 523 q 220 620 203 593 q 392 723 286 723 q 416 722 400 723 l 416 646 q 340 628 370 640 q 280 593 309 617 q 171 425 229 551 l 171 0 l 81 0 z "},"Ŗ":{"ha":741,"x_min":92,"x_max":724,"o":"m 347 -354 l 406 -184 l 362 -184 l 362 -83 l 464 -83 l 464 -184 q 412 -288 446 -223 q 377 -354 379 -352 l 347 -354 m 92 0 l 92 1027 l 437 1027 q 680 901 600 1027 q 724 758 724 833 q 681 591 724 667 q 526 486 633 509 l 720 0 l 610 0 l 423 469 l 192 469 l 192 0 l 92 0 m 192 553 l 447 553 q 568 598 518 553 q 624 753 624 648 q 473 932 624 892 q 376 943 429 943 l 192 943 l 192 553 z "},"ŗ":{"ha":433,"x_min":68,"x_max":416,"o":"m 68 -354 l 127 -184 l 83 -184 l 83 -83 l 184 -83 l 184 -184 q 133 -288 166 -223 q 98 -354 100 -352 l 68 -354 m 81 0 q 81 715 81 0 l 171 715 l 171 523 q 220 620 203 593 q 392 723 286 723 q 416 722 400 723 l 416 646 q 340 628 370 640 q 280 593 309 617 q 171 425 229 551 l 171 0 l 81 0 z "},"Ř":{"ha":741,"x_min":92,"x_max":724,"o":"m 228 1272 l 272 1316 l 378 1210 l 484 1316 l 529 1272 l 378 1122 l 228 1272 m 92 0 l 92 1027 l 437 1027 q 680 901 600 1027 q 724 758 724 833 q 681 591 724 667 q 526 486 633 509 l 720 0 l 610 0 l 423 469 l 192 469 l 192 0 l 92 0 m 192 553 l 447 553 q 568 598 518 553 q 624 753 624 648 q 473 932 624 892 q 376 943 429 943 l 192 943 l 192 553 z "},"ř":{"ha":433,"x_min":81,"x_max":416,"o":"m 98 956 l 142 1000 l 249 894 l 355 1000 l 399 956 l 249 806 l 98 956 m 81 0 q 81 715 81 0 l 171 715 l 171 523 q 220 620 203 593 q 392 723 286 723 q 416 722 400 723 l 416 646 q 340 628 370 640 q 280 593 309 617 q 171 425 229 551 l 171 0 l 81 0 z "},"Ś":{"ha":701,"x_min":27,"x_max":670,"o":"m 294 1166 l 494 1366 l 553 1307 l 338 1122 l 294 1166 m 27 250 l 120 282 q 123 271 121 282 q 132 241 125 259 q 149 200 138 222 q 180 155 160 178 q 227 115 200 133 q 380 73 285 73 q 523 125 476 73 q 570 254 570 178 q 540 374 570 330 q 437 448 511 418 q 380 469 415 457 l 315 492 q 90 634 148 547 q 50 775 50 694 q 126 954 50 871 q 218 1015 162 991 q 335 1039 273 1039 q 443 1022 396 1039 q 519 981 490 1006 q 571 925 548 957 q 604 868 594 893 l 624 818 q 635 790 633 794 l 547 756 q 540 778 545 760 q 531 807 535 795 q 518 839 528 819 q 499 873 509 859 q 474 904 490 887 q 439 930 458 920 q 338 955 395 955 q 203 906 255 955 q 151 775 151 857 q 197 650 151 686 q 239 622 222 631 q 280 605 256 613 q 314 592 303 596 q 357 578 325 587 l 414 560 q 630 417 571 512 q 670 261 670 353 q 628 122 670 195 q 469 0 576 30 q 376 -11 429 -11 q 271 3 323 -11 q 185 41 220 18 q 122 92 150 64 q 77 147 94 119 q 33 235 45 198 l 27 250 z "},"ś":{"ha":595,"x_min":54,"x_max":541,"o":"m 279 818 l 479 1018 l 538 959 l 324 774 l 279 818 m 54 136 l 121 179 q 201 96 157 123 q 309 68 245 68 q 417 104 376 68 q 452 178 452 134 q 437 247 452 221 q 395 289 422 273 q 300 327 349 315 q 223 348 251 338 q 165 375 195 358 q 113 413 135 392 q 64 540 64 461 q 127 671 64 619 q 289 723 191 723 q 485 640 405 723 q 510 609 500 624 l 448 563 q 429 583 444 568 q 411 602 415 598 l 393 616 q 373 631 381 627 l 350 639 q 277 647 328 647 q 188 617 225 647 q 151 553 151 588 q 163 496 151 517 q 199 459 175 475 q 290 419 239 435 q 358 398 342 404 q 403 381 375 393 q 447 360 431 370 q 484 333 463 350 q 515 298 504 317 q 541 198 541 252 q 473 50 541 108 q 314 -7 404 -7 q 162 27 224 -7 q 54 136 101 61 z "},"Ŝ":{"ha":701,"x_min":27,"x_max":670,"o":"m 188 1166 l 338 1316 l 489 1166 l 444 1122 l 338 1228 l 232 1122 l 188 1166 m 27 250 l 120 282 q 123 271 121 282 q 132 241 125 259 q 149 200 138 222 q 180 155 160 178 q 227 115 200 133 q 380 73 285 73 q 523 125 476 73 q 570 254 570 178 q 540 374 570 330 q 437 448 511 418 q 380 469 415 457 l 315 492 q 90 634 148 547 q 50 775 50 694 q 126 954 50 871 q 218 1015 162 991 q 335 1039 273 1039 q 443 1022 396 1039 q 519 981 490 1006 q 571 925 548 957 q 604 868 594 893 l 624 818 q 635 790 633 794 l 547 756 q 540 778 545 760 q 531 807 535 795 q 518 839 528 819 q 499 873 509 859 q 474 904 490 887 q 439 930 458 920 q 338 955 395 955 q 203 906 255 955 q 151 775 151 857 q 197 650 151 686 q 239 622 222 631 q 280 605 256 613 q 314 592 303 596 q 357 578 325 587 l 414 560 q 630 417 571 512 q 670 261 670 353 q 628 122 670 195 q 469 0 576 30 q 376 -11 429 -11 q 271 3 323 -11 q 185 41 220 18 q 122 92 150 64 q 77 147 94 119 q 33 235 45 198 l 27 250 z "},"ŝ":{"ha":595,"x_min":54,"x_max":541,"o":"m 138 850 l 289 1000 l 439 850 l 395 806 l 289 912 l 182 806 l 138 850 m 54 136 l 121 179 q 201 96 157 123 q 309 68 245 68 q 417 104 376 68 q 452 178 452 134 q 437 247 452 221 q 395 289 422 273 q 300 327 349 315 q 223 348 251 338 q 165 375 195 358 q 113 413 135 392 q 64 540 64 461 q 127 671 64 619 q 289 723 191 723 q 485 640 405 723 q 510 609 500 624 l 448 563 q 429 583 444 568 q 411 602 415 598 l 393 616 q 373 631 381 627 l 350 639 q 277 647 328 647 q 188 617 225 647 q 151 553 151 588 q 163 496 151 517 q 199 459 175 475 q 290 419 239 435 q 358 398 342 404 q 403 381 375 393 q 447 360 431 370 q 484 333 463 350 q 515 298 504 317 q 541 198 541 252 q 473 50 541 108 q 314 -7 404 -7 q 162 27 224 -7 q 54 136 101 61 z "},"Ş":{"ha":701,"x_min":27,"x_max":670,"o":"m 326 -216 l 302 -216 l 302 -152 q 382 -141 362 -152 q 402 -120 402 -130 q 354 -10 402 -72 q 271 3 312 -8 q 185 41 220 18 q 122 92 150 64 q 77 147 94 119 q 33 235 45 198 l 27 250 l 120 282 q 123 271 121 282 q 132 241 125 259 q 149 200 138 222 q 180 155 160 178 q 227 115 200 133 q 380 73 285 73 q 523 125 476 73 q 570 254 570 178 q 540 374 570 330 q 437 448 511 418 q 380 469 415 457 l 315 492 q 90 634 146 550 q 50 775 50 694 q 126 954 50 871 q 218 1015 162 991 q 335 1039 273 1039 q 443 1022 396 1039 q 519 981 490 1006 q 571 925 548 957 q 604 868 594 893 l 624 818 q 635 790 634 792 l 547 756 q 540 778 545 760 q 531 807 535 795 q 518 839 528 819 q 499 873 509 859 q 474 904 490 887 q 439 930 458 920 q 338 955 395 955 q 203 906 255 955 q 151 775 151 857 q 197 650 151 686 q 239 622 222 631 q 280 605 256 613 q 314 592 303 596 q 357 578 325 587 l 414 560 q 630 417 572 511 q 670 261 670 353 q 628 122 670 195 q 469 0 576 30 q 419 -9 446 -6 q 465 -138 465 -75 q 326 -216 465 -216 z "},"ş":{"ha":595,"x_min":54,"x_max":541,"o":"m 254 -213 l 230 -212 l 230 -149 q 310 -138 290 -149 q 330 -117 330 -127 q 282 -6 330 -68 q 163 27 212 -1 q 54 136 101 61 l 121 179 q 201 96 157 123 q 309 68 245 68 q 417 104 376 68 q 452 178 452 134 q 437 247 452 221 q 395 289 422 273 q 300 327 349 315 q 223 348 251 338 q 165 375 195 358 q 113 413 135 392 q 64 540 64 461 q 127 671 64 619 q 289 723 191 723 q 485 640 405 723 q 510 609 500 624 l 448 563 q 429 583 444 568 q 411 602 415 598 l 393 616 q 373 631 381 627 l 350 639 q 277 647 328 647 q 188 617 225 647 q 151 553 151 588 q 163 496 151 517 q 199 459 175 475 q 290 419 239 435 q 358 398 342 404 q 403 381 375 393 q 447 360 431 370 q 484 333 463 350 q 515 298 504 317 q 541 198 541 252 q 473 50 541 108 q 347 -5 417 3 q 393 -135 393 -72 q 254 -213 393 -213 z "},"Š":{"ha":701,"x_min":27,"x_max":670,"o":"m 188 1272 l 232 1316 l 338 1210 l 444 1316 l 489 1272 l 338 1122 l 188 1272 m 27 250 l 120 282 q 123 271 121 282 q 132 241 125 259 q 149 200 138 222 q 180 155 160 178 q 227 115 200 133 q 380 73 285 73 q 523 125 476 73 q 570 254 570 178 q 540 374 570 330 q 437 448 511 418 q 380 469 415 457 l 315 492 q 90 634 148 547 q 50 775 50 694 q 126 954 50 871 q 218 1015 162 991 q 335 1039 273 1039 q 443 1022 396 1039 q 519 981 490 1006 q 571 925 548 957 q 604 868 594 893 l 624 818 q 635 790 633 794 l 547 756 q 540 778 545 760 q 531 807 535 795 q 518 839 528 819 q 499 873 509 859 q 474 904 490 887 q 439 930 458 920 q 338 955 395 955 q 203 906 255 955 q 151 775 151 857 q 197 650 151 686 q 239 622 222 631 q 280 605 256 613 q 314 592 303 596 q 357 578 325 587 l 414 560 q 630 417 571 512 q 670 261 670 353 q 628 122 670 195 q 469 0 576 30 q 376 -11 429 -11 q 271 3 323 -11 q 185 41 220 18 q 122 92 150 64 q 77 147 94 119 q 33 235 45 198 l 27 250 z "},"š":{"ha":595,"x_min":54,"x_max":541,"o":"m 138 956 l 182 1000 l 289 894 l 395 1000 l 439 956 l 289 806 l 138 956 m 54 136 l 121 179 q 201 96 157 123 q 309 68 245 68 q 417 104 376 68 q 452 178 452 134 q 437 247 452 221 q 395 289 422 273 q 300 327 349 315 q 223 348 251 338 q 165 375 195 358 q 113 413 135 392 q 64 540 64 461 q 127 671 64 619 q 289 723 191 723 q 485 640 405 723 q 510 609 500 624 l 448 563 q 429 583 444 568 q 411 602 415 598 l 393 616 q 373 631 381 627 l 350 639 q 277 647 328 647 q 188 617 225 647 q 151 553 151 588 q 163 496 151 517 q 199 459 175 475 q 290 419 239 435 q 358 398 342 404 q 403 381 375 393 q 447 360 431 370 q 484 333 463 350 q 515 298 504 317 q 541 198 541 252 q 473 50 541 108 q 314 -7 404 -7 q 162 27 224 -7 q 54 136 101 61 z "},"Ţ":{"ha":720,"x_min":17,"x_max":703,"o":"m 304 -205 l 279 -205 l 279 -141 q 360 -130 340 -141 q 380 -109 380 -119 q 332 0 380 -61 l 310 0 l 310 943 l 17 943 l 17 1027 l 703 1027 l 703 943 l 410 943 l 410 0 l 398 0 q 443 -127 443 -66 q 304 -205 443 -205 z "},"ţ":{"ha":411,"x_min":24,"x_max":399,"o":"m 236 -214 l 212 -214 l 212 -150 q 292 -139 272 -150 q 312 -118 312 -128 q 264 -7 312 -69 q 254 -7 258 -7 q 216 6 238 -5 q 179 37 193 17 q 145 186 145 84 l 145 640 l 24 640 l 24 715 l 145 715 l 145 977 l 235 977 l 235 715 l 399 715 l 399 640 l 235 640 l 235 186 q 256 92 235 117 q 325 67 277 67 q 372 71 345 67 q 399 75 399 74 l 399 7 q 330 -8 363 -5 q 375 -136 375 -74 q 236 -214 375 -214 z "},"Ť":{"ha":720,"x_min":17,"x_max":703,"o":"m 210 1272 l 254 1316 l 360 1210 l 466 1316 l 511 1272 l 360 1122 l 210 1272 m 17 943 l 17 1027 l 703 1027 l 703 943 l 410 943 l 410 0 l 310 0 l 310 943 l 17 943 z "},"ť":{"ha":573,"x_min":24,"x_max":526,"o":"m 409 756 l 468 926 l 424 926 l 424 1027 l 526 1027 l 526 926 q 474 823 507 887 q 439 756 441 758 l 409 756 m 24 640 l 24 715 l 145 715 l 145 977 l 235 977 l 235 715 l 399 715 l 399 640 l 235 640 l 235 186 q 256 92 235 117 q 325 67 277 67 q 372 71 345 67 q 399 75 399 74 l 399 7 q 312 -9 354 -9 q 254 -7 269 -9 q 216 6 238 -5 q 179 37 193 17 q 145 186 145 84 l 145 640 l 24 640 z "},"Ŧ":{"ha":720,"x_min":17,"x_max":703,"o":"m 17 943 l 17 1027 l 703 1027 l 703 943 l 410 943 l 410 604 l 560 604 l 560 520 l 410 520 l 410 0 l 310 0 l 310 520 l 158 520 l 158 604 l 310 604 l 310 943 l 17 943 z "},"ŧ":{"ha":411,"x_min":24,"x_max":399,"o":"m 32 401 l 32 477 l 145 477 l 145 640 q 24 640 145 640 l 24 715 l 145 715 l 145 977 l 235 977 l 235 715 l 399 715 l 399 640 l 235 640 l 235 477 l 387 477 l 387 401 l 235 401 l 235 186 q 256 92 235 117 q 325 67 277 67 q 372 71 345 67 q 399 75 399 74 l 399 7 q 312 -9 354 -9 q 254 -7 269 -9 q 216 6 238 -5 q 179 37 193 17 q 145 186 145 84 l 145 401 l 32 401 z "},"Ũ":{"ha":823,"x_min":92,"x_max":736,"o":"m 619 1225 q 569 1148 602 1177 q 499 1120 536 1120 q 434 1135 462 1120 q 381 1166 406 1151 q 333 1181 356 1181 l 326 1181 q 288 1164 304 1179 q 262 1124 271 1148 l 206 1152 q 254 1227 223 1200 q 323 1257 289 1257 q 381 1248 357 1257 q 419 1227 404 1238 q 492 1196 458 1196 l 499 1196 q 538 1213 521 1198 q 563 1253 555 1229 l 619 1225 m 92 309 l 92 1027 l 192 1027 l 192 309 q 237 153 192 216 q 413 73 293 73 q 625 235 592 73 q 633 309 633 272 l 633 1027 l 736 1027 l 736 309 q 675 110 736 197 q 413 -11 594 -11 q 122 161 197 -11 q 92 309 92 233 z "},"ũ":{"ha":664,"x_min":87,"x_max":589,"o":"m 545 909 q 495 832 528 861 q 425 804 462 804 q 359 819 387 804 q 306 850 331 835 q 258 865 281 865 l 252 865 q 213 848 230 863 q 188 808 196 832 l 132 836 q 179 911 149 884 q 249 941 214 941 q 306 932 283 941 q 345 911 330 922 q 418 880 383 880 l 425 880 q 463 897 446 882 q 488 937 480 913 l 545 909 m 87 182 l 87 715 l 177 715 l 177 182 q 213 100 177 132 q 292 68 250 68 q 500 186 392 68 l 500 715 l 589 715 l 589 0 l 500 0 l 500 118 q 335 3 404 24 q 266 -7 302 -7 q 138 40 188 -7 q 87 182 87 87 z "},"Ū":{"ha":823,"x_min":92,"x_max":736,"o":"m 234 1122 l 234 1184 l 591 1184 l 591 1122 l 234 1122 m 92 309 l 92 1027 l 192 1027 l 192 309 q 237 153 192 216 q 413 73 293 73 q 625 235 592 73 q 633 309 633 272 l 633 1027 l 736 1027 l 736 309 q 675 110 736 197 q 413 -11 594 -11 q 122 161 197 -11 q 92 309 92 233 z "},"ū":{"ha":664,"x_min":87,"x_max":589,"o":"m 160 806 l 160 868 l 517 868 l 517 806 l 160 806 m 87 182 l 87 715 l 177 715 l 177 182 q 213 100 177 132 q 292 68 250 68 q 500 186 392 68 l 500 715 l 589 715 l 589 0 l 500 0 l 500 118 q 335 3 404 24 q 266 -7 302 -7 q 138 40 188 -7 q 87 182 87 87 z "},"Ŭ":{"ha":823,"x_min":92,"x_max":736,"o":"m 553 1213 q 413 1122 509 1122 q 273 1213 317 1122 l 320 1240 q 359 1194 332 1212 q 413 1175 385 1175 q 467 1194 441 1175 q 506 1240 494 1212 l 553 1213 m 92 309 l 92 1027 l 192 1027 l 192 309 q 237 153 192 216 q 413 73 293 73 q 625 235 592 73 q 633 309 633 272 l 633 1027 l 736 1027 l 736 309 q 675 110 736 197 q 413 -11 594 -11 q 122 161 197 -11 q 92 309 92 233 z "},"ŭ":{"ha":664,"x_min":87,"x_max":589,"o":"m 478 897 q 338 806 434 806 q 199 897 243 806 l 245 924 q 284 878 258 896 q 338 859 311 859 q 393 878 366 859 q 431 924 419 896 l 478 897 m 87 182 l 87 715 l 177 715 l 177 182 q 213 100 177 132 q 292 68 250 68 q 500 186 392 68 l 500 715 l 589 715 l 589 0 l 500 0 l 500 118 q 335 3 404 24 q 266 -7 302 -7 q 138 40 188 -7 q 87 182 87 87 z "},"Ů":{"ha":823,"x_min":92,"x_max":736,"o":"m 279 1177 q 254 1202 279 1177 q 229 1299 229 1227 q 279 1422 229 1371 q 401 1472 330 1472 q 524 1422 473 1472 q 574 1299 574 1371 q 524 1177 574 1227 q 401 1126 473 1126 q 279 1177 330 1126 m 325 1375 q 309 1359 325 1375 q 294 1299 294 1343 q 325 1224 294 1255 q 401 1192 357 1192 q 476 1224 445 1192 q 508 1299 508 1255 q 476 1375 508 1343 q 401 1407 445 1407 q 325 1375 357 1407 m 92 309 l 92 1027 l 192 1027 l 192 309 q 237 153 192 216 q 413 73 293 73 q 625 235 592 73 q 633 309 633 272 l 633 1027 l 736 1027 l 736 309 q 675 110 736 197 q 413 -11 594 -11 q 122 161 197 -11 q 92 309 92 233 z "},"ů":{"ha":664,"x_min":87,"x_max":589,"o":"m 204 810 q 179 835 204 810 q 154 932 154 861 q 204 1055 154 1004 q 327 1105 255 1105 q 449 1055 399 1105 q 500 932 500 1004 q 449 810 500 861 q 327 760 399 760 q 204 810 255 760 m 251 1008 q 235 992 251 1008 q 219 932 219 977 q 251 857 219 888 q 326 825 282 825 q 402 857 370 825 q 433 932 433 888 q 402 1008 433 977 q 326 1040 370 1040 q 251 1008 282 1040 m 87 182 l 87 715 l 177 715 l 177 182 q 213 100 177 132 q 292 68 250 68 q 500 186 392 68 l 500 715 l 589 715 l 589 0 l 500 0 l 500 118 q 335 3 404 24 q 266 -7 302 -7 q 138 40 188 -7 q 87 182 87 87 z "},"Ű":{"ha":823,"x_min":92,"x_max":736,"o":"m 92 309 l 92 1027 l 192 1027 l 192 309 q 237 153 192 216 q 413 73 293 73 q 625 235 592 73 q 633 309 633 272 l 633 1027 l 736 1027 l 736 309 q 675 110 736 197 q 413 -11 594 -11 q 122 161 197 -11 q 92 309 92 233 z "},"ű":{"ha":664,"x_min":87,"x_max":589,"o":"m 87 182 l 87 715 l 177 715 l 177 182 q 213 100 177 132 q 292 68 250 68 q 500 186 392 68 l 500 715 l 589 715 l 589 0 l 500 0 l 500 118 q 335 3 404 24 q 266 -7 302 -7 q 138 40 188 -7 q 87 182 87 87 z "},"Ų":{"ha":823,"x_min":92,"x_max":736,"o":"m 494 -152 l 494 -216 q 483 -216 493 -216 q 465 -216 473 -216 l 442 -215 q 376 -202 394 -213 q 349 -183 358 -191 q 330 -138 330 -168 q 376 -9 330 -75 q 148 115 219 3 q 92 309 92 202 l 92 1027 l 192 1027 l 192 309 q 237 153 192 216 q 413 73 293 73 q 625 235 592 73 q 633 309 633 272 l 633 1027 l 736 1027 l 736 309 q 676 111 736 200 q 441 -10 601 -1 q 393 -120 393 -67 q 472 -151 393 -144 q 494 -152 485 -152 z "},"ų":{"ha":664,"x_min":87,"x_max":625,"o":"m 601 -213 q 462 -135 462 -213 q 511 -1 462 -70 l 578 -1 q 525 -117 525 -66 q 604 -147 525 -141 q 625 -149 616 -149 l 625 -212 l 601 -213 m 87 182 l 87 715 l 177 715 l 177 182 q 213 100 177 132 q 292 68 250 68 q 500 186 392 68 l 500 715 l 589 715 l 589 0 l 500 0 l 500 118 q 335 3 404 24 q 266 -7 302 -7 q 138 40 188 -7 q 87 182 87 87 z "},"Ŵ":{"ha":1095,"x_min":17,"x_max":1078,"o":"m 397 1166 l 547 1316 l 698 1166 l 653 1122 l 547 1228 l 441 1122 l 397 1166 m 17 1027 l 121 1027 l 297 215 l 304 215 l 490 1027 l 605 1027 l 791 215 l 798 215 l 973 1027 l 1078 1027 l 840 0 l 736 0 l 551 812 l 544 812 l 358 0 l 255 0 l 17 1027 z "},"ŵ":{"ha":892,"x_min":17,"x_max":876,"o":"m 296 850 l 446 1000 l 597 850 l 552 806 l 446 912 l 340 806 l 296 850 m 17 715 l 100 715 l 258 176 l 399 715 l 480 715 l 633 173 l 784 715 l 876 715 l 671 0 l 591 0 l 439 549 l 303 0 l 212 0 l 17 715 z "},"Ŷ":{"ha":761,"x_min":17,"x_max":744,"o":"m 230 1166 l 380 1316 l 531 1166 l 486 1122 l 380 1228 l 274 1122 l 230 1166 m 17 1027 l 121 1027 l 380 544 l 640 1027 l 744 1027 l 431 448 l 431 0 l 330 0 l 330 448 l 17 1027 z "},"ŷ":{"ha":614,"x_min":17,"x_max":597,"o":"m 156 850 l 307 1000 l 457 850 l 412 806 l 307 912 l 200 806 l 156 850 m 186 -256 q 165 -261 186 -256 q 102 -267 144 -267 q 18 -261 59 -267 l 25 -179 q 90 -191 50 -191 q 157 -180 131 -191 q 201 -153 184 -170 q 232 -116 218 -136 q 254 -76 245 -96 q 274 -2 268 -38 l 17 715 l 113 715 l 316 133 l 506 715 l 597 715 l 347 -43 q 270 -201 309 -159 q 186 -256 227 -245 z "},"Ÿ":{"ha":761,"x_min":17,"x_max":744,"o":"m 221 1122 l 221 1223 l 323 1223 l 323 1122 l 221 1122 m 437 1122 l 437 1223 l 539 1223 l 539 1122 l 437 1122 m 17 1027 l 121 1027 l 380 544 l 640 1027 l 744 1027 l 431 448 l 431 0 l 330 0 l 330 448 l 17 1027 z "},"Ź":{"ha":774,"x_min":46,"x_max":728,"o":"m 361 1134 l 561 1334 l 620 1275 l 406 1090 l 361 1134 m 46 0 l 46 73 l 606 941 l 83 941 l 83 1027 l 728 1027 l 728 944 l 190 96 l 724 96 l 724 0 l 46 0 z "},"ź":{"ha":528,"x_min":17,"x_max":532,"o":"m 273 818 l 473 1018 l 532 959 l 317 774 l 273 818 m 17 0 l 17 58 l 397 640 l 53 640 l 53 715 l 511 715 l 511 665 l 126 81 l 511 81 l 511 0 l 17 0 z "},"Ż":{"ha":774,"x_min":46,"x_max":728,"o":"m 353 1122 l 353 1223 l 455 1223 l 455 1122 l 353 1122 m 46 0 l 46 73 l 606 941 l 83 941 l 83 1027 l 728 1027 l 728 944 l 190 96 l 724 96 l 724 0 l 46 0 z "},"ż":{"ha":528,"x_min":17,"x_max":511,"o":"m 231 806 l 231 907 l 333 907 l 333 806 l 231 806 m 17 0 l 17 58 l 397 640 l 53 640 l 53 715 l 511 715 l 511 665 l 126 81 l 511 81 l 511 0 l 17 0 z "},"Ž":{"ha":774,"x_min":46,"x_max":728,"o":"m 255 1272 l 299 1316 l 406 1210 l 511 1316 l 556 1272 l 406 1122 l 255 1272 m 46 0 l 46 73 l 606 941 l 83 941 l 83 1027 l 728 1027 l 728 944 l 190 96 l 724 96 l 724 0 l 46 0 z "},"ž":{"ha":528,"x_min":17,"x_max":511,"o":"m 132 956 l 176 1000 l 282 894 l 388 1000 l 433 956 l 282 806 l 132 956 m 17 0 l 17 58 l 397 640 l 53 640 l 53 715 l 511 715 l 511 665 l 126 81 l 511 81 l 511 0 l 17 0 z "},"ſ":{"ha":418,"x_min":9,"x_max":410,"o":"m 9 640 l 9 715 l 126 715 q 211 975 126 901 q 410 1034 279 1034 l 410 953 q 275 901 319 953 q 220 596 220 837 l 220 0 l 125 0 l 125 640 l 9 640 z "},"ƀ":{"ha":674,"x_min":15,"x_max":623,"o":"m 171 113 q 154 0 171 8 l 64 0 q 81 99 81 37 l 81 792 l 15 792 l 15 868 l 81 868 l 81 1027 l 171 1027 l 171 868 l 370 868 l 370 792 l 171 792 l 171 622 q 238 686 184 650 q 355 723 292 723 q 550 618 477 723 q 623 346 623 513 q 586 157 623 246 q 463 15 543 56 q 371 -7 418 -7 q 290 6 324 -7 q 231 41 255 20 q 171 113 191 78 m 171 189 q 292 77 239 94 q 357 68 317 68 q 434 90 397 68 q 491 149 470 111 q 534 346 534 226 q 332 647 534 647 q 171 545 243 647 l 171 189 z "},"Ɓ":{"ha":768,"x_min":-39,"x_max":722,"o":"m -39 916 q -6 1003 -39 978 q 92 1027 26 1027 l 412 1027 q 617 957 536 1027 q 698 781 698 886 q 577 560 698 608 q 525 543 556 551 q 692 409 636 514 q 722 278 722 351 q 642 76 722 151 q 412 0 563 0 l 92 0 l 92 962 q 41 953 52 962 q 30 913 30 944 q 34 866 30 882 l -35 875 q -39 916 -39 897 m 192 84 l 412 84 q 574 130 523 84 q 611 188 595 150 q 627 278 627 226 q 568 433 627 374 q 412 492 509 492 l 192 492 l 192 84 m 192 578 l 412 578 q 556 627 507 578 q 592 686 576 646 q 607 781 607 726 q 557 902 607 861 q 412 943 507 943 l 192 943 l 192 578 z "},"Ƃ":{"ha":768,"x_min":92,"x_max":722,"o":"m 92 0 l 92 1027 l 706 1027 l 706 943 l 192 943 l 192 578 l 412 578 q 629 509 541 578 q 722 278 722 433 q 642 76 722 151 q 412 0 563 0 l 92 0 m 192 84 l 412 84 q 574 130 523 84 q 611 188 595 150 q 627 278 627 226 q 568 433 627 374 q 412 492 509 492 l 192 492 l 192 84 z "},"ƃ":{"ha":674,"x_min":64,"x_max":623,"o":"m 171 189 q 292 77 239 94 q 357 68 317 68 q 434 90 397 68 q 491 149 470 111 q 534 346 534 226 q 332 647 534 647 q 171 545 243 647 l 171 189 m 171 113 q 154 0 171 8 l 64 0 q 81 99 81 37 l 81 1027 l 526 1027 l 526 951 l 171 951 l 171 622 q 238 686 184 650 q 355 723 292 723 q 550 618 477 723 q 623 346 623 513 q 586 157 623 246 q 463 15 543 56 q 371 -7 418 -7 q 290 6 324 -7 q 231 41 255 20 q 171 113 191 78 z "},"Ƅ":{"ha":764,"x_min":-22,"x_max":713,"o":"m 183 349 q 331 90 198 142 q 403 77 366 77 q 476 90 441 77 q 543 132 511 104 q 613 312 613 193 q 557 492 613 431 q 405 553 500 553 q 237 475 300 553 q 183 349 202 432 m 75 897 q 29 891 56 891 q -13 895 2 891 l -22 964 q 75 1027 75 964 l 175 1027 l 175 505 q 196 535 182 520 l 222 566 q 280 608 245 591 q 405 637 338 637 q 628 552 543 637 q 713 324 713 466 q 665 143 713 228 q 517 13 611 50 q 404 -7 465 -7 q 163 116 252 -7 q 75 460 75 239 l 75 897 z "},"ƅ":{"ha":686,"x_min":75,"x_max":635,"o":"m 75 403 l 75 1027 l 164 1027 l 164 448 q 237 541 178 500 q 364 576 286 576 q 563 498 491 576 q 635 283 635 420 q 542 52 635 134 q 371 -7 475 -7 q 205 33 267 -7 q 75 403 75 117 m 545 283 q 364 500 545 500 q 203 399 255 500 q 176 310 186 366 l 172 292 q 301 81 182 130 q 360 68 332 68 q 411 73 389 68 q 459 92 434 78 q 503 129 485 106 q 545 283 545 180 z "},"Ɔ":{"ha":796,"x_min":54,"x_max":750,"o":"m 726 727 q 732 700 726 727 q 744 621 739 674 q 750 502 750 568 q 738 363 750 436 q 699 221 726 290 q 629 102 671 153 q 525 20 588 51 q 397 -11 463 -11 q 287 6 332 -11 q 210 49 241 22 q 153 107 178 75 q 112 172 127 140 q 73 274 81 239 l 69 290 l 69 291 l 172 319 q 200 206 183 241 q 233 148 216 170 q 270 109 250 125 q 385 73 318 73 q 650 513 650 73 q 594 821 650 702 q 385 955 531 955 q 199 861 266 955 q 153 714 153 795 l 54 730 q 67 766 57 737 q 83 814 77 795 q 105 864 90 832 q 136 916 121 895 q 177 963 151 937 q 231 1003 202 988 q 371 1039 299 1039 q 492 1023 443 1039 q 578 978 541 1006 q 644 910 614 950 q 693 825 673 871 q 726 727 713 779 z "},"Ƈ":{"ha":796,"x_min":54,"x_max":831,"o":"m 652 921 q 751 1032 665 1032 q 831 1011 795 1032 l 822 943 q 791 955 814 948 q 748 962 768 962 q 715 947 728 962 q 693 880 693 923 q 724 767 693 854 l 735 738 l 735 737 l 632 709 q 605 822 621 787 q 571 881 588 858 q 534 919 555 903 q 419 955 486 955 q 155 515 155 955 q 210 207 155 326 q 419 73 273 73 q 514 92 472 73 q 581 137 556 111 q 621 199 605 164 q 651 314 650 258 l 750 298 q 738 262 747 291 q 721 214 728 233 q 699 164 714 196 q 668 112 684 133 q 628 65 653 91 q 574 25 602 40 q 433 -11 505 -11 q 312 5 361 -11 q 227 50 263 22 q 160 118 190 78 q 111 203 131 157 q 79 301 92 249 q 54 496 54 401 q 66 665 54 592 q 106 807 78 738 q 175 926 134 876 q 279 1008 216 977 q 419 1039 342 1039 q 652 921 562 1039 z "},"ƈ":{"ha":628,"x_min":51,"x_max":688,"o":"m 571 675 q 564 668 571 675 q 553 644 557 661 q 549 602 549 627 q 560 551 549 577 l 488 519 q 474 559 487 532 q 446 602 460 585 q 402 633 431 619 q 339 647 374 647 q 140 359 140 647 q 193 144 140 219 q 339 68 245 68 q 446 118 404 68 q 496 194 484 161 l 503 209 l 573 175 q 495 56 549 109 q 429 12 471 32 q 339 -7 387 -7 q 121 87 191 -7 q 51 353 51 182 q 339 723 51 723 q 508 646 442 723 q 536 727 513 694 q 604 760 559 760 q 688 739 648 760 l 678 670 q 647 683 670 675 q 604 690 624 690 q 571 675 584 690 z "},"Ɖ":{"ha":830,"x_min":6,"x_max":784,"o":"m 6 458 l 6 551 l 93 551 l 93 1027 l 338 1027 q 523 998 443 1027 q 652 921 603 969 q 731 804 701 873 q 784 505 784 684 q 636 102 784 238 q 338 0 527 0 l 93 0 l 93 458 l 6 458 m 193 84 l 338 84 q 600 201 511 84 q 684 505 684 313 q 534 895 684 800 q 338 943 458 943 l 193 943 l 193 551 l 413 551 l 413 458 l 193 458 l 193 84 z "},"Ɗ":{"ha":823,"x_min":-40,"x_max":777,"o":"m 192 84 l 336 84 q 637 273 558 84 q 677 505 677 368 q 583 852 677 749 q 484 918 547 892 q 336 943 421 943 l 192 943 l 192 84 m 65 1029 l 336 1027 q 753 725 677 1027 q 777 526 777 627 q 763 352 777 424 q 716 215 749 280 q 633 102 683 149 q 336 0 524 0 l 92 0 l 92 981 q 29 910 29 981 q 33 868 29 884 l -36 877 q -40 918 -40 899 q -13 999 -40 968 q 65 1029 15 1029 z "},"Ƌ":{"ha":823,"x_min":46,"x_max":732,"o":"m 46 351 q 57 481 46 429 q 97 579 68 533 q 175 654 126 625 q 487 715 280 715 l 631 715 l 631 942 l 117 942 l 117 1027 l 732 1027 l 732 0 l 487 0 q 144 96 247 0 q 46 351 46 187 m 146 378 q 146 350 146 378 q 150 293 146 321 q 162 235 153 264 q 186 184 171 205 q 227 142 201 162 q 289 111 253 123 q 487 84 366 84 l 631 84 l 631 631 l 487 631 q 269 593 342 631 q 170 494 193 553 q 146 378 146 435 z "},"ƌ":{"ha":667,"x_min":51,"x_max":610,"o":"m 503 113 q 311 -7 434 -7 q 198 23 249 -7 q 116 105 147 54 q 51 346 51 212 q 83 531 51 446 q 178 670 115 616 q 311 723 240 723 q 436 686 382 723 q 503 622 490 650 l 503 951 l 148 951 l 148 1027 l 593 1027 l 593 99 q 598 46 593 79 q 610 0 604 13 l 520 0 q 503 113 503 8 m 140 346 q 183 149 140 226 q 325 68 228 68 q 431 105 389 68 q 503 189 464 134 l 503 545 q 342 647 431 647 q 140 346 140 647 z "},"ƍ":{"ha":733,"x_min":37,"x_max":669,"o":"m 498 898 q 351 959 439 959 q 252 934 296 959 q 181 868 208 909 q 127 666 127 783 q 186 472 127 549 q 350 395 245 395 q 517 471 456 395 q 579 680 579 548 q 498 898 579 812 m 347 319 l 619 84 l 619 0 l 92 0 l 92 84 l 501 84 l 153 386 q 94 467 123 412 q 37 677 37 573 q 127 926 37 818 q 227 1005 168 975 q 351 1035 286 1035 q 578 934 487 1035 q 669 673 669 833 q 581 416 669 513 q 351 319 492 319 l 347 319 z "},"Ǝ":{"ha":720,"x_min":92,"x_max":674,"o":"m 92 0 l 92 90 l 574 90 l 574 498 l 246 498 l 246 582 l 574 582 l 574 943 l 117 943 l 117 1027 l 674 1027 l 674 0 l 92 0 z "},"Ə":{"ha":867,"x_min":70,"x_max":813,"o":"m 751 824 q 767 792 751 824 q 798 689 783 760 q 813 532 813 617 q 800 368 813 446 q 764 234 786 289 q 709 136 741 178 q 644 67 677 93 q 571 24 610 41 q 427 -5 504 -5 q 168 126 261 -5 q 73 530 73 261 l 719 530 q 585 897 719 796 q 411 952 511 952 q 151 756 259 952 q 147 751 148 752 l 70 804 q 143 904 99 859 q 224 975 187 949 q 401 1036 311 1036 q 559 1009 492 1036 q 672 935 626 981 q 751 824 719 888 m 713 446 l 167 446 q 193 288 167 359 q 247 176 219 217 q 322 106 275 134 q 425 79 369 79 q 526 98 481 79 q 601 148 571 117 q 654 218 631 180 q 689 298 677 256 q 713 446 713 381 z "},"Ɛ":{"ha":752,"x_min":47,"x_max":706,"o":"m 47 283 q 208 537 47 439 q 91 703 119 595 q 81 779 81 739 q 121 907 81 848 q 228 1001 161 966 q 384 1036 294 1036 q 551 996 473 1036 q 678 899 629 956 l 613 836 q 516 908 581 878 q 375 939 451 939 q 238 895 299 939 q 176 771 176 851 q 223 638 176 691 q 361 585 271 585 l 505 585 l 505 489 l 361 489 q 203 432 263 489 q 144 276 144 374 q 178 172 144 215 q 380 90 243 90 q 491 109 441 90 q 563 148 541 128 q 610 191 586 167 l 637 220 l 706 161 q 380 -7 574 -7 q 138 67 229 -7 q 47 283 47 142 z "},"Ƒ":{"ha":694,"x_min":-28,"x_max":648,"o":"m -28 -105 l -24 -36 q 43 -50 5 -50 q 92 0 92 -50 l 92 1027 l 648 1027 l 648 943 l 192 943 l 192 582 l 519 582 l 519 498 l 192 498 l 192 0 q 158 -91 192 -62 q 42 -119 123 -119 q -28 -105 5 -119 z "},"ƒ":{"ha":387,"x_min":-36,"x_max":378,"o":"m 378 1027 l 378 952 l 317 952 q 216 867 216 952 l 216 715 l 378 715 l 378 640 l 216 640 l 216 0 q 20 -159 216 -159 q -36 -153 -30 -159 l -36 -77 l 24 -77 q 104 -60 84 -77 q 126 0 126 -40 l 126 640 l 9 640 l 9 715 l 126 715 l 126 867 q 222 1016 126 977 q 319 1034 267 1034 q 378 1027 372 1034 z "},"Ɠ":{"ha":845,"x_min":54,"x_max":844,"o":"m 108 224 q 94 259 108 224 q 67 368 79 294 q 54 513 54 441 q 64 646 54 585 q 92 766 73 708 q 143 874 111 825 q 214 960 174 923 q 431 1039 301 1039 q 703 875 608 1039 q 766 916 754 899 q 775 950 779 932 q 750 989 771 968 q 716 1016 729 1009 l 771 1059 q 819 1016 793 1045 q 844 956 844 986 q 828 903 844 926 q 788 862 812 879 q 729 826 753 838 l 725 829 q 754 745 743 787 l 656 721 q 654 734 655 726 q 647 767 653 743 q 631 813 640 791 q 605 862 623 836 q 564 909 587 889 q 434 955 513 955 q 300 918 355 955 q 214 818 244 882 q 155 521 155 696 q 209 209 155 312 q 433 73 280 73 q 654 293 624 73 q 660 401 660 340 l 431 401 l 431 485 l 758 485 l 758 0 l 677 0 l 677 130 q 515 0 600 24 q 414 -11 477 -11 q 287 20 352 -11 q 180 103 222 52 q 108 224 137 155 z "},"Ɣ":{"ha":611,"x_min":5,"x_max":606,"o":"m 305 312 q 281 312 305 312 q 224 272 257 312 q 191 181 191 231 q 223 102 191 132 q 305 73 255 73 q 387 102 355 73 q 419 181 419 132 q 386 272 419 231 q 305 312 353 312 m 17 1027 l 111 1027 q 125 903 98 1014 q 200 678 153 792 l 305 452 l 411 678 q 499 949 471 818 q 507 1005 507 986 q 500 1027 507 1023 l 594 1027 q 580 904 606 1016 q 509 678 553 793 l 375 373 q 462 285 425 340 q 500 177 500 229 q 444 45 500 98 q 306 -7 387 -7 q 168 45 224 -7 q 112 177 112 98 q 150 285 112 229 q 237 373 187 340 l 104 678 q 32 905 59 793 q 17 1027 5 1017 z "},"ƕ":{"ha":1053,"x_min":87,"x_max":1003,"o":"m 913 228 q 861 715 913 398 l 950 715 q 1003 228 1003 404 q 966 98 1003 153 q 751 -7 896 -7 q 563 54 624 -7 q 525 132 538 81 q 508 227 511 182 q 505 347 505 271 l 505 418 q 446 629 505 587 q 385 647 422 647 q 177 530 285 647 l 177 0 l 87 0 l 87 1027 l 177 1027 l 177 598 q 342 713 277 694 q 416 723 375 723 q 491 706 458 723 q 544 662 525 689 q 574 593 563 635 q 592 412 592 524 l 592 336 q 603 180 592 213 q 626 127 614 147 q 654 95 637 106 q 735 68 692 68 q 805 77 778 68 q 857 104 833 86 q 913 228 913 144 z "},"Ɩ":{"ha":283,"x_min":92,"x_max":192,"o":"m 92 0 l 92 1027 l 192 1027 l 192 0 l 92 0 z "},"Ɨ":{"ha":380,"x_min":12,"x_max":368,"o":"m 12 517 l 12 609 l 141 609 l 141 1027 l 241 1027 l 241 609 l 368 609 l 368 517 l 241 517 l 241 0 l 141 0 l 141 517 l 12 517 z "},"Ƙ":{"ha":796,"x_min":92,"x_max":829,"o":"m 772 899 q 686 960 728 960 q 655 941 671 960 q 561 821 638 922 l 425 642 l 756 0 l 644 0 l 361 557 l 193 336 l 193 0 l 92 0 l 92 1027 l 193 1027 l 193 469 l 347 675 q 591 990 543 937 q 686 1044 639 1044 q 829 945 772 1044 l 772 899 z "},"ƙ":{"ha":618,"x_min":88,"x_max":601,"o":"m 88 854 q 175 1124 88 1052 q 319 1160 237 1177 q 349 1152 336 1157 l 327 1087 q 233 1061 275 1102 q 178 854 178 1005 l 178 361 l 452 715 l 559 715 l 372 472 l 601 0 l 502 0 l 311 395 l 178 230 l 178 0 l 88 0 l 88 854 z "},"ƚ":{"ha":389,"x_min":17,"x_max":372,"o":"m 17 464 l 17 540 l 149 540 l 149 1027 l 239 1027 l 239 540 l 372 540 l 372 464 l 239 464 l 239 -1 l 149 -1 l 149 464 l 17 464 z "},"ƛ":{"ha":614,"x_min":17,"x_max":597,"o":"m 17 0 l 272 712 q 228 847 272 712 l 128 789 l 90 854 l 204 920 l 168 1027 l 260 1027 l 281 964 l 398 1032 l 436 967 l 304 891 l 597 0 l 506 0 l 316 583 l 113 0 l 17 0 z "},"Ɯ":{"ha":1092,"x_min":92,"x_max":1005,"o":"m 707 73 q 905 174 802 73 l 905 1027 l 1005 1027 l 1005 0 l 905 0 l 905 107 q 746 -3 806 14 q 666 -12 715 -12 q 568 21 616 -12 q 504 118 519 53 q 414 39 439 58 q 269 -12 345 -12 q 142 38 193 -12 q 92 182 92 87 l 92 1027 l 192 1027 l 192 182 q 223 100 192 128 q 296 73 254 73 q 498 180 394 73 l 498 1027 l 598 1027 l 598 182 q 632 102 598 131 q 707 73 665 73 z "},"Ɲ":{"ha":848,"x_min":-26,"x_max":762,"o":"m 87 1027 l 247 1027 l 661 245 l 661 1027 l 762 1027 l 762 0 l 675 0 l 187 928 l 187 0 q 141 -186 187 -144 q 111 -211 123 -203 q 72 -224 98 -220 q 9 -229 37 -229 l -21 -229 l -26 -153 q 58 -130 28 -153 q 87 -7 87 -106 l 87 1027 z "},"ƞ":{"ha":658,"x_min":81,"x_max":583,"o":"m 81 0 l 81 715 l 171 715 l 171 598 q 284 690 231 657 q 410 723 338 723 q 533 675 483 723 q 583 533 583 628 l 583 -278 l 494 -278 l 494 533 q 457 615 494 584 q 379 647 421 647 q 171 530 279 647 l 171 0 l 81 0 z "},"Ɵ":{"ha":857,"x_min":54,"x_max":802,"o":"m 114 218 q 98 252 114 218 q 68 359 83 286 q 54 511 54 433 q 67 663 54 589 q 109 806 80 736 q 181 926 138 875 q 290 1008 224 977 q 433 1039 355 1039 q 574 1007 511 1039 q 679 924 637 976 q 749 803 720 872 q 802 510 802 673 q 648 68 802 212 q 435 -11 565 -11 q 296 19 359 -11 q 188 100 232 50 q 114 218 144 151 m 698 420 l 159 420 q 340 91 186 156 q 435 73 383 73 q 529 93 487 73 q 600 145 572 113 q 650 224 629 178 q 698 420 686 303 m 702 505 l 702 510 q 620 856 702 733 q 543 927 591 900 q 435 955 496 955 q 325 930 374 955 q 245 865 277 906 q 193 766 214 824 q 155 510 155 660 l 155 505 l 702 505 z "},"Ơ":{"ha":857,"x_min":54,"x_max":844,"o":"m 193 766 q 183 738 193 766 q 163 645 172 709 q 155 501 155 582 q 171 344 155 420 q 219 206 186 268 q 306 109 251 144 q 428 73 361 73 q 543 100 495 73 q 620 170 591 127 q 668 271 649 212 q 702 510 702 376 q 620 856 702 733 q 543 927 591 900 q 435 955 496 955 q 325 930 374 955 q 245 865 277 906 q 193 766 214 824 m 844 951 q 737 830 844 886 q 802 510 802 693 q 648 68 802 212 q 435 -11 565 -11 q 296 19 359 -11 q 188 100 232 50 q 114 218 144 151 q 54 510 54 348 q 109 806 54 675 q 290 1008 171 951 q 435 1039 355 1039 q 711 879 611 1039 q 750 989 816 925 q 716 1016 729 1009 l 771 1059 q 819 1016 793 1045 q 844 951 844 986 z "},"ơ":{"ha":659,"x_min":51,"x_max":688,"o":"m 140 358 q 252 85 140 143 q 330 68 286 68 q 409 85 374 68 q 463 131 443 103 q 496 198 484 159 q 519 357 519 267 q 330 647 519 647 q 140 358 140 647 m 51 362 q 51 444 51 362 q 124 625 51 526 q 339 723 198 723 q 553 596 480 723 q 622 672 622 627 q 598 716 622 691 q 561 748 574 741 l 616 791 q 663 748 638 777 q 688 688 688 718 q 673 635 688 659 q 633 594 657 611 q 574 558 598 570 l 572 559 q 608 357 608 476 q 535 93 608 194 q 330 -8 461 -8 q 123 96 197 -8 q 51 362 51 199 z "},"Ƣ":{"ha":1110,"x_min":54,"x_max":1019,"o":"m 193 766 q 183 738 193 766 q 163 645 172 709 q 155 501 155 582 q 171 344 155 420 q 219 206 186 268 q 306 109 251 144 q 428 73 361 73 q 543 100 495 73 q 620 170 591 127 q 668 271 649 212 q 702 510 702 376 q 620 856 702 733 q 543 927 591 900 q 435 955 496 955 q 325 930 374 955 q 245 865 277 906 q 193 766 214 824 m 114 218 q 98 252 114 218 q 68 359 83 286 q 54 511 54 433 q 67 663 54 589 q 109 806 80 736 q 181 926 138 875 q 290 1008 224 977 q 435 1039 355 1039 q 636 967 551 1039 q 798 1040 694 1040 q 960 977 901 1040 q 1019 822 1019 915 l 1019 2 l 918 2 l 918 822 q 883 916 918 874 q 797 958 848 958 q 693 905 745 958 q 775 726 748 830 q 802 533 802 621 q 793 383 802 445 q 766 262 785 321 q 718 154 748 203 q 648 68 688 105 q 435 -11 565 -11 q 296 19 359 -11 q 188 100 232 50 q 114 218 144 151 z "},"ƣ":{"ha":935,"x_min":51,"x_max":829,"o":"m 740 587 q 658 650 724 650 q 590 628 615 650 q 559 587 566 607 q 608 342 608 491 q 535 93 608 194 q 330 -8 461 -8 q 123 96 197 -8 q 51 362 51 199 q 124 625 51 526 q 330 723 198 723 q 430 705 376 723 q 511 653 483 687 q 541 689 520 671 q 658 724 583 724 q 735 710 702 724 q 786 675 769 696 q 827 601 821 634 l 829 587 l 829 -130 l 740 -130 l 740 587 m 140 358 q 252 85 140 143 q 330 68 286 68 q 409 85 374 68 q 463 131 443 103 q 496 198 484 159 q 519 357 519 267 q 330 647 519 647 q 140 358 140 647 z "},"Ƥ":{"ha":770,"x_min":-39,"x_max":724,"o":"m 92 962 q 41 953 52 962 q 30 913 30 944 q 34 866 30 882 l -35 875 q -39 916 -39 897 q -6 1003 -39 978 q 92 1027 26 1027 l 450 1027 q 685 901 610 1027 q 724 769 724 835 q 709 653 724 703 q 664 562 694 604 q 578 494 633 519 q 450 469 523 469 l 192 469 l 192 0 l 92 0 l 92 962 m 192 553 l 382 553 q 558 602 492 553 q 624 749 624 650 q 557 896 624 848 q 382 943 491 943 l 192 943 l 192 553 z "},"ƥ":{"ha":688,"x_min":87,"x_max":689,"o":"m 177 172 q 253 98 208 127 q 338 68 298 68 q 406 76 378 68 q 460 105 433 84 q 506 159 487 125 q 548 371 548 232 q 469 610 548 541 q 363 647 427 647 q 214 575 278 647 q 177 528 198 557 l 177 172 m 634 737 q 617 738 634 737 q 588 730 600 739 q 569 704 576 720 q 562 674 562 688 q 564 643 561 660 q 571 610 566 628 q 637 371 637 513 q 546 73 637 184 q 369 -7 479 -7 q 248 30 307 -7 q 177 95 190 68 l 177 -278 l 87 -278 l 87 715 l 177 715 l 177 604 q 231 665 193 635 q 379 723 301 723 q 518 671 457 723 q 609 807 514 801 q 689 793 654 809 l 689 724 q 634 737 667 734 z "},"Ʀ":{"ha":741,"x_min":92,"x_max":832,"o":"m 92 0 l 92 1118 l 192 1118 l 192 1027 l 437 1027 q 680 901 599 1027 q 724 758 724 833 q 681 591 724 667 q 526 486 633 509 l 832 -281 l 722 -281 l 423 469 l 192 469 l 192 0 l 92 0 m 192 553 l 447 553 q 568 598 518 553 q 624 753 624 648 q 473 932 624 892 q 376 943 429 943 l 192 943 l 192 553 z "},"Ƨ":{"ha":701,"x_min":27,"x_max":670,"o":"m 27 276 q 38 349 27 309 q 67 417 50 389 q 112 470 85 446 q 164 509 138 494 q 224 538 191 524 q 283 560 258 552 l 340 578 q 475 631 435 607 q 547 765 547 674 q 494 906 547 857 q 359 955 442 955 q 198 873 256 955 q 163 800 175 841 q 151 756 152 760 l 62 790 q 73 818 64 794 l 93 868 q 178 981 118 930 q 359 1039 246 1039 q 479 1015 424 1039 q 571 954 535 991 q 647 775 647 871 q 508 547 647 623 q 401 498 448 514 l 317 469 q 260 448 282 457 q 157 374 186 418 q 127 254 127 330 q 174 125 127 178 q 315 73 221 73 q 517 155 444 73 q 574 271 560 203 q 577 282 576 282 l 670 250 l 665 235 q 513 41 621 113 q 315 -11 434 -11 q 106 72 184 -11 q 27 276 27 156 z "},"ƨ":{"ha":595,"x_min":54,"x_max":541,"o":"m 433 496 q 445 553 445 517 q 408 617 445 588 q 312 647 370 647 q 249 640 267 647 l 222 631 q 202 616 214 627 l 184 602 q 166 583 180 598 q 147 563 152 568 l 85 609 q 143 669 107 641 q 309 723 214 723 q 468 671 405 723 q 532 532 532 619 q 431 375 532 433 q 331 335 382 347 q 254 314 279 323 q 201 289 229 304 q 144 188 144 255 q 213 83 144 113 q 298 68 247 68 q 474 179 403 68 l 541 136 q 433 27 494 61 q 281 -7 372 -7 q 123 50 191 -7 q 54 197 54 108 q 110 332 54 286 q 286 414 166 378 q 433 496 406 450 z "},"Ʃ":{"ha":770,"x_min":46,"x_max":724,"o":"m 326 505 l 46 944 l 46 1030 l 692 1030 l 692 941 l 169 941 l 450 505 l 190 96 l 724 96 l 724 0 l 46 0 l 46 73 l 326 505 z "},"ƪ":{"ha":450,"x_min":9,"x_max":441,"o":"m 441 -153 q 386 -159 435 -159 q 190 0 190 -159 l 190 867 q 190 902 190 880 q 189 935 189 924 q 120 930 168 930 q 41 965 73 930 q 9 1044 9 999 q 40 1123 9 1089 q 127 1156 72 1156 q 266 1055 235 1156 l 267 1054 l 267 1053 q 281 949 281 1004 l 279 853 l 279 0 q 326 -72 279 -60 q 381 -77 347 -77 l 441 -77 l 441 -153 m 186 1002 q 131 1087 178 1087 q 91 1075 106 1087 q 75 1045 75 1062 q 90 1012 75 1028 q 138 996 104 996 q 186 1002 171 996 z "},"ƫ":{"ha":411,"x_min":24,"x_max":415,"o":"m 407 0 q 411 -26 407 0 q 413 -86 415 -51 q 392 -143 410 -121 q 343 -173 373 -165 q 259 -176 303 -183 l 251 -108 q 299 -108 258 -112 q 353 -90 340 -104 q 357 -5 376 -59 q 301 -9 333 -9 q 254 -7 269 -9 q 216 6 238 -5 q 179 37 193 17 q 145 186 145 84 l 145 640 l 24 640 l 24 715 l 145 715 l 145 977 l 235 977 l 235 715 l 399 715 l 399 640 l 235 640 l 235 186 q 256 92 235 117 q 325 67 277 67 q 372 71 345 67 q 399 75 399 74 q 407 0 399 50 z "},"Ƭ":{"ha":720,"x_min":0,"x_max":703,"o":"m 131 943 q 80 935 92 943 q 69 895 69 926 q 73 848 69 864 l 7 848 q 0 897 0 873 q 35 995 0 962 q 131 1027 69 1027 l 703 1027 l 703 943 l 410 943 l 410 0 l 310 0 l 310 943 l 131 943 z "},"ƭ":{"ha":411,"x_min":24,"x_max":399,"o":"m 24 640 l 24 715 l 145 715 l 145 977 q 178 1066 145 1042 q 260 1090 211 1090 q 342 1076 309 1090 l 338 1006 q 278 1020 309 1020 q 241 1010 248 1020 q 235 977 235 1001 l 235 715 l 399 715 l 399 640 l 235 640 l 235 186 q 256 92 235 117 q 325 67 277 67 q 372 71 345 67 q 399 75 399 74 l 399 7 q 312 -9 354 -9 q 254 -7 269 -9 q 216 6 238 -5 q 179 37 193 17 q 145 186 145 84 l 145 640 l 24 640 z "},"Ʈ":{"ha":720,"x_min":17,"x_max":703,"o":"m 310 7 l 310 943 l 17 943 l 17 1027 l 703 1027 l 703 943 l 410 943 l 410 0 q 439 -123 410 -99 q 524 -146 469 -146 l 518 -222 l 513 -222 q 387 -205 414 -222 q 332 -145 342 -176 q 310 7 310 -78 z "},"Ư":{"ha":846,"x_min":92,"x_max":882,"o":"m 736 973 q 792 1000 766 979 q 813 1044 818 1021 q 792 1094 809 1067 q 766 1126 775 1122 l 827 1147 q 864 1110 846 1136 q 882 1048 882 1084 q 736 915 882 960 l 736 309 q 675 110 736 197 q 413 -11 594 -11 q 122 161 197 -11 q 92 309 92 233 l 92 1027 l 192 1027 l 192 309 q 237 153 192 216 q 413 73 293 73 q 624 235 591 73 q 631 309 631 270 l 631 1027 l 736 1027 l 736 973 z "},"ư":{"ha":664,"x_min":87,"x_max":737,"o":"m 87 182 l 87 715 l 177 715 l 177 182 q 213 100 177 132 q 292 68 250 68 q 500 186 392 68 l 500 715 l 589 715 l 589 677 q 664 730 652 690 q 653 778 669 749 q 625 819 637 807 l 689 846 q 727 783 716 818 q 731 724 737 747 q 705 682 725 701 q 659 654 684 664 q 589 633 617 637 l 589 0 l 500 0 l 500 118 q 335 3 404 24 q 266 -7 302 -7 q 138 40 188 -7 q 87 182 87 87 z "},"Ʊ":{"ha":919,"x_min":54,"x_max":865,"o":"m 562 931 l 562 1027 l 865 1027 l 865 931 l 709 931 q 823 733 781 859 q 865 506 865 607 q 849 332 865 405 q 799 197 833 260 q 718 87 766 134 q 453 -12 614 -12 q 119 203 230 -12 q 54 468 54 328 q 93 733 54 608 q 201 931 131 859 l 54 931 l 54 1027 l 348 1027 l 348 931 q 261 858 300 908 q 200 744 222 807 q 155 484 155 615 q 224 204 155 325 q 318 108 259 144 q 453 73 377 73 q 590 104 530 73 q 688 192 650 136 q 764 468 764 305 q 710 759 764 631 q 562 931 656 888 z "},"Ʋ":{"ha":761,"x_min":17,"x_max":749,"o":"m 427 0 l 322 0 l 17 1027 l 121 1027 l 374 176 q 625 856 577 650 q 649 1023 649 956 q 631 1057 649 1041 q 572 1090 607 1079 l 600 1174 q 691 1142 663 1161 q 749 1049 749 1103 q 739 928 749 995 q 707 777 730 861 l 665 630 q 607 463 646 568 l 549 309 l 427 0 z "},"Ƴ":{"ha":761,"x_min":-95,"x_max":744,"o":"m -41 902 l -95 945 q -88 959 -95 945 q -43 1019 -64 1005 q 119 1004 47 1083 q 192 899 159 961 l 380 544 l 640 1027 l 744 1027 l 431 448 l 431 0 l 330 0 l 330 448 q 227 645 302 496 q 100 876 151 795 q 22 957 50 957 q -13 944 1 957 q -41 902 -26 932 z "},"ƴ":{"ha":614,"x_min":17,"x_max":762,"o":"m 186 -256 q 165 -261 186 -256 q 102 -267 144 -267 q 18 -261 59 -267 l 25 -179 q 90 -191 50 -191 q 157 -180 131 -191 q 201 -153 184 -170 q 232 -116 218 -136 q 254 -76 245 -96 q 274 -2 268 -38 l 17 715 l 113 715 l 316 133 l 481 642 q 534 740 502 706 q 621 774 567 774 q 762 681 708 774 l 696 639 q 626 694 663 694 q 572 642 589 694 l 347 -43 q 270 -201 309 -159 q 186 -256 227 -245 z "},"Ƶ":{"ha":774,"x_min":46,"x_max":728,"o":"m 79 465 l 79 549 l 353 549 l 606 941 l 83 941 l 83 1027 l 728 1027 l 728 944 l 477 549 l 708 549 l 708 465 l 425 465 l 190 96 l 724 96 l 724 0 l 46 0 l 46 73 l 299 465 l 79 465 z "},"ƶ":{"ha":528,"x_min":17,"x_max":511,"o":"m 83 321 l 83 397 l 239 397 l 397 640 l 53 640 l 53 715 l 511 715 l 511 665 l 334 397 l 438 397 l 438 321 l 285 321 l 126 81 l 511 81 l 511 0 l 17 0 l 17 58 l 189 321 l 83 321 z "},"Ʒ":{"ha":752,"x_min":47,"x_max":706,"o":"m 47 161 l 116 220 q 149 181 116 220 q 227 115 191 133 q 383 77 300 77 q 536 149 467 77 q 606 323 606 221 q 557 469 606 423 q 489 513 523 503 q 432 527 454 523 q 375 533 409 531 q 248 537 321 537 l 248 633 l 572 941 l 83 941 l 83 1027 l 706 1027 l 706 944 l 393 633 q 392 631 392 632 q 391 631 392 631 l 410 631 q 582 579 497 631 q 688 445 656 534 q 706 330 706 393 q 614 84 706 175 q 374 -7 522 -7 q 47 161 180 -7 z "},"Ƹ":{"ha":752,"x_min":47,"x_max":706,"o":"m 362 631 q 361 633 361 632 l 47 944 l 47 1027 l 671 1027 l 671 941 l 182 941 l 505 633 l 505 537 q 339 530 378 537 q 273 515 299 523 q 230 496 247 507 q 196 469 212 485 q 170 433 179 453 q 148 323 148 387 q 217 149 148 221 q 380 77 287 77 q 605 181 513 77 l 637 220 l 706 161 q 380 -7 574 -7 q 140 84 232 -7 q 47 330 47 175 q 110 526 47 457 q 239 611 168 591 q 345 631 308 631 l 362 631 z "},"ƹ":{"ha":639,"x_min":18,"x_max":623,"o":"m 623 -119 q 427 -266 545 -230 q 339 -279 384 -279 q 179 -241 252 -279 q 62 -127 107 -203 q 18 50 18 -51 q 100 237 18 164 q 182 286 135 268 q 252 308 229 303 q 334 319 301 317 q 334 319 334 319 q 333 321 334 320 l 20 642 l 20 715 l 587 715 l 587 640 l 154 640 l 477 321 l 477 236 q 235 203 311 233 q 123 117 150 170 q 107 43 107 85 q 177 -131 107 -58 q 339 -203 246 -203 q 509 -119 428 -203 q 554 -60 545 -82 l 623 -119 z "},"ƺ":{"ha":657,"x_min":17,"x_max":640,"o":"m 442 59 q 463 66 442 59 q 509 98 484 73 q 535 153 535 123 q 527 200 535 182 q 495 228 518 217 q 451 244 472 238 q 385 254 431 251 q 212 257 314 257 l 212 353 l 506 627 l 17 627 l 17 715 l 640 715 l 640 629 l 356 352 q 355 351 355 351 q 372 351 355 351 q 522 320 450 351 q 631 165 631 273 q 605 74 631 114 q 537 10 579 34 q 444 -32 495 -14 q 343 -62 393 -50 q 250 -85 292 -74 q 156 -153 156 -113 q 184 -189 156 -179 q 262 -198 213 -198 q 364 -190 311 -198 q 427 -176 416 -182 l 448 -262 q 264 -281 350 -281 q 123 -251 178 -281 q 68 -166 68 -220 q 94 -77 68 -111 q 161 -24 119 -43 q 252 8 202 -5 q 351 33 301 22 q 442 59 401 45 z "},"ƻ":{"ha":800,"x_min":61,"x_max":712,"o":"m 71 412 l 71 501 l 423 501 q 492 551 423 501 q 548 600 533 583 q 576 635 562 616 q 595 671 589 654 q 612 757 612 713 q 562 895 612 843 q 411 946 513 946 q 310 925 355 946 q 241 872 266 905 q 191 738 191 808 l 90 738 q 137 892 90 823 q 260 998 184 961 q 418 1036 336 1036 q 567 999 500 1036 q 673 898 633 962 q 712 757 712 833 q 667 605 712 669 q 572 501 631 553 l 700 501 l 700 412 l 458 412 q 171 96 182 196 l 698 96 l 698 0 l 61 0 q 76 138 61 102 q 108 205 90 173 q 151 266 125 237 q 304 412 211 336 l 71 412 z "},"Ƽ":{"ha":806,"x_min":17,"x_max":739,"o":"m 17 937 l 17 1025 l 682 1025 l 682 937 l 266 937 l 266 631 q 374 687 307 671 q 431 694 402 694 q 652 602 565 694 q 739 354 739 509 q 649 95 739 198 q 417 -7 559 -7 q 194 92 290 -7 q 133 187 145 142 l 199 238 q 252 159 213 198 q 414 81 330 81 q 555 140 490 81 q 638 361 638 214 q 536 582 638 525 q 427 610 486 610 q 315 566 367 610 q 258 490 262 523 l 165 490 l 165 937 l 17 937 z "},"ƽ":{"ha":593,"x_min":24,"x_max":538,"o":"m 449 250 q 311 416 449 416 q 237 390 269 416 q 202 340 205 363 l 119 340 l 119 640 l 24 640 l 24 715 l 490 715 l 490 640 l 208 640 l 208 448 q 314 492 252 492 q 473 423 408 492 q 538 245 538 354 q 472 65 538 137 q 304 -7 406 -7 q 123 92 195 -7 q 102 134 107 115 l 154 168 q 193 119 166 143 q 302 71 243 71 q 434 157 400 71 q 449 250 449 196 z "},"ƾ":{"ha":585,"x_min":63,"x_max":524,"o":"m 195 709 l 64 709 l 64 785 l 195 785 l 195 1027 l 285 1027 l 285 785 l 420 785 l 420 709 l 285 709 q 369 547 285 641 q 439 467 369 547 q 524 263 524 366 q 495 134 524 194 q 411 37 466 75 q 279 0 357 0 q 150 34 201 0 q 63 136 99 68 l 131 182 q 170 126 154 144 q 288 87 205 87 q 385 138 338 87 q 431 263 431 189 q 348 444 431 348 l 279 525 q 195 709 195 622 z "},"ƿ":{"ha":648,"x_min":87,"x_max":597,"o":"m 87 0 l 87 794 l 177 794 l 177 747 q 355 806 241 806 q 587 636 541 806 q 597 552 597 596 q 582 463 597 509 q 543 381 567 417 q 483 312 519 345 q 412 254 447 278 q 332 205 376 229 q 177 136 260 168 l 177 0 l 87 0 m 508 553 q 355 722 508 722 q 199 652 261 722 q 177 621 186 637 l 177 220 q 324 285 276 254 q 405 343 372 316 q 458 401 437 371 q 508 553 508 471 z "},"ǀ":{"ha":236,"x_min":68,"x_max":168,"o":"m 68 -90 l 68 1060 l 168 1060 l 168 -90 l 68 -90 z "},"ǁ":{"ha":472,"x_min":68,"x_max":404,"o":"m 304 -90 l 304 1060 l 404 1060 l 404 -90 l 304 -90 m 68 -90 l 68 1060 l 168 1060 l 168 -90 l 68 -90 z "},"ǂ":{"ha":457,"x_min":51,"x_max":406,"o":"m 51 528 l 51 618 l 178 618 l 178 1060 l 279 1060 l 279 618 l 406 618 l 406 528 l 279 528 l 279 433 l 406 433 l 406 344 l 279 344 l 279 -90 l 178 -90 l 178 344 l 51 344 l 51 433 l 178 433 l 178 528 l 51 528 z "},"ǃ":{"ha":227,"x_min":62,"x_max":164,"o":"m 62 0 l 62 102 l 164 102 l 164 0 l 62 0 m 62 981 l 164 981 l 149 203 l 78 203 l 62 981 z "},"Ǆ":{"ha":1598,"x_min":92,"x_max":1552,"o":"m 1078 1272 l 1122 1316 l 1229 1210 l 1335 1316 l 1379 1272 l 1229 1122 l 1078 1272 m 869 0 l 869 73 l 1429 941 l 906 941 l 906 1027 l 1552 1027 l 1552 944 l 1013 96 l 1548 96 l 1548 0 l 869 0 m 92 0 l 92 1027 l 336 1027 q 753 725 677 1027 q 777 526 777 627 q 763 352 777 424 q 716 215 749 280 q 633 102 683 149 q 336 0 524 0 l 92 0 m 192 84 l 336 84 q 637 273 558 84 q 677 505 677 368 q 583 852 677 749 q 484 918 547 892 q 336 943 421 943 l 192 943 l 192 84 z "},"ǅ":{"ha":1352,"x_min":92,"x_max":1335,"o":"m 955 956 l 999 1000 l 1105 894 l 1211 1000 l 1256 956 l 1105 806 l 955 956 m 840 0 l 840 58 l 1220 640 l 876 640 l 876 715 l 1335 715 l 1335 665 l 949 81 l 1335 81 l 1335 0 l 840 0 m 92 0 l 92 1027 l 336 1027 q 753 725 677 1027 q 777 526 777 627 q 763 352 777 424 q 716 215 749 280 q 633 102 683 149 q 336 0 524 0 l 92 0 m 192 84 l 336 84 q 637 273 558 84 q 677 505 677 368 q 583 852 677 749 q 484 918 547 892 q 336 943 421 943 l 192 943 l 192 84 z "},"ǆ":{"ha":1196,"x_min":51,"x_max":1179,"o":"m 799 956 l 843 1000 l 949 894 l 1055 1000 l 1100 956 l 949 806 l 799 956 m 684 0 l 684 58 l 1064 640 l 720 640 l 720 715 l 1179 715 l 1179 665 l 793 81 l 1179 81 l 1179 0 l 684 0 m 503 113 q 311 -7 434 -7 q 198 23 249 -7 q 116 105 147 54 q 51 346 51 212 q 83 531 51 446 q 178 670 115 616 q 311 723 240 723 q 436 686 382 723 q 503 622 490 650 l 503 1027 l 593 1027 l 593 99 q 598 46 593 79 q 610 0 604 13 l 520 0 q 503 113 503 8 m 140 346 q 183 149 140 226 q 325 68 228 68 q 431 105 389 68 q 503 189 464 134 l 503 545 q 342 647 431 647 q 140 346 140 647 z "},"Ǉ":{"ha":1239,"x_min":92,"x_max":1147,"o":"m 648 165 l 718 201 q 778 118 734 158 q 827 87 796 101 q 893 73 859 73 q 1011 130 976 73 q 1047 291 1047 186 l 1047 1027 l 1147 1027 l 1147 291 q 1000 8 1147 70 q 897 -11 954 -11 q 795 7 840 -11 q 725 48 750 25 q 681 100 700 71 q 648 165 654 141 m 92 0 l 92 1027 l 192 1027 l 192 96 l 648 96 l 648 0 l 92 0 z "},"ǈ":{"ha":910,"x_min":92,"x_max":842,"o":"m 740 806 l 740 907 l 842 907 l 842 806 l 740 806 m 622 -153 q 717 -130 688 -153 q 746 -20 746 -106 l 746 715 l 836 715 l 836 0 q 807 -161 836 -116 q 787 -190 796 -178 q 762 -209 779 -201 q 734 -220 745 -216 q 703 -226 724 -224 q 652 -229 674 -229 l 627 -229 l 622 -153 m 92 0 l 92 1027 l 192 1027 l 192 96 l 648 96 l 648 0 l 92 0 z "},"ǉ":{"ha":511,"x_min":87,"x_max":443,"o":"m 341 806 l 341 907 l 443 907 l 443 806 l 341 806 m 223 -153 q 318 -130 289 -153 q 347 -20 347 -106 l 347 715 l 437 715 l 437 0 q 408 -161 437 -116 q 389 -190 397 -178 q 363 -209 380 -201 q 336 -220 347 -216 q 304 -226 325 -224 q 253 -229 275 -229 l 229 -229 l 223 -153 m 87 -1 l 87 1027 l 177 1027 l 177 -1 l 87 -1 z "},"Ǌ":{"ha":1456,"x_min":87,"x_max":1364,"o":"m 865 165 l 935 201 q 995 118 951 158 q 1044 87 1013 101 q 1110 73 1076 73 q 1229 130 1193 73 q 1264 291 1264 186 l 1264 1027 l 1364 1027 l 1364 291 q 1217 8 1364 70 q 1114 -11 1171 -11 q 1012 7 1057 -11 q 942 48 967 25 q 898 100 917 71 q 865 165 871 141 m 87 0 l 87 1027 l 247 1027 l 661 245 l 661 1027 l 762 1027 l 762 0 l 675 0 l 187 928 l 187 0 l 87 0 z "},"ǋ":{"ha":1094,"x_min":87,"x_max":1025,"o":"m 924 806 l 924 907 l 1025 907 l 1025 806 l 924 806 m 806 -153 q 901 -130 871 -153 q 930 -20 930 -106 l 930 715 l 1019 715 l 1019 0 q 991 -161 1019 -116 q 971 -190 980 -178 q 946 -209 962 -201 q 918 -220 929 -216 q 886 -226 907 -224 q 836 -229 858 -229 l 811 -229 l 806 -153 m 87 0 l 87 1027 l 247 1027 l 661 245 l 661 1027 l 762 1027 l 762 0 l 675 0 l 187 928 l 187 0 l 87 0 z "},"ǌ":{"ha":903,"x_min":81,"x_max":835,"o":"m 733 806 l 733 907 l 835 907 l 835 806 l 733 806 m 615 -153 q 710 -130 681 -153 q 739 -20 739 -106 l 739 715 l 829 715 l 829 0 q 800 -161 829 -116 q 781 -190 789 -178 q 755 -209 772 -201 q 728 -220 739 -216 q 696 -226 717 -224 q 645 -229 667 -229 l 621 -229 l 615 -153 m 81 0 l 81 715 l 171 715 l 171 598 q 284 690 231 657 q 410 723 338 723 q 533 675 483 723 q 583 533 583 628 l 583 0 l 494 0 l 494 533 q 457 615 494 584 q 379 647 421 647 q 171 530 279 647 l 171 0 l 81 0 z "},"Ǎ":{"ha":766,"x_min":17,"x_max":749,"o":"m 233 1272 l 277 1316 l 383 1210 l 489 1316 l 534 1272 l 383 1122 l 233 1272 m 17 0 l 310 1027 l 456 1027 l 749 0 l 645 0 l 557 324 l 212 324 l 121 0 l 17 0 m 235 408 l 533 408 l 383 942 l 235 408 z "},"ǎ":{"ha":629,"x_min":49,"x_max":572,"o":"m 174 956 l 218 1000 l 324 894 l 430 1000 l 475 956 l 324 806 l 174 956 m 49 175 q 49 199 49 175 q 61 259 49 223 q 99 324 73 296 q 159 374 125 352 q 241 413 192 395 q 462 471 332 445 q 420 614 462 578 q 314 646 384 646 q 167 581 229 646 q 130 533 140 554 l 66 576 q 324 722 142 722 q 533 596 488 722 q 551 473 551 545 l 551 100 q 559 47 551 81 q 572 0 566 13 l 482 0 q 462 114 462 10 q 251 -9 366 -9 q 74 81 123 -9 q 49 175 49 126 m 155 252 q 138 171 138 221 q 174 94 138 121 q 252 67 209 67 q 328 80 295 67 q 388 113 361 93 q 462 180 437 151 l 462 395 q 309 354 333 361 q 155 252 190 315 z "},"Ǐ":{"ha":283,"x_min":-9,"x_max":292,"o":"m -9 1272 l 35 1316 l 142 1210 l 248 1316 l 292 1272 l 142 1122 l -9 1272 m 92 0 l 92 1027 l 192 1027 l 192 0 l 92 0 z "},"ǐ":{"ha":283,"x_min":-18,"x_max":283,"o":"m -18 956 l 26 1000 l 132 894 l 238 1000 l 283 956 l 132 806 l -18 956 m 87 0 l 87 715 l 177 715 l 177 0 l 87 0 z "},"Ǒ":{"ha":857,"x_min":54,"x_max":802,"o":"m 284 1272 l 328 1316 l 435 1210 l 541 1316 l 585 1272 l 435 1122 l 284 1272 m 114 218 q 98 252 114 218 q 68 359 83 286 q 54 511 54 433 q 67 663 54 589 q 109 806 80 736 q 181 926 138 875 q 290 1008 224 977 q 433 1039 355 1039 q 574 1007 511 1039 q 679 924 637 976 q 749 803 720 872 q 802 510 802 673 q 648 68 802 212 q 435 -11 565 -11 q 296 19 359 -11 q 188 100 232 50 q 114 218 144 151 m 193 766 q 183 738 193 766 q 163 645 172 709 q 155 501 155 582 q 171 344 155 420 q 219 206 186 268 q 306 109 251 144 q 428 73 361 73 q 543 100 495 73 q 620 170 591 127 q 668 271 649 212 q 702 510 702 376 q 620 856 702 733 q 543 927 591 900 q 435 955 496 955 q 325 930 374 955 q 245 865 277 906 q 193 766 214 824 z "},"ǒ":{"ha":659,"x_min":51,"x_max":608,"o":"m 180 956 l 224 1000 l 330 894 l 436 1000 l 481 956 l 330 806 l 180 956 m 51 362 q 51 444 51 362 q 124 625 51 526 q 330 723 198 723 q 535 624 463 723 q 608 359 608 525 q 535 93 608 194 q 330 -8 461 -8 q 123 96 197 -8 q 51 362 51 199 m 140 358 q 252 85 140 143 q 330 68 286 68 q 409 85 374 68 q 463 131 443 103 q 496 198 484 159 q 519 357 519 267 q 330 647 519 647 q 140 358 140 647 z "},"Ǔ":{"ha":823,"x_min":92,"x_max":736,"o":"m 263 1272 l 307 1316 l 414 1210 l 519 1316 l 564 1272 l 414 1122 l 263 1272 m 92 309 l 92 1027 l 192 1027 l 192 309 q 237 153 192 216 q 413 73 293 73 q 625 235 592 73 q 633 309 633 272 l 633 1027 l 736 1027 l 736 309 q 675 110 736 197 q 413 -11 594 -11 q 122 161 197 -11 q 92 309 92 233 z "},"ǔ":{"ha":664,"x_min":87,"x_max":589,"o":"m 188 956 l 232 1000 l 338 894 l 444 1000 l 489 956 l 338 806 l 188 956 m 87 182 l 87 715 l 177 715 l 177 182 q 213 100 177 132 q 292 68 250 68 q 500 186 392 68 l 500 715 l 589 715 l 589 0 l 500 0 l 500 118 q 335 3 404 24 q 266 -7 302 -7 q 138 40 188 -7 q 87 182 87 87 z "},"Ǖ":{"ha":823,"x_min":92,"x_max":736,"o":"m 234 1306 l 234 1369 l 591 1369 l 591 1306 l 234 1306 m 254 1122 l 254 1223 l 355 1223 l 355 1122 l 254 1122 m 470 1122 l 470 1223 l 572 1223 l 572 1122 l 470 1122 m 92 309 l 92 1027 l 192 1027 l 192 309 q 237 153 192 216 q 413 73 293 73 q 625 235 592 73 q 633 309 633 272 l 633 1027 l 736 1027 l 736 309 q 675 110 736 197 q 413 -11 594 -11 q 122 161 197 -11 q 92 309 92 233 z "},"ǖ":{"ha":664,"x_min":87,"x_max":589,"o":"m 160 990 l 160 1053 l 517 1053 l 517 990 l 160 990 m 179 806 l 179 907 l 281 907 l 281 806 l 179 806 m 395 806 l 395 907 l 497 907 l 497 806 l 395 806 m 87 182 l 87 715 l 177 715 l 177 182 q 213 100 177 132 q 292 68 250 68 q 500 186 392 68 l 500 715 l 589 715 l 589 0 l 500 0 l 500 118 q 335 3 404 24 q 266 -7 302 -7 q 138 40 188 -7 q 87 182 87 87 z "},"Ǘ":{"ha":823,"x_min":92,"x_max":736,"o":"m 368 1295 l 568 1495 l 627 1436 l 412 1251 l 368 1295 m 254 1122 l 254 1223 l 355 1223 l 355 1122 l 254 1122 m 470 1122 l 470 1223 l 572 1223 l 572 1122 l 470 1122 m 92 309 l 92 1027 l 192 1027 l 192 309 q 237 153 192 216 q 413 73 293 73 q 625 235 592 73 q 633 309 633 272 l 633 1027 l 736 1027 l 736 309 q 675 110 736 197 q 413 -11 594 -11 q 122 161 197 -11 q 92 309 92 233 z "},"ǘ":{"ha":664,"x_min":87,"x_max":589,"o":"m 294 1034 l 494 1234 l 553 1175 l 338 990 l 294 1034 m 179 806 l 179 907 l 281 907 l 281 806 l 179 806 m 395 806 l 395 907 l 497 907 l 497 806 l 395 806 m 87 182 l 87 715 l 177 715 l 177 182 q 213 100 177 132 q 292 68 250 68 q 500 186 392 68 l 500 715 l 589 715 l 589 0 l 500 0 l 500 118 q 335 3 404 24 q 266 -7 302 -7 q 138 40 188 -7 q 87 182 87 87 z "},"Ǚ":{"ha":823,"x_min":92,"x_max":736,"o":"m 262 1457 l 306 1501 l 412 1394 l 518 1500 l 563 1457 l 412 1306 l 262 1457 m 254 1122 l 254 1223 l 355 1223 l 355 1122 l 254 1122 m 470 1122 l 470 1223 l 572 1223 l 572 1122 l 470 1122 m 92 309 l 92 1027 l 192 1027 l 192 309 q 237 153 192 216 q 413 73 293 73 q 625 235 592 73 q 633 309 633 272 l 633 1027 l 736 1027 l 736 309 q 675 110 736 197 q 413 -11 594 -11 q 122 161 197 -11 q 92 309 92 233 z "},"ǚ":{"ha":664,"x_min":87,"x_max":589,"o":"m 188 1141 l 232 1185 l 338 1078 l 444 1184 l 489 1141 l 338 990 l 188 1141 m 179 806 l 179 907 l 281 907 l 281 806 l 179 806 m 395 806 l 395 907 l 497 907 l 497 806 l 395 806 m 87 182 l 87 715 l 177 715 l 177 182 q 213 100 177 132 q 292 68 250 68 q 500 186 392 68 l 500 715 l 589 715 l 589 0 l 500 0 l 500 118 q 335 3 404 24 q 266 -7 302 -7 q 138 40 188 -7 q 87 182 87 87 z "},"Ǜ":{"ha":823,"x_min":92,"x_max":736,"o":"m 199 1449 l 258 1508 l 458 1308 l 413 1263 l 199 1449 m 254 1122 l 254 1223 l 355 1223 l 355 1122 l 254 1122 m 470 1122 l 470 1223 l 572 1223 l 572 1122 l 470 1122 m 92 309 l 92 1027 l 192 1027 l 192 309 q 237 153 192 216 q 413 73 293 73 q 625 235 592 73 q 633 309 633 272 l 633 1027 l 736 1027 l 736 309 q 675 110 736 197 q 413 -11 594 -11 q 122 161 197 -11 q 92 309 92 233 z "},"ǜ":{"ha":664,"x_min":87,"x_max":589,"o":"m 124 1175 l 183 1234 l 383 1034 l 338 990 l 124 1175 m 179 806 l 179 907 l 281 907 l 281 806 l 179 806 m 395 806 l 395 907 l 497 907 l 497 806 l 395 806 m 87 182 l 87 715 l 177 715 l 177 182 q 213 100 177 132 q 292 68 250 68 q 500 186 392 68 l 500 715 l 589 715 l 589 0 l 500 0 l 500 118 q 335 3 404 24 q 266 -7 302 -7 q 138 40 188 -7 q 87 182 87 87 z "},"ǝ":{"ha":627,"x_min":51,"x_max":572,"o":"z "},"Ǟ":{"ha":766,"x_min":17,"x_max":749,"o":"m 205 1306 l 205 1369 l 562 1369 l 562 1306 l 205 1306 m 224 1122 l 224 1223 l 326 1223 l 326 1122 l 224 1122 m 440 1122 l 440 1223 l 542 1223 l 542 1122 l 440 1122 m 17 0 l 310 1027 l 456 1027 l 749 0 l 645 0 l 557 324 l 212 324 l 121 0 l 17 0 m 235 408 l 533 408 l 383 942 l 235 408 z "},"ǟ":{"ha":629,"x_min":49,"x_max":572,"o":"m 145 990 l 145 1053 l 503 1053 l 503 990 l 145 990 m 165 806 l 165 907 l 267 907 l 267 806 l 165 806 m 382 806 l 382 907 l 484 907 l 484 806 l 382 806 m 49 175 q 49 199 49 175 q 61 259 49 223 q 99 324 73 296 q 159 374 125 352 q 241 413 192 395 q 462 471 332 445 q 420 614 462 578 q 314 646 384 646 q 167 581 229 646 q 130 533 140 554 l 66 576 q 324 722 142 722 q 533 596 488 722 q 551 473 551 545 l 551 100 q 559 47 551 81 q 572 0 566 13 l 482 0 q 462 114 462 10 q 251 -9 366 -9 q 74 81 123 -9 q 49 175 49 126 m 155 252 q 138 171 138 221 q 174 94 138 121 q 252 67 209 67 q 328 80 295 67 q 388 113 361 93 q 462 180 437 151 l 462 395 q 309 354 333 361 q 155 252 190 315 z "},"Ǡ":{"ha":766,"x_min":17,"x_max":749,"o":"m 205 1306 l 205 1369 l 562 1369 l 562 1306 l 205 1306 z "},"ǡ":{"ha":629,"x_min":49,"x_max":572,"o":"m 145 990 l 145 1053 l 503 1053 l 503 990 l 145 990 z "},"Ǣ":{"ha":1085,"x_min":17,"x_max":1039,"o":"m 483 1122 l 483 1184 l 840 1184 l 840 1122 l 483 1122 m 17 0 l 310 1027 l 1013 1027 l 1013 943 l 557 943 l 557 582 l 884 582 l 884 498 l 557 498 l 557 90 l 1039 90 l 1039 0 l 456 0 l 456 324 l 212 324 l 121 0 l 17 0 m 235 408 l 456 408 l 456 942 l 383 942 l 235 408 z "},"ǣ":{"ha":1036,"x_min":49,"x_max":981,"o":"m 349 806 l 349 868 l 706 868 l 706 806 l 349 806 m 49 176 q 49 200 49 176 q 61 261 49 224 q 99 325 73 297 q 159 375 125 353 q 241 414 192 397 q 462 472 332 446 q 420 615 462 579 q 314 647 384 647 q 167 582 229 647 q 130 534 140 555 l 66 577 q 324 723 142 723 q 525 616 474 723 q 730 723 595 723 q 920 620 855 723 q 979 348 979 528 l 549 348 q 640 101 549 167 q 732 68 686 68 q 811 84 778 68 q 865 122 844 99 q 920 198 907 168 l 981 155 q 912 66 956 105 q 744 -7 831 -7 q 593 36 656 -7 q 495 157 530 80 q 251 -7 385 -7 q 74 82 123 -7 q 49 176 49 127 m 155 254 q 138 172 138 222 q 174 95 138 122 q 250 68 209 68 q 321 80 292 68 q 374 106 351 91 q 420 141 397 121 q 477 199 453 171 q 460 321 460 246 q 461 358 460 334 q 462 396 462 383 q 309 355 333 363 q 155 254 190 317 m 553 424 l 889 424 q 842 591 889 525 q 730 647 803 647 q 572 537 612 647 q 553 424 553 486 z "},"Ǥ":{"ha":845,"x_min":54,"x_max":828,"o":"m 473 256 l 473 340 l 658 340 q 660 401 660 370 l 431 401 l 431 485 l 758 485 l 758 340 l 828 340 l 828 256 l 758 256 l 758 0 l 677 0 l 677 130 q 515 0 600 24 q 414 -11 477 -11 q 287 20 352 -11 q 180 103 222 52 q 109 224 137 155 q 54 521 54 354 q 92 766 54 650 q 214 960 130 882 q 431 1039 301 1039 q 611 981 527 1039 q 754 745 709 914 l 656 721 q 654 734 655 726 q 647 767 653 743 q 631 813 640 791 q 605 862 623 836 q 564 909 587 889 q 434 955 513 955 q 300 918 355 955 q 214 818 244 882 q 155 521 155 696 q 209 209 155 312 q 433 73 280 73 q 576 120 526 73 q 647 256 627 168 l 473 256 z "},"ǥ":{"ha":682,"x_min":28,"x_max":660,"o":"m 313 464 l 313 540 l 493 540 q 439 618 477 589 q 332 647 401 647 q 212 597 262 647 q 161 467 161 547 q 209 335 161 388 q 338 283 256 283 q 461 335 419 283 q 505 464 503 388 l 313 464 m 118 -115 q 190 -205 118 -181 q 306 -226 252 -226 q 377 -225 359 -226 q 422 -223 395 -225 q 468 -216 450 -220 q 507 -203 486 -212 q 540 -182 528 -194 q 568 -113 568 -153 q 541 -48 568 -72 q 472 -14 514 -24 q 390 1 431 -3 q 312 7 349 5 q 268 11 275 9 q 174 -29 195 -16 q 118 -115 118 -62 m 129 -260 q 56 -202 83 -239 q 28 -127 28 -164 q 39 -71 28 -91 q 70 -34 49 -50 q 105 -8 90 -18 q 147 15 121 2 q 179 32 174 28 q 95 73 123 43 q 66 126 66 102 q 76 170 66 150 q 103 206 85 189 q 153 245 133 233 q 174 258 172 257 q 103 349 134 293 q 72 472 72 405 q 109 597 72 538 q 208 690 146 656 q 328 723 270 723 q 422 709 387 723 q 498 667 458 694 q 583 715 550 709 q 660 724 625 724 l 660 643 l 659 643 q 543 622 543 643 q 583 540 575 562 l 659 540 l 659 464 l 594 464 q 524 281 594 356 q 342 207 453 207 q 221 233 283 207 q 197 214 216 228 q 156 157 156 186 q 184 115 156 126 q 238 101 206 106 q 284 95 271 96 q 328 92 297 93 q 509 66 404 92 q 616 4 574 51 q 658 -108 658 -43 q 333 -302 658 -302 q 129 -260 218 -302 z "},"Ǧ":{"ha":845,"x_min":54,"x_max":758,"o":"m 281 1272 l 325 1316 l 431 1210 l 537 1316 l 582 1272 l 431 1122 l 281 1272 m 108 224 q 94 259 108 224 q 67 368 79 294 q 54 513 54 441 q 64 646 54 585 q 92 766 73 708 q 143 874 111 825 q 214 960 174 923 q 431 1039 301 1039 q 611 981 527 1039 q 754 745 709 914 l 656 721 q 654 734 655 726 q 647 767 653 743 q 631 813 640 791 q 605 862 623 836 q 564 909 587 889 q 434 955 513 955 q 300 918 355 955 q 214 818 244 882 q 155 521 155 696 q 209 209 155 312 q 433 73 280 73 q 654 293 624 73 q 660 401 660 340 l 431 401 l 431 485 l 758 485 l 758 0 l 677 0 l 677 130 q 515 0 600 24 q 414 -11 477 -11 q 287 20 352 -11 q 180 103 222 52 q 108 224 137 155 z "},"ǧ":{"ha":682,"x_min":28,"x_max":660,"o":"m 200 958 l 244 1002 l 351 895 l 456 1001 l 501 958 l 351 807 l 200 958 m 129 -260 q 56 -202 83 -239 q 28 -127 28 -164 q 39 -71 28 -91 q 70 -34 49 -50 q 105 -8 90 -18 q 147 15 121 2 q 179 32 174 28 q 95 73 123 43 q 66 126 66 102 q 76 170 66 150 q 103 206 85 189 q 153 245 133 233 q 174 258 172 257 q 103 349 134 293 q 72 472 72 405 q 109 597 72 538 q 208 690 146 656 q 328 723 270 723 q 422 709 387 723 q 498 667 458 694 q 583 715 550 709 q 660 724 625 724 l 660 643 l 659 643 q 543 622 543 643 q 586 528 577 558 q 594 467 594 498 q 524 282 594 358 q 342 207 454 207 q 221 233 283 207 q 197 214 216 228 q 156 157 156 186 q 184 115 156 126 q 238 101 206 106 q 284 95 271 96 q 328 92 297 93 q 509 66 404 92 q 616 4 574 51 q 658 -108 658 -43 q 333 -302 658 -302 q 129 -260 218 -302 m 118 -115 q 190 -205 118 -181 q 306 -226 252 -226 q 377 -225 359 -226 q 422 -223 395 -225 q 468 -216 450 -220 q 507 -203 486 -212 q 540 -182 528 -194 q 568 -113 568 -153 q 541 -48 568 -72 q 472 -14 514 -24 q 390 1 431 -3 q 312 7 349 5 q 268 11 275 9 q 174 -29 195 -16 q 118 -115 118 -62 m 212 597 q 187 572 212 597 q 161 467 161 547 q 209 335 161 388 q 338 283 256 283 q 462 336 420 283 q 505 467 505 390 q 463 595 505 543 q 342 647 421 647 q 212 597 262 647 z "},"Ǩ":{"ha":773,"x_min":92,"x_max":756,"o":"m 255 1272 l 299 1316 l 406 1210 l 511 1316 l 556 1272 l 406 1122 l 255 1272 m 92 0 l 92 1027 l 193 1027 l 193 469 l 611 1027 l 719 1027 l 425 642 l 756 0 l 644 0 l 361 557 l 193 336 l 193 0 l 92 0 z "},"ǩ":{"ha":618,"x_min":88,"x_max":601,"o":"m 176 1261 l 220 1305 l 326 1198 l 432 1304 l 477 1261 l 326 1110 l 176 1261 m 88 0 l 88 1027 l 178 1027 l 178 361 l 452 715 l 559 715 l 372 472 l 601 0 l 502 0 l 311 395 l 178 230 l 178 0 l 88 0 z "},"Ǫ":{"ha":857,"x_min":54,"x_max":802,"o":"m 491 -216 q 352 -138 352 -216 q 398 -9 352 -75 q 296 19 344 -3 q 188 100 232 50 q 114 218 144 151 q 68 359 83 286 q 54 511 54 433 q 67 663 54 589 q 109 806 80 736 q 181 926 138 875 q 290 1008 224 977 q 433 1039 355 1039 q 574 1007 511 1039 q 679 924 637 976 q 749 803 720 872 q 802 510 802 673 q 648 68 802 212 q 463 -10 574 -2 q 415 -120 415 -71 q 494 -151 415 -144 q 515 -152 507 -152 l 515 -216 l 491 -216 m 193 766 q 183 738 193 766 q 163 645 172 709 q 155 501 155 582 q 171 344 155 420 q 219 206 186 268 q 306 109 251 144 q 428 73 361 73 q 543 100 495 73 q 620 170 591 127 q 668 271 649 212 q 702 510 702 376 q 620 856 702 733 q 543 927 591 900 q 435 955 496 955 q 325 930 374 955 q 245 865 277 906 q 193 766 214 824 z "},"ǫ":{"ha":659,"x_min":51,"x_max":608,"o":"m 387 -214 q 248 -136 248 -214 q 294 -6 248 -73 q 123 96 186 7 q 51 362 51 199 q 124 625 51 526 q 330 723 198 723 q 535 624 463 723 q 608 359 608 525 q 534 93 608 194 q 359 -7 469 3 q 311 -117 311 -68 q 389 -148 311 -142 q 411 -149 402 -149 l 411 -213 l 387 -214 m 140 358 q 252 85 140 143 q 330 68 286 68 q 409 85 374 68 q 463 131 443 103 q 496 198 484 159 q 519 357 519 267 q 330 647 519 647 q 140 358 140 647 z "},"Ǭ":{"ha":857,"x_min":54,"x_max":802,"o":"m 256 1122 l 256 1184 l 614 1184 l 614 1122 l 256 1122 m 491 -216 q 352 -138 352 -216 q 398 -9 352 -75 q 296 19 344 -3 q 188 100 232 50 q 114 218 144 151 q 68 359 83 286 q 54 511 54 433 q 67 663 54 589 q 109 806 80 736 q 181 926 138 875 q 290 1008 224 977 q 433 1039 355 1039 q 574 1007 511 1039 q 679 924 637 976 q 749 803 720 872 q 802 510 802 673 q 648 68 802 212 q 463 -10 574 -2 q 415 -120 415 -71 q 494 -151 415 -144 q 515 -152 507 -152 l 515 -216 l 491 -216 m 193 766 q 183 738 193 766 q 163 645 172 709 q 155 501 155 582 q 171 344 155 420 q 219 206 186 268 q 306 109 251 144 q 428 73 361 73 q 543 100 495 73 q 620 170 591 127 q 668 271 649 212 q 702 510 702 376 q 620 856 702 733 q 543 927 591 900 q 435 955 496 955 q 325 930 374 955 q 245 865 277 906 q 193 766 214 824 z "},"ǭ":{"ha":659,"x_min":51,"x_max":608,"o":"m 152 806 l 152 868 l 509 868 l 509 806 l 152 806 m 387 -214 q 248 -136 248 -214 q 294 -6 248 -73 q 123 96 186 7 q 51 362 51 199 q 124 625 51 526 q 330 723 198 723 q 535 624 463 723 q 608 359 608 525 q 534 93 608 194 q 359 -7 469 3 q 311 -117 311 -68 q 389 -148 311 -142 q 411 -149 402 -149 l 411 -213 l 387 -214 m 140 358 q 252 85 140 143 q 330 68 286 68 q 409 85 374 68 q 463 131 443 103 q 496 198 484 159 q 519 357 519 267 q 330 647 519 647 q 140 358 140 647 z "},"Ǯ":{"ha":752,"x_min":47,"x_max":706,"o":"m 239 1272 l 283 1316 l 390 1210 l 496 1316 l 541 1272 l 390 1122 l 239 1272 m 47 161 l 116 220 q 149 181 116 220 q 227 115 191 133 q 383 77 300 77 q 536 149 467 77 q 606 323 606 221 q 557 469 606 423 q 489 513 523 503 q 432 527 454 523 q 375 533 409 531 q 248 537 321 537 l 248 633 l 572 941 l 83 941 l 83 1027 l 706 1027 l 706 944 l 393 633 q 392 631 392 632 q 391 631 392 631 l 410 631 q 582 579 497 631 q 688 445 656 534 q 706 330 706 393 q 614 84 706 175 q 374 -7 522 -7 q 47 161 180 -7 z "},"ǯ":{"ha":639,"x_min":17,"x_max":622,"o":"m 192 956 l 236 1000 l 342 894 l 448 1000 l 493 956 l 342 806 l 192 956 m 307 321 l 305 319 q 496 266 405 319 q 622 50 622 195 q 577 -127 622 -51 q 460 -241 532 -203 q 300 -279 388 -279 q 17 -119 127 -279 l 85 -60 q 123 -111 95 -82 q 175 -159 151 -140 q 300 -203 233 -203 q 463 -131 393 -203 q 532 43 532 -58 q 162 236 532 236 l 162 321 l 486 640 l 52 640 l 52 715 l 620 715 l 620 642 l 307 321 z "},"ǰ":{"ha":245,"x_min":-43,"x_max":276,"o":"m -25 956 l 19 1000 l 125 894 l 231 1000 l 276 956 l 125 806 l -25 956 m -43 -153 q 52 -130 23 -153 q 81 -20 81 -106 l 81 715 l 171 715 l 171 0 q 142 -161 171 -116 q 123 -190 132 -178 q 97 -209 114 -201 q 70 -220 81 -216 q 38 -226 59 -224 q -13 -229 9 -229 l -37 -229 l -43 -153 z "},"Ǳ":{"ha":1598,"x_min":92,"x_max":1552,"o":"m 869 0 l 869 73 l 1429 941 l 906 941 l 906 1027 l 1552 1027 l 1552 944 l 1013 96 l 1548 96 l 1548 0 l 869 0 m 92 0 l 92 1027 l 336 1027 q 753 725 677 1027 q 777 526 777 627 q 763 352 777 424 q 716 215 749 280 q 633 102 683 149 q 336 0 524 0 l 92 0 m 192 84 l 336 84 q 637 273 558 84 q 677 505 677 368 q 583 852 677 749 q 484 918 547 892 q 336 943 421 943 l 192 943 l 192 84 z "},"ǲ":{"ha":1352,"x_min":92,"x_max":1335,"o":"m 840 0 l 840 58 l 1220 640 l 876 640 l 876 715 l 1335 715 l 1335 665 l 949 81 l 1335 81 l 1335 0 l 840 0 m 92 0 l 92 1027 l 336 1027 q 753 725 677 1027 q 777 526 777 627 q 763 352 777 424 q 716 215 749 280 q 633 102 683 149 q 336 0 524 0 l 92 0 m 192 84 l 336 84 q 637 273 558 84 q 677 505 677 368 q 583 852 677 749 q 484 918 547 892 q 336 943 421 943 l 192 943 l 192 84 z "},"ǳ":{"ha":1196,"x_min":51,"x_max":1179,"o":"m 684 0 l 684 58 l 1064 640 l 720 640 l 720 715 l 1179 715 l 1179 665 l 793 81 l 1179 81 l 1179 0 l 684 0 m 503 113 q 311 -7 434 -7 q 198 23 249 -7 q 116 105 147 54 q 51 346 51 212 q 83 531 51 446 q 178 670 115 616 q 311 723 240 723 q 436 686 382 723 q 503 622 490 650 l 503 1027 l 593 1027 l 593 99 q 598 46 593 79 q 610 0 604 13 l 520 0 q 503 113 503 8 m 140 346 q 183 149 140 226 q 325 68 228 68 q 431 105 389 68 q 503 189 464 134 l 503 545 q 342 647 431 647 q 140 346 140 647 z "},"Ǵ":{"ha":845,"x_min":54,"x_max":758,"o":"m 387 1166 l 587 1366 l 646 1307 l 431 1122 l 387 1166 m 108 224 q 94 259 108 224 q 67 368 79 294 q 54 513 54 441 q 64 646 54 585 q 92 766 73 708 q 143 874 111 825 q 214 960 174 923 q 431 1039 301 1039 q 611 981 527 1039 q 754 745 709 914 l 656 721 q 654 734 655 726 q 647 767 653 743 q 631 813 640 791 q 605 862 623 836 q 564 909 587 889 q 434 955 513 955 q 300 918 355 955 q 214 818 244 882 q 155 521 155 696 q 209 209 155 312 q 433 73 280 73 q 654 293 624 73 q 660 401 660 340 l 431 401 l 431 485 l 758 485 l 758 0 l 677 0 l 677 130 q 515 0 600 24 q 414 -11 477 -11 q 287 20 352 -11 q 180 103 222 52 q 108 224 137 155 z "},"ǵ":{"ha":682,"x_min":28,"x_max":660,"o":"m 320 851 l 520 1051 l 579 992 l 365 807 l 320 851 m 129 -260 q 56 -202 83 -239 q 28 -127 28 -164 q 39 -71 28 -91 q 70 -34 49 -50 q 105 -8 90 -18 q 147 15 121 2 q 179 32 174 28 q 95 73 123 43 q 66 126 66 102 q 76 170 66 150 q 103 206 85 189 q 153 245 133 233 q 174 258 172 257 q 103 349 134 293 q 72 472 72 405 q 109 597 72 538 q 208 690 146 656 q 328 723 270 723 q 422 709 387 723 q 498 667 458 694 q 583 715 550 709 q 660 724 625 724 l 660 643 l 659 643 q 543 622 543 643 q 586 528 577 558 q 594 467 594 498 q 524 282 594 358 q 342 207 454 207 q 221 233 283 207 q 197 214 216 228 q 156 157 156 186 q 184 115 156 126 q 238 101 206 106 q 284 95 271 96 q 328 92 297 93 q 509 66 404 92 q 616 4 574 51 q 658 -108 658 -43 q 333 -302 658 -302 q 129 -260 218 -302 m 118 -115 q 190 -205 118 -181 q 306 -226 252 -226 q 377 -225 359 -226 q 422 -223 395 -225 q 468 -216 450 -220 q 507 -203 486 -212 q 540 -182 528 -194 q 568 -113 568 -153 q 541 -48 568 -72 q 472 -14 514 -24 q 390 1 431 -3 q 312 7 349 5 q 268 11 275 9 q 174 -29 195 -16 q 118 -115 118 -62 m 212 597 q 187 572 212 597 q 161 467 161 547 q 209 335 161 388 q 338 283 256 283 q 462 336 420 283 q 505 467 505 390 q 463 595 505 543 q 342 647 421 647 q 212 597 262 647 z "},"Ƕ":{"ha":1220,"x_min":92,"x_max":1170,"o":"m 659 347 l 659 498 l 192 498 l 192 0 l 92 0 l 92 1027 l 192 1027 l 192 582 l 659 582 l 659 1027 l 759 1027 l 759 336 q 767 199 759 229 q 782 150 774 170 q 802 119 790 131 q 830 97 814 107 q 900 77 861 77 q 960 82 939 77 q 1000 97 980 86 q 1036 125 1021 108 q 1069 228 1069 161 q 1017 715 1069 398 l 1117 715 q 1170 228 1170 404 q 1133 98 1170 153 q 918 -7 1063 -7 q 718 65 774 -7 q 672 168 682 113 q 659 347 659 248 z "},"Ƿ":{"ha":732,"x_min":92,"x_max":686,"o":"m 92 0 l 92 1027 l 192 1027 l 192 973 q 389 1039 250 1039 q 607 969 529 1039 q 686 775 686 900 q 353 230 686 453 q 192 136 281 182 l 192 0 l 92 0 m 192 220 q 393 373 334 319 q 566 626 526 492 q 585 754 585 694 q 573 848 585 814 q 542 902 561 882 q 495 934 522 922 q 398 955 449 955 q 314 944 348 955 q 256 916 279 934 q 192 847 214 885 l 192 220 z "},"Ǹ":{"ha":848,"x_min":87,"x_max":762,"o":"m 210 1307 l 269 1366 l 469 1166 l 424 1122 l 210 1307 m 87 0 l 87 1027 l 247 1027 l 661 245 l 661 1027 l 762 1027 l 762 0 l 675 0 l 187 928 l 187 0 l 87 0 z "},"ǹ":{"ha":658,"x_min":81,"x_max":583,"o":"m 118 991 l 177 1050 l 377 850 l 332 806 l 118 991 m 81 0 l 81 715 l 171 715 l 171 598 q 284 690 231 657 q 410 723 338 723 q 533 675 483 723 q 583 533 583 628 l 583 0 l 494 0 l 494 533 q 457 615 494 584 q 379 647 421 647 q 171 530 279 647 l 171 0 l 81 0 z "},"Ǻ":{"ha":766,"x_min":17,"x_max":749,"o":"m 286 1502 l 486 1702 l 545 1643 l 330 1458 l 286 1502 m 307 1260 q 291 1245 307 1260 q 275 1185 275 1229 q 307 1109 275 1141 q 382 1078 338 1078 q 458 1109 427 1078 q 490 1185 490 1141 q 458 1260 490 1229 q 382 1292 427 1292 q 307 1260 338 1292 m 260 1062 q 210 1185 210 1113 q 261 1307 210 1257 q 383 1358 311 1358 q 505 1307 454 1358 q 556 1185 556 1257 q 505 1062 556 1113 q 456 1027 483 1040 l 456 1027 l 749 0 l 645 0 l 557 324 l 212 324 l 121 0 l 17 0 l 310 1027 q 260 1062 283 1040 m 235 408 l 533 408 l 383 942 l 235 408 z "},"ǻ":{"ha":629,"x_min":49,"x_max":572,"o":"m 278 1280 l 478 1480 l 537 1421 l 323 1236 l 278 1280 m 190 836 q 164 861 190 836 q 139 958 139 886 q 190 1081 139 1030 q 312 1131 240 1131 q 434 1081 384 1131 q 485 958 485 1030 q 434 836 485 886 q 312 785 384 785 q 190 836 240 785 m 236 1034 q 220 1018 236 1034 q 204 958 204 1002 q 236 883 204 914 q 311 851 267 851 q 387 883 355 851 q 418 958 418 914 q 387 1034 418 1002 q 311 1065 355 1065 q 236 1034 267 1065 m 49 175 q 49 199 49 175 q 61 259 49 223 q 99 324 73 296 q 159 374 125 352 q 241 413 192 395 q 462 471 332 445 q 420 614 462 578 q 314 646 384 646 q 167 581 229 646 q 130 533 140 554 l 66 576 q 324 722 142 722 q 533 596 488 722 q 551 473 551 545 l 551 100 q 559 47 551 81 q 572 0 566 13 l 482 0 q 462 114 462 10 q 251 -9 366 -9 q 74 81 123 -9 q 49 175 49 126 m 155 252 q 138 171 138 221 q 174 94 138 121 q 252 67 209 67 q 328 80 295 67 q 388 113 361 93 q 462 180 437 151 l 462 395 q 309 354 333 361 q 155 252 190 315 z "},"Ǽ":{"ha":1085,"x_min":17,"x_max":1039,"o":"m 617 1166 l 817 1366 l 876 1307 l 662 1122 l 617 1166 m 17 0 l 310 1027 l 1013 1027 l 1013 943 l 557 943 l 557 582 l 884 582 l 884 498 l 557 498 l 557 90 l 1039 90 l 1039 0 l 456 0 l 456 324 l 212 324 l 121 0 l 17 0 m 235 408 l 456 408 l 456 942 l 383 942 l 235 408 z "},"ǽ":{"ha":1036,"x_min":49,"x_max":981,"o":"m 483 850 l 683 1050 l 742 991 l 528 806 l 483 850 m 49 176 q 49 200 49 176 q 61 261 49 224 q 99 325 73 297 q 159 375 125 353 q 241 414 192 397 q 462 472 332 446 q 420 615 462 579 q 314 647 384 647 q 167 582 229 647 q 130 534 140 555 l 66 577 q 324 723 142 723 q 525 616 474 723 q 730 723 595 723 q 920 620 855 723 q 979 348 979 528 l 549 348 q 640 101 549 167 q 732 68 686 68 q 811 84 778 68 q 865 122 844 99 q 920 198 907 168 l 981 155 q 912 66 956 105 q 744 -7 831 -7 q 593 36 656 -7 q 495 157 530 80 q 251 -7 385 -7 q 74 82 123 -7 q 49 176 49 127 m 155 254 q 138 172 138 222 q 174 95 138 122 q 250 68 209 68 q 321 80 292 68 q 374 106 351 91 q 420 141 397 121 q 477 199 453 171 q 460 321 460 246 q 461 358 460 334 q 462 396 462 383 q 309 355 333 363 q 155 254 190 317 m 553 424 l 889 424 q 842 591 889 525 q 730 647 803 647 q 572 537 612 647 q 553 424 553 486 z "},"Ǿ":{"ha":862,"x_min":54,"x_max":808,"o":"m 387 1177 l 587 1377 l 646 1318 l 431 1133 l 387 1177 m 162 133 q 82 306 109 207 q 54 497 54 406 q 67 663 54 589 q 109 806 80 736 q 181 926 138 875 q 290 1008 224 977 q 435 1039 355 1039 q 642 963 553 1039 l 692 1050 l 770 1006 l 704 892 q 781 716 755 817 q 808 523 808 614 q 795 358 808 431 q 753 217 782 285 q 681 99 724 149 q 575 19 639 49 q 435 -11 512 -11 q 226 64 316 -11 l 174 -26 l 96 19 l 162 133 m 212 218 l 597 886 q 435 955 532 955 q 193 766 260 955 q 155 497 155 660 q 212 218 155 334 m 269 138 q 435 73 338 73 q 543 100 495 73 q 622 170 591 127 q 671 271 652 212 q 707 529 707 374 q 652 802 707 683 l 269 138 z "},"ǿ":{"ha":659,"x_min":51,"x_max":608,"o":"m 285 874 l 485 1074 l 544 1015 l 330 830 l 285 874 m 120 100 q 51 363 51 201 q 124 625 51 526 q 330 723 198 723 q 461 690 403 723 l 494 747 l 571 703 l 530 631 q 608 362 608 530 q 535 93 608 194 q 330 -8 461 -8 q 186 35 250 -8 l 152 -24 l 74 20 l 120 100 m 140 358 q 168 184 140 255 l 422 624 q 330 647 383 647 q 140 358 140 647 m 225 103 q 322 68 269 68 q 409 85 374 68 q 463 131 443 103 q 496 198 484 159 q 519 374 519 267 q 485 553 519 481 l 225 103 z "},"Ȁ":{"ha":766,"x_min":17,"x_max":749,"o":"m 17 0 l 310 1027 l 456 1027 l 749 0 l 645 0 l 557 324 l 212 324 l 121 0 l 17 0 m 235 408 l 533 408 l 383 942 l 235 408 z "},"ȁ":{"ha":629,"x_min":49,"x_max":605,"o":"m 49 175 q 49 199 49 175 q 61 259 49 223 q 99 324 73 296 q 159 374 125 352 q 241 413 192 395 q 462 471 332 445 q 420 614 462 578 q 314 646 384 646 q 167 581 229 646 q 130 533 140 554 l 66 576 q 324 722 142 722 q 533 596 488 722 q 551 473 551 545 l 551 100 q 559 47 551 81 q 572 0 566 13 l 482 0 q 462 114 462 10 q 251 -9 366 -9 q 74 81 123 -9 q 49 175 49 126 m 155 252 q 138 171 138 221 q 174 94 138 121 q 252 67 209 67 q 328 80 295 67 q 388 113 361 93 q 462 180 437 151 l 462 395 q 309 354 333 361 q 155 252 190 315 z "},"Ȃ":{"ha":766,"x_min":17,"x_max":749,"o":"m 243 1149 q 383 1240 288 1240 q 523 1149 479 1240 l 476 1122 q 437 1168 464 1150 q 383 1187 411 1187 q 329 1168 355 1187 q 290 1122 302 1150 l 243 1149 m 17 0 l 310 1027 l 456 1027 l 749 0 l 645 0 l 557 324 l 212 324 l 121 0 l 17 0 m 235 408 l 533 408 l 383 942 l 235 408 z "},"ȃ":{"ha":629,"x_min":49,"x_max":572,"o":"m 184 833 q 324 924 229 924 q 464 833 420 924 l 417 806 q 378 852 405 834 q 324 871 352 871 q 270 852 296 871 q 231 806 243 834 l 184 833 m 49 175 q 49 199 49 175 q 61 259 49 223 q 99 324 73 296 q 159 374 125 352 q 241 413 192 395 q 462 471 332 445 q 420 614 462 578 q 314 646 384 646 q 167 581 229 646 q 130 533 140 554 l 66 576 q 324 722 142 722 q 533 596 488 722 q 551 473 551 545 l 551 100 q 559 47 551 81 q 572 0 566 13 l 482 0 q 462 114 462 10 q 251 -9 366 -9 q 74 81 123 -9 q 49 175 49 126 m 155 252 q 138 171 138 221 q 174 94 138 121 q 252 67 209 67 q 328 80 295 67 q 388 113 361 93 q 462 180 437 151 l 462 395 q 309 354 333 361 q 155 252 190 315 z "},"Ȅ":{"ha":720,"x_min":92,"x_max":674,"o":"m 92 0 l 92 1027 l 648 1027 l 648 943 l 192 943 l 192 582 l 519 582 l 519 498 l 192 498 l 192 90 l 674 90 l 674 0 l 92 0 z "},"ȅ":{"ha":627,"x_min":51,"x_max":609,"o":"m 119 100 q 102 125 119 100 q 68 211 85 150 q 51 339 51 272 q 60 461 51 406 q 85 555 70 517 q 123 624 101 594 q 170 673 146 654 q 221 703 193 691 q 313 723 269 723 q 387 715 356 723 q 452 683 417 707 q 512 620 487 659 q 570 348 570 528 l 140 348 q 232 101 140 167 q 333 68 277 68 q 511 198 437 68 l 572 155 q 503 67 546 106 q 342 -7 422 -7 q 208 22 263 -7 q 119 100 152 51 m 144 424 l 481 424 q 434 591 481 525 q 322 647 395 647 q 163 537 203 647 q 144 424 144 486 z "},"Ȇ":{"ha":720,"x_min":92,"x_max":674,"o":"m 230 1149 q 370 1240 274 1240 q 509 1149 465 1240 l 463 1122 q 424 1168 450 1150 q 370 1187 397 1187 q 315 1168 342 1187 q 277 1122 289 1150 l 230 1149 m 92 0 l 92 1027 l 648 1027 l 648 943 l 192 943 l 192 582 l 519 582 l 519 498 l 192 498 l 192 90 l 674 90 l 674 0 l 92 0 z "},"ȇ":{"ha":627,"x_min":51,"x_max":572,"o":"m 182 833 q 322 924 227 924 q 462 833 418 924 l 415 806 q 376 852 403 834 q 322 871 350 871 q 268 852 294 871 q 229 806 241 834 l 182 833 m 119 100 q 102 125 119 100 q 68 211 85 150 q 51 339 51 272 q 60 461 51 406 q 85 555 70 517 q 123 624 101 594 q 170 673 146 654 q 221 703 193 691 q 313 723 269 723 q 387 715 356 723 q 452 683 417 707 q 512 620 487 659 q 570 348 570 528 l 140 348 q 232 101 140 167 q 333 68 277 68 q 511 198 437 68 l 572 155 q 503 67 546 106 q 342 -7 422 -7 q 208 22 263 -7 q 119 100 152 51 m 144 424 l 481 424 q 434 591 481 525 q 322 647 395 647 q 163 537 203 647 q 144 424 144 486 z "},"Ȉ":{"ha":283,"x_min":-70,"x_max":429,"o":"m 92 0 l 92 1027 l 192 1027 l 192 0 l 92 0 z "},"ȉ":{"ha":283,"x_min":-115,"x_max":384,"o":"m 87 0 l 87 715 l 177 715 l 177 0 l 87 0 z "},"Ȋ":{"ha":283,"x_min":2,"x_max":281,"o":"m 2 1149 q 142 1240 46 1240 q 281 1149 237 1240 l 235 1122 q 196 1168 222 1150 q 142 1187 170 1187 q 87 1168 114 1187 q 49 1122 61 1150 l 2 1149 m 92 0 l 92 1027 l 192 1027 l 192 0 l 92 0 z "},"ȋ":{"ha":283,"x_min":-7,"x_max":272,"o":"m -7 833 q 132 924 37 924 q 272 833 228 924 l 225 806 q 186 852 213 834 q 132 871 160 871 q 78 852 104 871 q 39 806 52 834 l -7 833 m 87 0 l 87 715 l 177 715 l 177 0 l 87 0 z "},"Ȍ":{"ha":857,"x_min":54,"x_max":802,"o":"m 114 218 q 98 252 114 218 q 68 359 83 286 q 54 511 54 433 q 67 663 54 589 q 109 806 80 736 q 181 926 138 875 q 290 1008 224 977 q 433 1039 355 1039 q 574 1007 511 1039 q 679 924 637 976 q 749 803 720 872 q 802 510 802 673 q 648 68 802 212 q 435 -11 565 -11 q 296 19 359 -11 q 188 100 232 50 q 114 218 144 151 m 193 766 q 183 738 193 766 q 163 645 172 709 q 155 501 155 582 q 171 344 155 420 q 219 206 186 268 q 306 109 251 144 q 428 73 361 73 q 543 100 495 73 q 620 170 591 127 q 668 271 649 212 q 702 510 702 376 q 620 856 702 733 q 543 927 591 900 q 435 955 496 955 q 325 930 374 955 q 245 865 277 906 q 193 766 214 824 z "},"ȍ":{"ha":659,"x_min":51,"x_max":618,"o":"m 51 362 q 51 444 51 362 q 124 625 51 526 q 330 723 198 723 q 535 624 463 723 q 608 359 608 525 q 535 93 608 194 q 330 -8 461 -8 q 123 96 197 -8 q 51 362 51 199 m 140 358 q 252 85 140 143 q 330 68 286 68 q 409 85 374 68 q 463 131 443 103 q 496 198 484 159 q 519 357 519 267 q 330 647 519 647 q 140 358 140 647 z "},"Ȏ":{"ha":857,"x_min":54,"x_max":802,"o":"m 295 1149 q 435 1240 339 1240 q 574 1149 530 1240 l 528 1122 q 489 1168 515 1150 q 435 1187 463 1187 q 380 1168 407 1187 q 342 1122 354 1150 l 295 1149 m 114 218 q 98 252 114 218 q 68 359 83 286 q 54 511 54 433 q 67 663 54 589 q 109 806 80 736 q 181 926 138 875 q 290 1008 224 977 q 433 1039 355 1039 q 574 1007 511 1039 q 679 924 637 976 q 749 803 720 872 q 802 510 802 673 q 648 68 802 212 q 435 -11 565 -11 q 296 19 359 -11 q 188 100 232 50 q 114 218 144 151 m 193 766 q 183 738 193 766 q 163 645 172 709 q 155 501 155 582 q 171 344 155 420 q 219 206 186 268 q 306 109 251 144 q 428 73 361 73 q 543 100 495 73 q 620 170 591 127 q 668 271 649 212 q 702 510 702 376 q 620 856 702 733 q 543 927 591 900 q 435 955 496 955 q 325 930 374 955 q 245 865 277 906 q 193 766 214 824 z "},"ȏ":{"ha":659,"x_min":51,"x_max":608,"o":"m 191 833 q 330 924 235 924 q 470 833 426 924 l 423 806 q 385 852 411 834 q 330 871 358 871 q 276 852 302 871 q 237 806 250 834 l 191 833 m 51 362 q 51 444 51 362 q 124 625 51 526 q 330 723 198 723 q 535 624 463 723 q 608 359 608 525 q 535 93 608 194 q 330 -8 461 -8 q 123 96 197 -8 q 51 362 51 199 m 140 358 q 252 85 140 143 q 330 68 286 68 q 409 85 374 68 q 463 131 443 103 q 496 198 484 159 q 519 357 519 267 q 330 647 519 647 q 140 358 140 647 z "},"Ȑ":{"ha":741,"x_min":92,"x_max":724,"o":"m 92 0 l 92 1027 l 437 1027 q 680 901 600 1027 q 724 758 724 833 q 681 591 724 667 q 526 486 633 509 l 720 0 l 610 0 l 423 469 l 192 469 l 192 0 l 92 0 m 192 553 l 447 553 q 568 598 518 553 q 624 753 624 648 q 473 932 624 892 q 376 943 429 943 l 192 943 l 192 553 z "},"ȑ":{"ha":433,"x_min":18,"x_max":517,"o":"m 81 0 q 81 715 81 0 l 171 715 l 171 523 q 220 620 203 593 q 392 723 286 723 q 416 722 400 723 l 416 646 q 340 628 370 640 q 280 593 309 617 q 171 425 229 551 l 171 0 l 81 0 z "},"Ȓ":{"ha":741,"x_min":92,"x_max":724,"o":"m 208 1149 q 348 1240 252 1240 q 488 1149 444 1240 l 441 1122 q 402 1168 429 1150 q 348 1187 376 1187 q 294 1168 320 1187 q 255 1122 267 1150 l 208 1149 m 92 0 l 92 1027 l 437 1027 q 680 901 600 1027 q 724 758 724 833 q 681 591 724 667 q 526 486 633 509 l 720 0 l 610 0 l 423 469 l 192 469 l 192 0 l 92 0 m 192 553 l 447 553 q 568 598 518 553 q 624 753 624 648 q 473 932 624 892 q 376 943 429 943 l 192 943 l 192 553 z "},"ȓ":{"ha":433,"x_min":81,"x_max":416,"o":"m 109 833 q 249 924 153 924 q 389 833 345 924 l 342 806 q 303 852 330 834 q 249 871 277 871 q 195 852 221 871 q 156 806 168 834 l 109 833 m 81 0 q 81 715 81 0 l 171 715 l 171 523 q 220 620 203 593 q 392 723 286 723 q 416 722 400 723 l 416 646 q 340 628 370 640 q 280 593 309 617 q 171 425 229 551 l 171 0 l 81 0 z "},"Ȕ":{"ha":823,"x_min":92,"x_max":736,"o":"m 92 309 l 92 1027 l 192 1027 l 192 309 q 237 153 192 216 q 413 73 293 73 q 625 235 592 73 q 633 309 633 272 l 633 1027 l 736 1027 l 736 309 q 675 110 736 197 q 413 -11 594 -11 q 122 161 197 -11 q 92 309 92 233 z "},"ȕ":{"ha":664,"x_min":87,"x_max":631,"o":"m 87 182 l 87 715 l 177 715 l 177 182 q 213 100 177 132 q 292 68 250 68 q 500 186 392 68 l 500 715 l 589 715 l 589 0 l 500 0 l 500 118 q 335 3 404 24 q 266 -7 302 -7 q 138 40 188 -7 q 87 182 87 87 z "},"Ȗ":{"ha":823,"x_min":92,"x_max":736,"o":"m 274 1149 q 414 1240 318 1240 q 553 1149 509 1240 l 507 1122 q 468 1168 494 1150 q 414 1187 441 1187 q 359 1168 386 1187 q 321 1122 333 1150 l 274 1149 m 92 309 l 92 1027 l 192 1027 l 192 309 q 237 153 192 216 q 413 73 293 73 q 625 235 592 73 q 633 309 633 272 l 633 1027 l 736 1027 l 736 309 q 675 110 736 197 q 413 -11 594 -11 q 122 161 197 -11 q 92 309 92 233 z "},"ȗ":{"ha":664,"x_min":87,"x_max":589,"o":"m 199 833 q 338 924 243 924 q 478 833 434 924 l 431 806 q 393 852 419 834 q 338 871 366 871 q 284 852 311 871 q 245 806 258 834 l 199 833 m 87 182 l 87 715 l 177 715 l 177 182 q 213 100 177 132 q 292 68 250 68 q 500 186 392 68 l 500 715 l 589 715 l 589 0 l 500 0 l 500 118 q 335 3 404 24 q 266 -7 302 -7 q 138 40 188 -7 q 87 182 87 87 z "},"Ș":{"ha":701,"x_min":27,"x_max":670,"o":"m 296 -365 l 355 -195 l 311 -195 l 311 -94 l 412 -94 l 412 -195 q 361 -298 394 -234 q 326 -365 328 -363 l 296 -365 m 27 250 l 120 282 q 123 271 121 282 q 132 241 125 259 q 149 200 138 222 q 180 155 160 178 q 227 115 200 133 q 380 73 285 73 q 523 125 476 73 q 570 254 570 178 q 540 374 570 330 q 437 448 511 418 q 380 469 415 457 l 315 492 q 90 634 148 547 q 50 775 50 694 q 126 954 50 871 q 218 1015 162 991 q 335 1039 273 1039 q 443 1022 396 1039 q 519 981 490 1006 q 571 925 548 957 q 604 868 594 893 l 624 818 q 635 790 633 794 l 547 756 q 540 778 545 760 q 531 807 535 795 q 518 839 528 819 q 499 873 509 859 q 474 904 490 887 q 439 930 458 920 q 338 955 395 955 q 203 906 255 955 q 151 775 151 857 q 197 650 151 686 q 239 622 222 631 q 280 605 256 613 q 314 592 303 596 q 357 578 325 587 l 414 560 q 630 417 571 512 q 670 261 670 353 q 628 122 670 195 q 469 0 576 30 q 376 -11 429 -11 q 271 3 323 -11 q 185 41 220 18 q 122 92 150 64 q 77 147 94 119 q 33 235 45 198 l 27 250 z "},"ș":{"ha":595,"x_min":54,"x_max":541,"o":"m 252 -361 l 311 -192 l 267 -192 l 267 -90 l 369 -90 l 369 -192 q 317 -295 351 -231 q 282 -361 284 -359 l 252 -361 m 54 136 l 121 179 q 201 96 157 123 q 309 68 245 68 q 417 104 376 68 q 452 178 452 134 q 437 247 452 221 q 395 289 422 273 q 300 327 349 315 q 223 348 251 338 q 165 375 195 358 q 113 413 135 392 q 64 540 64 461 q 127 671 64 619 q 289 723 191 723 q 485 640 405 723 q 510 609 500 624 l 448 563 q 429 583 444 568 q 411 602 415 598 l 393 616 q 373 631 381 627 l 350 639 q 277 647 328 647 q 188 617 225 647 q 151 553 151 588 q 163 496 151 517 q 199 459 175 475 q 290 419 239 435 q 358 398 342 404 q 403 381 375 393 q 447 360 431 370 q 484 333 463 350 q 515 298 504 317 q 541 198 541 252 q 473 50 541 108 q 314 -7 404 -7 q 162 27 224 -7 q 54 136 101 61 z "},"Ț":{"ha":720,"x_min":17,"x_max":703,"o":"m 302 -354 l 361 -184 l 317 -184 l 317 -83 l 418 -83 l 418 -184 q 367 -288 400 -223 q 332 -354 334 -352 l 302 -354 m 17 943 l 17 1027 l 703 1027 l 703 943 l 410 943 l 410 0 l 310 0 l 310 943 l 17 943 z "},"ț":{"ha":411,"x_min":24,"x_max":399,"o":"m 210 -363 l 269 -193 l 224 -193 l 224 -92 l 326 -92 l 326 -193 q 275 -296 308 -232 q 239 -363 241 -361 l 210 -363 m 24 640 l 24 715 l 145 715 l 145 977 l 235 977 l 235 715 l 399 715 l 399 640 l 235 640 l 235 186 q 256 92 235 117 q 325 67 277 67 q 372 71 345 67 q 399 75 399 74 l 399 7 q 312 -9 354 -9 q 254 -7 269 -9 q 216 6 238 -5 q 179 37 193 17 q 145 186 145 84 l 145 640 l 24 640 z "},"Ȝ":{"ha":690,"x_min":27,"x_max":644,"o":"m 158 -71 q 299 15 158 -71 q 453 122 406 80 q 514 184 500 165 q 547 279 547 233 q 525 367 547 324 q 468 435 503 410 q 304 446 384 493 l 188 380 l 188 476 q 367 579 342 564 q 424 619 393 595 q 472 665 455 643 q 515 785 515 719 q 453 895 515 851 q 318 939 392 939 q 188 900 245 939 q 92 812 131 861 l 27 875 l 65 917 q 155 991 113 970 q 319 1036 242 1036 q 463 1001 397 1036 q 570 907 530 966 q 610 779 610 848 q 543 592 610 671 q 483 537 513 557 q 605 425 566 487 q 644 283 644 363 q 585 134 644 216 q 446 1 551 86 q 329 -79 391 -41 l 216 -145 q 188 -161 197 -157 l 158 -71 z "},"ȝ":{"ha":696,"x_min":54,"x_max":646,"o":"m 167 -195 q 457 -73 340 -149 q 528 -8 499 -45 q 556 70 556 28 q 533 145 556 113 q 473 191 509 178 q 392 197 437 203 q 305 165 347 191 l 190 96 l 190 191 l 370 301 q 469 379 442 346 q 524 497 524 446 q 495 579 524 548 q 333 637 441 637 q 119 503 224 637 l 54 566 l 92 608 q 182 682 140 661 q 349 726 269 726 q 538 667 465 726 q 612 506 612 608 q 521 290 612 378 q 484 260 502 272 l 506 254 q 565 227 541 243 q 598 201 590 210 q 617 177 607 191 q 633 147 627 163 q 646 68 646 110 q 627 -12 646 26 q 578 -82 608 -51 q 507 -141 547 -113 q 424 -191 466 -170 q 338 -231 382 -212 q 197 -278 261 -262 l 167 -195 z "},"Ȟ":{"ha":850,"x_min":92,"x_max":759,"o":"m 275 1272 l 319 1316 l 425 1210 l 531 1316 l 576 1272 l 425 1122 l 275 1272 m 92 0 l 92 1027 l 192 1027 l 192 582 l 659 582 l 659 1027 l 759 1027 l 759 0 l 659 0 l 659 498 l 192 498 l 192 0 l 92 0 z "},"ȟ":{"ha":664,"x_min":87,"x_max":589,"o":"m 188 1261 l 232 1305 l 338 1198 l 444 1304 l 489 1261 l 338 1110 l 188 1261 m 87 0 l 87 1027 l 177 1027 l 177 598 q 342 713 277 694 q 411 723 375 723 q 539 675 489 723 q 589 533 589 628 l 589 0 l 500 0 l 500 533 q 464 615 500 584 q 385 647 427 647 q 177 530 285 647 l 177 0 l 87 0 z "},"Ƞ":{"ha":779,"x_min":87,"x_max":692,"o":"m 87 0 l 87 1011 l 186 1011 l 186 862 q 333 972 250 924 q 493 1020 416 1020 q 633 970 576 1020 q 692 807 692 917 l 692 -279 l 593 -279 l 593 807 q 552 900 593 865 q 456 935 511 935 q 318 887 401 935 q 186 785 236 840 l 186 0 l 87 0 z "},"ȡ":{"ha":667,"x_min":51,"x_max":774,"o":"m 140 346 q 183 149 140 226 q 325 68 228 68 q 431 105 389 68 q 503 189 464 134 l 503 545 q 342 647 431 647 q 140 346 140 647 m 652 -121 q 692 -109 677 -121 q 707 -79 707 -96 q 693 -46 707 -62 q 651 -30 678 -30 q 600 -39 625 -30 q 652 -121 611 -121 m 503 113 q 311 -7 434 -7 q 198 23 249 -7 q 116 105 147 54 q 51 346 51 212 q 83 531 51 446 q 178 670 115 616 q 311 723 240 723 q 436 686 382 723 q 503 622 490 650 l 503 1027 l 593 1027 l 593 99 q 594 27 593 71 q 651 35 621 35 q 742 1 710 35 q 774 -79 774 -33 q 742 -159 774 -124 q 655 -193 710 -193 q 519 -95 553 -193 q 447 -201 473 -142 l 393 -173 q 505 -21 427 -83 q 503 113 501 13 z "},"Ȣ":{"ha":677,"x_min":54,"x_max":623,"o":"m 178 588 q 107 648 136 611 q 79 726 79 686 q 131 970 79 843 l 220 942 q 174 722 174 826 q 203 671 174 694 q 340 627 258 627 q 491 736 453 627 q 500 791 500 763 q 493 851 500 819 q 479 901 486 883 q 456 959 473 919 l 432 1013 l 528 1027 l 548 979 q 596 841 591 879 q 602 766 602 802 q 569 669 602 729 q 498 589 535 610 q 623 310 623 513 q 549 71 623 153 q 339 -12 475 -12 q 129 72 203 -12 q 54 311 54 155 q 178 588 54 513 m 339 71 q 488 141 450 71 q 522 322 522 203 q 482 493 522 441 q 336 544 442 544 q 193 491 231 544 q 155 305 155 438 q 203 121 155 172 q 339 71 252 71 z "},"ȣ":{"ha":598,"x_min":51,"x_max":547,"o":"m 158 511 q 72 638 72 559 q 96 740 72 694 q 154 812 119 785 l 218 769 q 163 683 169 713 q 157 623 157 654 q 205 569 157 591 q 294 547 252 547 q 366 560 336 547 q 413 593 395 573 q 450 678 450 635 q 370 848 450 766 l 431 899 q 540 676 540 817 q 508 578 540 624 q 439 511 477 532 q 547 269 547 446 q 483 60 547 132 q 300 -11 418 -11 q 116 61 181 -11 q 51 269 51 134 q 158 511 51 445 m 140 269 q 218 79 140 116 q 300 64 252 64 q 380 79 348 64 q 429 123 413 94 q 458 279 458 176 q 424 428 458 383 q 298 473 389 473 q 173 427 206 473 q 140 269 140 380 z "},"Ȥ":{"ha":774,"x_min":46,"x_max":743,"o":"m 557 -104 q 643 -73 608 -104 q 660 -46 655 -62 q 650 1 665 -30 l 46 1 l 46 73 l 606 941 l 83 941 l 83 1027 l 728 1027 l 728 944 l 190 96 l 724 96 l 724 1 q 699 -96 743 -56 q 609 -139 668 -123 q 584 -144 593 -143 l 557 -104 z "}}}
